<?xml version="1.0" encoding="utf-8"?>
<!-- Generator: Adobe Illustrator 16.2.1, SVG Export Plug-In . SVG Version: 6.00 Build 0)  -->
<!DOCTYPE svg PUBLIC "-//W3C//DTD SVG 1.1//EN" "http://www.w3.org/Graphics/SVG/1.1/DTD/svg11.dtd">
<svg version="1.1" id="Layer_1" xmlns="http://www.w3.org/2000/svg" xmlns:xlink="http://www.w3.org/1999/xlink" x="0px" y="0px"
	 width="276.182px" height="149.752px" viewBox="0 0 276.182 149.752" enable-background="new 0 0 276.182 149.752"
	 xml:space="preserve">
<g>
	
		<rect x="171.361" y="72.407" fill="none" stroke="#000000" stroke-linecap="round" stroke-linejoin="round" stroke-miterlimit="10" width="6.439" height="7.511"/>
	
		<rect x="96.021" y="72.408" fill="none" stroke="#000000" stroke-linecap="round" stroke-linejoin="round" stroke-miterlimit="10" width="6.868" height="7.51"/>
	<path fill="none" stroke="#000000" stroke-linecap="round" stroke-linejoin="round" stroke-miterlimit="10" d="M64.251,4.579V0.5
		 M62.749,0.5v5.367 M275.465,149.252V4.793"/>
	<polyline fill="none" stroke="#000000" stroke-linecap="round" stroke-linejoin="round" stroke-miterlimit="10" points="
		62.749,5.867 183.597,5.867 183.597,4.579 64.251,4.579 	"/>
	<path fill="none" stroke="#000000" stroke-linecap="round" stroke-linejoin="round" stroke-miterlimit="10" d="M274.178,5.651
		v143.601 M275.465,4.793h-91.868 M183.597,5.651h90.581"/>
	
		<rect x="274.178" y="143.886" fill="none" stroke="#000000" stroke-linecap="round" stroke-linejoin="round" stroke-miterlimit="10" width="1.504" height="1.932"/>
	<path fill="none" stroke="#000000" stroke-linecap="round" stroke-linejoin="round" stroke-miterlimit="10" d="M91.512,140.021
		H267.31 M73.912,140.021H90.01"/>
	<polyline fill="none" stroke="#000000" stroke-linecap="round" stroke-linejoin="round" stroke-miterlimit="10" points="
		73.912,138.518 91.512,138.518 268.596,138.518 	"/>
	
		<line fill="none" stroke="#000000" stroke-linecap="round" stroke-linejoin="round" stroke-miterlimit="10" x1="274.178" y1="145.603" x2="267.31" y2="145.603"/>
	<polyline fill="none" stroke="#000000" stroke-linecap="round" stroke-linejoin="round" stroke-miterlimit="10" points="
		274.178,144.101 268.596,144.101 268.596,138.518 	"/>
	
		<line fill="none" stroke="#000000" stroke-linecap="round" stroke-linejoin="round" stroke-miterlimit="10" x1="267.31" y1="145.603" x2="267.31" y2="140.021"/>
	<polyline fill="none" stroke="#000000" stroke-miterlimit="10" points="91.512,138.518 91.512,140.021 94.302,138.518 	"/>
	<polyline fill="none" stroke="#000000" stroke-miterlimit="10" points="91.512,140.021 94.302,138.52 94.302,140.021 	"/>
	<polyline fill="none" stroke="#000000" stroke-miterlimit="10" points="95.59,138.518 95.59,140.021 98.167,138.518 	"/>
	<polyline fill="none" stroke="#000000" stroke-miterlimit="10" points="95.59,140.021 98.167,138.52 98.167,140.021 	"/>
	<polyline fill="none" stroke="#000000" stroke-miterlimit="10" points="99.454,138.518 99.454,140.021 101.815,138.518 	"/>
	<polyline fill="none" stroke="#000000" stroke-miterlimit="10" points="99.454,140.021 101.815,138.52 101.815,140.021 	"/>
	<polyline fill="none" stroke="#000000" stroke-miterlimit="10" points="103.104,138.518 103.104,140.021 105.68,138.518 	"/>
	<polyline fill="none" stroke="#000000" stroke-miterlimit="10" points="103.104,140.021 105.68,138.52 105.68,140.021 	"/>
	<polyline fill="none" stroke="#000000" stroke-miterlimit="10" points="106.966,138.518 106.966,140.021 109.542,138.518 	"/>
	<polyline fill="none" stroke="#000000" stroke-miterlimit="10" points="106.966,140.021 109.542,138.52 109.542,140.021 	"/>
	<polyline fill="none" stroke="#000000" stroke-miterlimit="10" points="110.616,138.518 110.616,140.021 113.19,138.518 	"/>
	<polyline fill="none" stroke="#000000" stroke-miterlimit="10" points="110.616,140.021 113.19,138.52 113.19,140.021 	"/>
	<polyline fill="none" stroke="#000000" stroke-miterlimit="10" points="114.479,138.518 114.479,140.021 117.055,138.518 	"/>
	<polyline fill="none" stroke="#000000" stroke-miterlimit="10" points="114.479,140.021 117.055,138.52 117.055,140.021 	"/>
	<polyline fill="none" stroke="#000000" stroke-miterlimit="10" points="118.343,138.518 118.343,140.021 120.703,138.518 	"/>
	<polyline fill="none" stroke="#000000" stroke-miterlimit="10" points="118.343,140.021 120.703,138.52 120.703,140.021 	"/>
	<polyline fill="none" stroke="#000000" stroke-miterlimit="10" points="121.993,138.518 121.993,140.021 124.568,138.518 	"/>
	<polyline fill="none" stroke="#000000" stroke-miterlimit="10" points="121.993,140.021 124.568,138.52 124.568,140.021 	"/>
	<polyline fill="none" stroke="#000000" stroke-miterlimit="10" points="125.854,138.518 125.854,140.021 128.431,138.518 	"/>
	<polyline fill="none" stroke="#000000" stroke-miterlimit="10" points="125.854,140.021 128.431,138.52 128.431,140.021 	"/>
	<polyline fill="none" stroke="#000000" stroke-miterlimit="10" points="129.505,138.518 129.505,140.021 132.08,138.518 	"/>
	<polyline fill="none" stroke="#000000" stroke-miterlimit="10" points="129.505,140.021 132.08,138.52 132.08,140.021 	"/>
	<polyline fill="none" stroke="#000000" stroke-miterlimit="10" points="133.37,138.518 133.37,140.021 135.943,138.518 	"/>
	<polyline fill="none" stroke="#000000" stroke-miterlimit="10" points="133.37,140.021 135.943,138.52 135.943,140.021 	"/>
	<polyline fill="none" stroke="#000000" stroke-miterlimit="10" points="137.232,138.518 137.232,140.021 139.594,138.518 	"/>
	<polyline fill="none" stroke="#000000" stroke-miterlimit="10" points="137.232,140.021 139.594,138.52 139.594,140.021 	"/>
	<polyline fill="none" stroke="#000000" stroke-miterlimit="10" points="140.882,138.518 140.882,140.021 143.457,138.518 	"/>
	<polyline fill="none" stroke="#000000" stroke-miterlimit="10" points="140.882,140.021 143.457,138.52 143.457,140.021 	"/>
	<polyline fill="none" stroke="#000000" stroke-miterlimit="10" points="144.745,138.518 144.745,140.021 147.318,138.518 	"/>
	<polyline fill="none" stroke="#000000" stroke-miterlimit="10" points="144.745,140.021 147.318,138.52 147.318,140.021 	"/>
	<polyline fill="none" stroke="#000000" stroke-miterlimit="10" points="148.394,138.518 148.394,140.021 150.971,138.518 	"/>
	<polyline fill="none" stroke="#000000" stroke-miterlimit="10" points="148.394,140.021 150.971,138.52 150.971,140.021 	"/>
	<polyline fill="none" stroke="#000000" stroke-miterlimit="10" points="152.256,138.518 152.256,140.021 154.834,138.518 	"/>
	<polyline fill="none" stroke="#000000" stroke-miterlimit="10" points="152.256,140.021 154.834,138.52 154.834,140.021 	"/>
	<polyline fill="none" stroke="#000000" stroke-miterlimit="10" points="156.121,138.518 156.121,140.021 158.482,138.518 	"/>
	<polyline fill="none" stroke="#000000" stroke-miterlimit="10" points="156.121,140.021 158.482,138.52 158.482,140.021 	"/>
	<polyline fill="none" stroke="#000000" stroke-miterlimit="10" points="159.771,138.518 159.771,140.021 162.347,138.518 	"/>
	<polyline fill="none" stroke="#000000" stroke-miterlimit="10" points="159.771,140.021 162.347,138.52 162.347,140.021 	"/>
	<polyline fill="none" stroke="#000000" stroke-miterlimit="10" points="163.635,138.518 163.635,140.021 166.209,138.518 	"/>
	<polyline fill="none" stroke="#000000" stroke-miterlimit="10" points="163.635,140.021 166.209,138.52 166.209,140.021 	"/>
	<polyline fill="none" stroke="#000000" stroke-miterlimit="10" points="167.499,138.518 167.499,140.021 169.859,138.518 	"/>
	<polyline fill="none" stroke="#000000" stroke-miterlimit="10" points="167.499,140.021 169.859,138.52 169.859,140.021 	"/>
	<polyline fill="none" stroke="#000000" stroke-miterlimit="10" points="171.146,138.518 171.146,140.021 173.723,138.518 	"/>
	<polyline fill="none" stroke="#000000" stroke-miterlimit="10" points="171.146,140.021 173.723,138.52 173.723,140.021 	"/>
	<polyline fill="none" stroke="#000000" stroke-miterlimit="10" points="175.01,138.518 175.01,140.021 177.372,138.518 	"/>
	<polyline fill="none" stroke="#000000" stroke-miterlimit="10" points="175.01,140.021 177.372,138.52 177.372,140.021 	"/>
	<polyline fill="none" stroke="#000000" stroke-miterlimit="10" points="178.66,138.518 178.66,140.021 181.236,138.518 	"/>
	<polyline fill="none" stroke="#000000" stroke-miterlimit="10" points="178.66,140.021 181.236,138.52 181.236,140.021 	"/>
	<polyline fill="none" stroke="#000000" stroke-miterlimit="10" points="182.523,138.518 182.523,140.021 185.099,138.518 	"/>
	<polyline fill="none" stroke="#000000" stroke-miterlimit="10" points="182.523,140.021 185.099,138.52 185.099,140.021 	"/>
	<polyline fill="none" stroke="#000000" stroke-miterlimit="10" points="186.388,138.518 186.388,140.021 188.748,138.518 	"/>
	<polyline fill="none" stroke="#000000" stroke-miterlimit="10" points="186.388,140.021 188.748,138.52 188.748,140.021 	"/>
	<polyline fill="none" stroke="#000000" stroke-miterlimit="10" points="190.035,138.518 190.035,140.021 192.611,138.518 	"/>
	<polyline fill="none" stroke="#000000" stroke-miterlimit="10" points="190.035,140.021 192.611,138.52 192.611,140.021 	"/>
	<polyline fill="none" stroke="#000000" stroke-miterlimit="10" points="193.9,138.518 193.9,140.021 196.475,138.518 	"/>
	<polyline fill="none" stroke="#000000" stroke-miterlimit="10" points="193.9,140.021 196.475,138.52 196.475,140.021 	"/>
	<polyline fill="none" stroke="#000000" stroke-miterlimit="10" points="197.549,138.518 197.549,140.021 200.125,138.518 	"/>
	<polyline fill="none" stroke="#000000" stroke-miterlimit="10" points="197.549,140.021 200.125,138.52 200.125,140.021 	"/>
	<polyline fill="none" stroke="#000000" stroke-miterlimit="10" points="201.412,138.518 201.412,140.021 203.988,138.518 	"/>
	<polyline fill="none" stroke="#000000" stroke-miterlimit="10" points="201.412,140.021 203.988,138.52 203.988,140.021 	"/>
	<polyline fill="none" stroke="#000000" stroke-miterlimit="10" points="205.276,138.518 205.276,140.021 207.638,138.518 	"/>
	<polyline fill="none" stroke="#000000" stroke-miterlimit="10" points="205.276,140.021 207.638,138.52 207.638,140.021 	"/>
	<polyline fill="none" stroke="#000000" stroke-miterlimit="10" points="208.925,138.518 208.925,140.021 211.5,138.518 	"/>
	<polyline fill="none" stroke="#000000" stroke-miterlimit="10" points="208.925,140.021 211.5,138.52 211.5,140.021 	"/>
	<polyline fill="none" stroke="#000000" stroke-miterlimit="10" points="212.789,138.518 212.789,140.021 215.365,138.518 	"/>
	<polyline fill="none" stroke="#000000" stroke-miterlimit="10" points="212.789,140.021 215.365,138.52 215.365,140.021 	"/>
	<polyline fill="none" stroke="#000000" stroke-miterlimit="10" points="216.438,138.518 216.438,140.021 219.015,138.518 	"/>
	<polyline fill="none" stroke="#000000" stroke-miterlimit="10" points="216.438,140.021 219.015,138.52 219.015,140.021 	"/>
	<polyline fill="none" stroke="#000000" stroke-miterlimit="10" points="220.3,138.518 220.3,140.021 222.877,138.518 	"/>
	<polyline fill="none" stroke="#000000" stroke-miterlimit="10" points="220.3,140.021 222.877,138.52 222.877,140.021 	"/>
	<polyline fill="none" stroke="#000000" stroke-miterlimit="10" points="224.166,138.518 224.166,140.021 226.526,138.518 	"/>
	<polyline fill="none" stroke="#000000" stroke-miterlimit="10" points="224.166,140.021 226.526,138.52 226.526,140.021 	"/>
	<polyline fill="none" stroke="#000000" stroke-miterlimit="10" points="227.813,138.518 227.813,140.021 230.39,138.518 	"/>
	<polyline fill="none" stroke="#000000" stroke-miterlimit="10" points="227.813,140.021 230.39,138.52 230.39,140.021 	"/>
	<polyline fill="none" stroke="#000000" stroke-miterlimit="10" points="231.678,138.518 231.678,140.021 234.254,138.518 	"/>
	<polyline fill="none" stroke="#000000" stroke-miterlimit="10" points="231.678,140.021 234.254,138.52 234.254,140.021 	"/>
	<polyline fill="none" stroke="#000000" stroke-miterlimit="10" points="235.327,138.518 235.327,140.021 237.902,138.518 	"/>
	<polyline fill="none" stroke="#000000" stroke-miterlimit="10" points="235.327,140.021 237.902,138.52 237.902,140.021 	"/>
	<polyline fill="none" stroke="#000000" stroke-miterlimit="10" points="239.189,138.518 239.189,140.021 241.766,138.518 	"/>
	<polyline fill="none" stroke="#000000" stroke-miterlimit="10" points="239.189,140.021 241.766,138.52 241.766,140.021 	"/>
	<polyline fill="none" stroke="#000000" stroke-miterlimit="10" points="243.055,138.518 243.055,140.021 245.416,138.518 	"/>
	<polyline fill="none" stroke="#000000" stroke-miterlimit="10" points="243.055,140.021 245.416,138.52 245.416,140.021 	"/>
	<polyline fill="none" stroke="#000000" stroke-miterlimit="10" points="246.703,138.518 246.703,140.021 249.279,138.518 	"/>
	<polyline fill="none" stroke="#000000" stroke-miterlimit="10" points="246.703,140.021 249.279,138.52 249.279,140.021 	"/>
	<polyline fill="none" stroke="#000000" stroke-miterlimit="10" points="250.567,138.518 250.567,140.021 253.142,138.518 	"/>
	<polyline fill="none" stroke="#000000" stroke-miterlimit="10" points="250.567,140.021 253.142,138.52 253.142,140.021 	"/>
	<polyline fill="none" stroke="#000000" stroke-miterlimit="10" points="254.432,138.518 254.432,140.021 256.792,138.518 	"/>
	<polyline fill="none" stroke="#000000" stroke-miterlimit="10" points="254.432,140.021 256.792,138.52 256.792,140.021 	"/>
	<polyline fill="none" stroke="#000000" stroke-miterlimit="10" points="258.079,138.518 258.079,140.021 260.654,138.518 	"/>
	<polyline fill="none" stroke="#000000" stroke-miterlimit="10" points="258.079,140.021 260.654,138.52 260.654,140.021 	"/>
	<polyline fill="none" stroke="#000000" stroke-miterlimit="10" points="261.943,138.518 261.943,140.021 264.305,138.518 	"/>
	<polyline fill="none" stroke="#000000" stroke-miterlimit="10" points="261.943,140.021 264.305,138.52 264.305,140.021 	"/>
	<polyline fill="none" stroke="#000000" stroke-miterlimit="10" points="265.592,138.518 265.592,140.021 268.596,138.518 	"/>
	<polyline fill="none" stroke="#000000" stroke-miterlimit="10" points="265.592,140.021 268.596,138.52 268.596,140.021 	"/>
	
		<line fill="none" stroke="#000000" stroke-linecap="round" stroke-linejoin="round" stroke-miterlimit="10" x1="268.596" y1="140.021" x2="268.596" y2="138.52"/>
	<polyline fill="none" stroke="#000000" stroke-miterlimit="10" points="274.178,145.603 274.178,144.313 271.386,145.603 	"/>
	<polyline fill="none" stroke="#000000" stroke-miterlimit="10" points="274.178,144.313 271.386,145.603 271.386,144.313 	"/>
	<polyline fill="none" stroke="#000000" stroke-miterlimit="10" points="270.099,145.603 270.099,144.313 267.31,145.603 	"/>
	<polyline fill="none" stroke="#000000" stroke-miterlimit="10" points="270.099,144.313 267.31,145.603 267.31,144.313 	"/>
	
		<line fill="none" stroke="#000000" stroke-linecap="round" stroke-linejoin="round" stroke-miterlimit="10" x1="267.31" y1="145.603" x2="267.31" y2="144.313"/>
	<polyline fill="none" stroke="#000000" stroke-miterlimit="10" points="267.31,145.603 268.596,145.603 267.31,143.455 	"/>
	<polyline fill="none" stroke="#000000" stroke-miterlimit="10" points="268.596,145.603 267.31,143.455 268.596,143.455 	"/>
	<polyline fill="none" stroke="#000000" stroke-miterlimit="10" points="267.31,142.169 268.596,142.169 267.31,140.021 	"/>
	<polyline fill="none" stroke="#000000" stroke-miterlimit="10" points="268.596,142.169 267.31,140.021 268.596,140.021 	"/>
	
		<line fill="none" stroke="#000000" stroke-linecap="round" stroke-linejoin="round" stroke-miterlimit="10" x1="267.31" y1="140.021" x2="268.596" y2="140.021"/>
	<path fill="none" stroke="#000000" stroke-linecap="round" stroke-linejoin="round" stroke-miterlimit="10" d="M0.5,4.148h1.073
		 M184.885,114.479V81.852 M184.885,138.734v-11.807 M183.597,138.734v-11.807 M90.01,140.021v2.793 M91.512,138.518v4.297"/>
	
		<rect x="274.178" y="120.916" fill="none" stroke="#000000" stroke-linecap="round" stroke-linejoin="round" stroke-miterlimit="10" width="1.504" height="1.934"/>
	
		<rect x="274.178" y="74.34" fill="none" stroke="#000000" stroke-linecap="round" stroke-linejoin="round" stroke-miterlimit="10" width="1.504" height="1.932"/>
	
		<rect x="274.178" y="51.587" fill="none" stroke="#000000" stroke-linecap="round" stroke-linejoin="round" stroke-miterlimit="10" width="1.504" height="1.932"/>
	
		<rect x="274.178" y="97.736" fill="none" stroke="#000000" stroke-linecap="round" stroke-linejoin="round" stroke-miterlimit="10" width="1.504" height="1.932"/>
	
		<rect x="274.178" y="29.047" fill="none" stroke="#000000" stroke-linecap="round" stroke-linejoin="round" stroke-miterlimit="10" width="1.504" height="1.932"/>
	<path fill="none" stroke="#000000" stroke-linecap="round" stroke-linejoin="round" stroke-miterlimit="10" d="M120.489,51.801
		H72.837 M129.29,51.801h-0.644 M142.598,51.801h-1.286 M191.968,51.801h-47.866 M200.769,51.801h-0.856 M214.076,51.801h-1.287
		 M120.489,53.089H71.551 M129.29,53.089h-0.644 M191.968,53.089h-50.656 M200.769,53.089h-0.856 M214.076,53.089h-1.287"/>
	
		<rect x="171.148" y="73.696" fill="none" stroke="#000000" stroke-linecap="round" stroke-linejoin="round" stroke-miterlimit="10" width="6.652" height="6.867"/>
	
		<rect x="95.161" y="73.695" fill="none" stroke="#000000" stroke-linecap="round" stroke-linejoin="round" stroke-miterlimit="10" width="6.868" height="6.868"/>
	<path fill="none" stroke="#000000" stroke-linecap="round" stroke-linejoin="round" stroke-miterlimit="10" d="M3.077,41.928V5.006
		 M3.077,53.303V43.214 M1.573,54.591V5.006 M3.077,53.303h45.72 M1.573,54.591h45.722"/>
	<polyline fill="none" stroke="#000000" stroke-linecap="round" stroke-linejoin="round" stroke-miterlimit="10" points="
		61.676,138.518 61.246,135.3 59.959,132.295 57.812,129.719 55.021,127.787 52.017,126.713 48.581,126.5 	"/>
	<polyline fill="#231F20" stroke="#000000" stroke-miterlimit="10" points="49.441,138.518 49.871,138.518 49.441,126.5 	"/>
	<polyline fill="#231F20" stroke="#000000" stroke-miterlimit="10" points="49.871,138.518 49.441,126.5 49.871,126.5 	"/>
	<path fill="none" stroke="#000000" stroke-linecap="round" stroke-linejoin="round" stroke-miterlimit="10" d="M120.704,83.353
		h-1.287 M120.06,138.734V95.373 M183.597,115.768v9.658 M179.518,126.928v11.807 M179.518,115.768v9.658 M183.597,81.85v32.629
		 M178.23,126.928v11.807 M184.885,81.85h1.288 M179.303,81.85h4.294 M120.704,81.85h49.155 M178.23,114.479h6.654 M179.518,115.768
		h4.079 M178.23,126.928h6.654 M179.518,125.426h4.079 M179.303,80.562h6.87 M119.417,80.562h50.442 M48.796,80.562h45.076"/>
	<polyline fill="none" stroke="#000000" stroke-linecap="round" stroke-linejoin="round" stroke-miterlimit="10" points="
		120.703,95.373 124.139,94.945 127.145,93.657 129.72,91.511 131.651,88.719 132.726,85.502 132.726,82.281 	"/>
	<polyline fill="#231F20" stroke="#000000" stroke-miterlimit="10" points="120.703,83.139 120.703,83.57 132.94,83.139 	"/>
	<polyline fill="#231F20" stroke="#000000" stroke-miterlimit="10" points="120.703,83.57 132.94,83.139 132.94,83.57 	"/>
	<path fill="none" stroke="#000000" stroke-linecap="round" stroke-linejoin="round" stroke-miterlimit="10" d="M186.173,80.562
		v1.289 M198.406,81.852v-1.289 M72.837,51.801V10.372 M71.551,53.089V5.867 M267.31,74.984v5.579 M268.596,76.271v5.58
		 M274.178,74.984h-6.868 M274.178,76.271h-5.582 M215.365,79.061v1.502 M215.365,11.017v47.224 M214.076,79.061v1.502
		 M214.076,53.089v5.152 M142.598,51.801V5.867 M144.102,51.801V5.867 M215.365,80.562h51.944 M206.992,80.562h7.084
		 M198.406,80.562h0.645 M206.992,81.852h61.604 M198.406,81.852h0.645 M214.076,9.515v42.286"/>
	<polyline fill="none" stroke="#000000" stroke-linecap="round" stroke-linejoin="round" stroke-miterlimit="10" points="
		198.406,81.852 197.764,85.072 196.475,88.291 194.33,90.652 191.754,92.583 188.534,93.658 185.099,93.871 	"/>
	<polyline fill="#231F20" stroke="#000000" stroke-miterlimit="10" points="185.958,81.852 186.388,81.852 185.958,93.871 	"/>
	<polyline fill="#231F20" stroke="#000000" stroke-miterlimit="10" points="186.388,81.852 185.958,93.871 186.388,93.871 	"/>
	<path fill="none" stroke="#000000" stroke-linecap="round" stroke-linejoin="round" stroke-miterlimit="10" d="M214.076,79.061
		h1.289 M215.365,67.04h-1.289 M199.052,80.562v1.289 M206.992,81.852v-1.289 M206.992,81.207h-7.94"/>
	<polyline fill="none" stroke="#000000" stroke-linecap="round" stroke-linejoin="round" stroke-miterlimit="10" points="
		215.365,67.04 218.799,67.471 221.806,68.759 224.38,70.903 226.312,73.696 227.385,76.916 227.385,80.135 	"/>
	<polyline fill="#231F20" stroke="#000000" stroke-miterlimit="10" points="215.365,79.276 215.365,79.061 227.6,79.276 	"/>
	<polyline fill="#231F20" stroke="#000000" stroke-miterlimit="10" points="215.365,79.061 227.6,79.276 227.6,79.061 	"/>
	<path fill="none" stroke="#000000" stroke-linecap="round" stroke-linejoin="round" stroke-miterlimit="10" d="M141.312,53.089
		v-1.288 M129.29,51.801v1.288 M214.076,66.397h1.289 M215.365,58.241h-1.289 M214.72,58.241v8.156"/>
	<polyline fill="none" stroke="#000000" stroke-linecap="round" stroke-linejoin="round" stroke-miterlimit="10" points="
		129.29,51.801 129.72,48.583 131.007,45.361 133.154,42.785 135.944,41.069 139.164,39.994 142.383,39.781 	"/>
	<polyline fill="#231F20" stroke="#000000" stroke-miterlimit="10" points="141.525,51.801 141.096,51.801 141.525,39.781 	"/>
	<polyline fill="#231F20" stroke="#000000" stroke-miterlimit="10" points="141.096,51.801 141.525,39.781 141.096,39.781 	"/>
	<path fill="none" stroke="#000000" stroke-linecap="round" stroke-linejoin="round" stroke-miterlimit="10" d="M212.789,53.089
		V51.8 M200.769,51.8v1.289 M128.646,53.089V51.8 M120.489,51.8v1.289 M120.489,52.445h8.157"/>
	<polyline fill="none" stroke="#000000" stroke-linecap="round" stroke-linejoin="round" stroke-miterlimit="10" points="
		200.769,51.801 201.197,48.583 202.485,45.361 204.633,42.785 207.422,41.069 210.428,39.994 213.861,39.781 	"/>
	<polyline fill="#231F20" stroke="#000000" stroke-miterlimit="10" points="213.004,51.801 212.574,51.801 213.004,39.781 	"/>
	<polyline fill="#231F20" stroke="#000000" stroke-miterlimit="10" points="212.574,51.801 213.004,39.781 212.574,39.781 	"/>
	<path fill="none" stroke="#000000" stroke-linecap="round" stroke-linejoin="round" stroke-miterlimit="10" d="M64.895,10.16h2.576
		 M61.03,10.16h2.578 M57.382,10.16h2.577 M53.52,10.16h2.574 M49.871,10.16h2.363 M46.006,10.16h2.575 M42.143,10.16h2.575
		 M38.494,10.16h2.359 M34.629,10.16h2.576 M30.981,10.16h2.361 M27.116,10.16h2.578 M23.254,10.16h2.576 M19.605,10.16h2.36
		 M15.527,10.16h2.789 M15.527,13.592h56.024 M199.909,53.089V51.8 M191.968,51.8v1.289 M191.968,52.445h7.941"/>
	
		<line fill="none" stroke="#000000" stroke-linecap="round" stroke-linejoin="round" stroke-miterlimit="10" x1="68.761" y1="10.16" x2="71.551" y2="10.16"/>
	<path fill="none" stroke="#000000" stroke-linecap="round" stroke-linejoin="round" stroke-miterlimit="10" d="M32.053,6.938
		h-1.932 M31.839,6.509h-1.718"/>
	<polyline fill="none" stroke="#000000" stroke-linecap="round" stroke-linejoin="round" stroke-miterlimit="10" points="
		28.406,9.73 28.62,10.16 29.049,10.372 29.692,10.16 29.906,9.73 29.692,9.085 29.263,8.872 	"/>
	<path fill="none" stroke="#000000" stroke-linecap="round" stroke-linejoin="round" stroke-miterlimit="10" d="M24.972,11.661
		v1.074 M25.186,11.661v0.429 M24.972,11.661V6.938 M25.615,11.661V7.583 M25.186,11.661V7.583 M26.259,12.95h5.581 M26.259,12.735
		h5.581 M26.044,12.305h6.009"/>
	<polyline fill="none" stroke="#000000" stroke-linecap="round" stroke-linejoin="round" stroke-miterlimit="10" points="
		25.615,11.661 25.615,12.09 26.044,12.305 	"/>
	<path fill="none" stroke="#000000" stroke-linecap="round" stroke-linejoin="round" stroke-miterlimit="10" d="M25.615,12.735
		h0.644 M24.972,12.95h1.287"/>
	<polyline fill="none" stroke="#000000" stroke-linecap="round" stroke-linejoin="round" stroke-miterlimit="10" points="
		25.186,12.09 25.402,12.521 25.615,12.735 	"/>
	
		<line fill="none" stroke="#000000" stroke-linecap="round" stroke-linejoin="round" stroke-miterlimit="10" x1="24.972" y1="12.735" x2="24.972" y2="12.95"/>
	<polyline fill="none" stroke="#000000" stroke-linecap="round" stroke-linejoin="round" stroke-miterlimit="10" points="
		25.615,6.509 25.4,6.724 25.186,7.154 	"/>
	<path fill="none" stroke="#000000" stroke-linecap="round" stroke-linejoin="round" stroke-miterlimit="10" d="M25.615,6.509h0.644
		 M24.972,6.938V5.651"/>
	<polyline fill="none" stroke="#000000" stroke-linecap="round" stroke-linejoin="round" stroke-miterlimit="10" points="
		26.044,6.938 25.615,7.154 25.615,7.583 	"/>
	<path fill="none" stroke="#000000" stroke-linecap="round" stroke-linejoin="round" stroke-miterlimit="10" d="M33.343,11.661
		V6.938 M32.697,11.661V7.583 M32.913,7.583v4.078 M25.186,7.583v-0.43"/>
	<polyline fill="none" stroke="#000000" stroke-linecap="round" stroke-linejoin="round" stroke-miterlimit="10" points="
		32.053,12.305 32.484,12.09 32.697,11.661 	"/>
	<polyline fill="none" stroke="#000000" stroke-linecap="round" stroke-linejoin="round" stroke-miterlimit="10" points="
		32.482,12.735 32.914,12.52 32.914,12.09 	"/>
	<path fill="none" stroke="#000000" stroke-linecap="round" stroke-linejoin="round" stroke-miterlimit="10" d="M32.913,11.661
		v0.429 M33.343,11.661l-0.215,1.074 M31.839,12.735h0.645 M31.839,12.95h1.289"/>
	
		<line fill="none" stroke="#000000" stroke-linecap="round" stroke-linejoin="round" stroke-miterlimit="10" x1="33.128" y1="12.95" x2="33.128" y2="12.735"/>
	<polyline fill="none" stroke="#000000" stroke-linecap="round" stroke-linejoin="round" stroke-miterlimit="10" points="
		32.697,7.583 32.482,7.154 32.053,6.938 	"/>
	<polyline fill="none" stroke="#000000" stroke-linecap="round" stroke-linejoin="round" stroke-miterlimit="10" points="
		32.913,7.154 32.913,6.724 32.482,6.509 31.841,6.509 	"/>
	<path fill="none" stroke="#000000" stroke-linecap="round" stroke-linejoin="round" stroke-miterlimit="10" d="M32.913,7.154v0.43
		 M33.128,5.651l0.215,1.287"/>
	<polyline fill="none" stroke="#000000" stroke-linecap="round" stroke-linejoin="round" stroke-miterlimit="10" points="
		26.259,5.651 31.839,5.651 33.128,5.651 	"/>
	
		<line fill="none" stroke="#000000" stroke-linecap="round" stroke-linejoin="round" stroke-miterlimit="10" x1="26.259" y1="5.651" x2="24.972" y2="5.651"/>
	<path fill="none" stroke="#000000" stroke-linecap="round" stroke-linejoin="round" stroke-miterlimit="10" d="M29.049,8.872V6.081
		 M29.263,8.872V6.081"/>
	<polyline fill="none" stroke="#000000" stroke-linecap="round" stroke-linejoin="round" stroke-miterlimit="10" points="
		28.834,9.3 29.049,9.515 29.264,9.3 	"/>
	<path fill="none" stroke="#000000" stroke-linecap="round" stroke-linejoin="round" stroke-miterlimit="10" d="M29.264,9.3V8.872
		 M28.834,9.3V8.872"/>
	<polyline fill="none" stroke="#000000" stroke-linecap="round" stroke-linejoin="round" stroke-miterlimit="10" points="
		28.834,9.085 29.049,9.3 29.264,9.085 	"/>
	
		<line fill="none" stroke="#000000" stroke-linecap="round" stroke-linejoin="round" stroke-miterlimit="10" x1="28.834" y1="8.872" x2="29.264" y2="8.872"/>
	<polyline fill="none" stroke="#000000" stroke-linecap="round" stroke-linejoin="round" stroke-miterlimit="10" points="
		29.263,6.509 29.263,6.295 29.263,6.081 29.263,5.867 29.049,5.867 28.834,6.081 28.834,6.295 29.049,6.509 	"/>
	
		<line fill="none" stroke="#000000" stroke-linecap="round" stroke-linejoin="round" stroke-miterlimit="10" x1="29.263" y1="6.081" x2="29.049" y2="6.081"/>
	<polygon fill="none" stroke="#000000" stroke-linecap="round" stroke-linejoin="round" stroke-miterlimit="10" points="
		30.121,6.509 30.337,6.295 30.337,6.081 30.121,6.081 29.906,6.081 29.906,6.295 	"/>
	<polyline fill="none" stroke="#000000" stroke-linecap="round" stroke-linejoin="round" stroke-miterlimit="10" points="
		30.337,6.296 30.337,6.081 30.121,6.081 29.906,6.081 29.906,6.296 	"/>
	
		<line fill="none" stroke="#000000" stroke-linecap="round" stroke-linejoin="round" stroke-miterlimit="10" x1="30.121" y1="6.938" x2="30.121" y2="6.724"/>
	
		<line fill="none" stroke="#000000" stroke-linecap="round" stroke-linejoin="round" stroke-miterlimit="10" x1="30.121" y1="7.154" x2="30.121" y2="6.938"/>
	<polyline fill="none" stroke="#000000" stroke-linecap="round" stroke-linejoin="round" stroke-miterlimit="10" points="
		29.906,6.509 30.121,6.724 30.121,6.509 	"/>
	<path fill="none" stroke="#000000" stroke-linecap="round" stroke-linejoin="round" stroke-miterlimit="10" d="M30.121,6.938V6.724
		V6.938z"/>
	<path fill="none" stroke="#000000" stroke-linecap="round" stroke-linejoin="round" stroke-miterlimit="10" d="M30.121,6.938
		h-0.858 M30.121,6.509h-0.858 M29.049,6.938h-3.005 M29.049,6.509h-2.791 M30.121,6.509l0.216-0.214 M29.906,6.509V6.295"/>
	<polyline fill="none" stroke="#000000" stroke-linecap="round" stroke-linejoin="round" stroke-miterlimit="10" points="
		29.049,8.872 28.406,9.085 28.406,9.73 	"/>
	<path fill="none" stroke="#000000" stroke-linecap="round" stroke-linejoin="round" stroke-miterlimit="10" d="M21.106,5.437h1.289
		 M19.175,5.437h1.289 M17.244,5.437h1.286 M15.74,5.437h0.858"/>
	<polyline fill="none" stroke="#000000" stroke-linecap="round" stroke-linejoin="round" stroke-miterlimit="10" points="
		23.04,5.437 23.897,5.437 23.897,6.081 	"/>
	<path fill="none" stroke="#000000" stroke-linecap="round" stroke-linejoin="round" stroke-miterlimit="10" d="M23.897,10.587
		v1.288 M23.897,8.658v1.286 M23.897,6.724v1.287"/>
	
		<line fill="none" stroke="#000000" stroke-linecap="round" stroke-linejoin="round" stroke-miterlimit="10" x1="23.897" y1="12.305" x2="23.897" y2="13.164"/>
	<path fill="none" stroke="#000000" stroke-linecap="round" stroke-linejoin="round" stroke-miterlimit="10" d="M21.106,13.164
		h1.289 M19.175,13.164h1.289 M17.244,13.164h1.286 M15.74,13.164h0.858"/>
	
		<line fill="none" stroke="#000000" stroke-linecap="round" stroke-linejoin="round" stroke-miterlimit="10" x1="23.04" y1="13.164" x2="23.897" y2="13.164"/>
	<path fill="none" stroke="#000000" stroke-linecap="round" stroke-linejoin="round" stroke-miterlimit="10" d="M15.74,10.587v1.288
		 M15.74,8.658v1.286 M15.74,6.724v1.287 M15.74,5.437v0.645"/>
	
		<line fill="none" stroke="#000000" stroke-linecap="round" stroke-linejoin="round" stroke-miterlimit="10" x1="15.74" y1="12.305" x2="15.74" y2="13.164"/>
	<polygon fill="#231F20" stroke="#000000" stroke-miterlimit="10" points="18.961,11.017 18.315,11.017 18.53,11.017 18.746,11.233 
		18.961,11.233 18.961,11.447 19.175,11.447 19.175,11.661 19.175,11.875 19.175,12.09 19.175,12.305 18.961,12.305 18.961,12.52 
		18.746,12.52 18.53,12.52 18.315,12.52 18.103,12.52 18.961,12.52 19.175,12.52 19.175,12.305 19.175,12.09 19.389,12.09 
		19.389,11.875 19.389,11.661 19.175,11.661 19.175,11.447 19.175,11.233 18.961,11.233 	"/>
	<polygon fill="none" stroke="#000000" stroke-linecap="round" stroke-linejoin="round" stroke-miterlimit="10" points="
		18.961,11.017 18.315,11.017 18.53,11.017 18.746,11.233 18.961,11.233 18.961,11.447 19.175,11.447 19.175,11.661 19.175,11.875 
		19.175,12.09 19.175,12.305 18.961,12.305 18.961,12.52 18.746,12.52 18.53,12.52 18.315,12.52 18.103,12.52 18.961,12.52 
		19.175,12.52 19.175,12.305 19.175,12.09 19.389,12.09 19.389,11.875 19.389,11.661 19.175,11.661 19.175,11.447 19.175,11.233 
		18.961,11.233 	"/>
	<polygon fill="#231F20" stroke="#000000" stroke-miterlimit="10" points="18.315,11.017 18.103,11.017 18.103,12.735 
		18.532,12.735 18.746,12.735 18.961,12.735 18.961,12.52 18.103,12.52 18.103,11.017 18.315,11.017 18.961,11.017 18.746,11.017 
		18.532,11.017 	"/>
	<polygon fill="none" stroke="#000000" stroke-linecap="round" stroke-linejoin="round" stroke-miterlimit="10" points="
		18.315,11.017 18.103,11.017 18.103,12.735 18.532,12.735 18.746,12.735 18.961,12.735 18.961,12.52 18.103,12.52 18.103,11.017 
		18.315,11.017 18.961,11.017 18.746,11.017 18.532,11.017 	"/>
	<polygon fill="#231F20" stroke="#000000" stroke-miterlimit="10" points="19.605,11.017 20.034,12.735 20.034,12.305 	"/>
	<polygon fill="none" stroke="#000000" stroke-linecap="round" stroke-linejoin="round" stroke-miterlimit="10" points="
		19.605,11.017 20.034,12.735 20.034,12.305 	"/>
	<polygon fill="#231F20" stroke="#000000" stroke-miterlimit="10" points="20.464,11.017 20.034,12.305 20.034,12.735 
		20.464,11.447 	"/>
	<polygon fill="none" stroke="#000000" stroke-linecap="round" stroke-linejoin="round" stroke-miterlimit="10" points="
		20.464,11.017 20.034,12.305 20.034,12.735 20.464,11.447 	"/>
	<polygon fill="#231F20" stroke="#000000" stroke-miterlimit="10" points="20.464,11.017 20.464,11.447 20.893,12.735 
		20.893,12.305 	"/>
	<polygon fill="none" stroke="#000000" stroke-linecap="round" stroke-linejoin="round" stroke-miterlimit="10" points="
		20.464,11.017 20.464,11.447 20.893,12.735 20.893,12.305 	"/>
	<polygon fill="#231F20" stroke="#000000" stroke-miterlimit="10" points="21.321,11.017 21.106,11.017 20.892,12.305 
		20.892,12.735 	"/>
	<polygon fill="none" stroke="#000000" stroke-linecap="round" stroke-linejoin="round" stroke-miterlimit="10" points="
		21.321,11.017 21.106,11.017 20.892,12.305 20.892,12.735 	"/>
	
		<line fill="none" stroke="#000000" stroke-linecap="round" stroke-linejoin="round" stroke-miterlimit="10" x1="15.527" y1="13.592" x2="15.527" y2="5.006"/>
	<polyline fill="none" stroke="#000000" stroke-linecap="round" stroke-linejoin="round" stroke-miterlimit="10" points="
		61.676,138.518 62.319,135.3 63.608,132.295 65.755,129.719 68.332,127.787 71.551,126.713 74.984,126.5 	"/>
	<polyline fill="#231F20" stroke="#000000" stroke-miterlimit="10" points="74.126,138.518 73.696,138.518 74.126,126.5 	"/>
	<polyline fill="#231F20" stroke="#000000" stroke-miterlimit="10" points="73.696,138.518 74.126,126.5 73.696,126.5 	"/>
	
		<line fill="none" stroke="#000000" stroke-linecap="round" stroke-linejoin="round" stroke-miterlimit="10" x1="73.912" y1="138.518" x2="73.912" y2="140.021"/>
	<polyline fill="#231F20" stroke="#000000" stroke-miterlimit="10" points="8.442,7.798 8.442,8.227 10.16,7.798 	"/>
	<polyline fill="#231F20" stroke="#000000" stroke-miterlimit="10" points="8.442,8.227 10.16,7.798 10.16,8.227 	"/>
	<polyline fill="#231F20" stroke="#000000" stroke-miterlimit="10" points="9.087,9.085 9.517,9.085 9.087,5.009 	"/>
	<polyline fill="#231F20" stroke="#000000" stroke-miterlimit="10" points="9.517,9.085 9.087,5.009 9.517,5.009 	"/>
	<polyline fill="#231F20" stroke="#000000" stroke-miterlimit="10" points="16.814,7.798 16.814,8.227 18.746,7.798 	"/>
	<polyline fill="#231F20" stroke="#000000" stroke-miterlimit="10" points="16.814,8.227 18.746,7.798 18.746,8.227 	"/>
	<polyline fill="#231F20" stroke="#000000" stroke-miterlimit="10" points="17.672,9.085 18.103,9.085 17.672,5.009 	"/>
	<polyline fill="#231F20" stroke="#000000" stroke-miterlimit="10" points="18.103,9.085 17.672,5.009 18.103,5.009 	"/>
	<path fill="none" stroke="#000000" stroke-linecap="round" stroke-linejoin="round" stroke-miterlimit="10" d="M6.513,51.801
		l-0.86,1.074 M8.014,51.801l-0.858,1.074 M9.517,51.801l-0.859,1.074 M11.02,51.801l-1.074,1.074 M12.521,51.801l-1.074,1.074
		 M14.023,51.801l-1.075,1.074 M15.527,51.801l-1.073,1.074 M17.029,51.801l-1.074,1.074 M18.532,51.801l-1.074,1.074
		 M20.034,51.801l-1.073,1.074 M21.536,51.801l-1.072,1.074"/>
	<polyline fill="#231F20" stroke="#000000" stroke-miterlimit="10" points="5.652,52.016 5.224,51.587 5.652,52.66 	"/>
	<polyline fill="#231F20" stroke="#000000" stroke-miterlimit="10" points="5.224,51.587 5.652,52.66 5.224,52.875 	"/>
	<polyline fill="#231F20" stroke="#000000" stroke-miterlimit="10" points="5.652,52.66 5.224,52.875 21.321,52.66 	"/>
	<polyline fill="#231F20" stroke="#000000" stroke-miterlimit="10" points="5.224,52.875 21.322,52.66 21.751,52.875 	"/>
	<polyline fill="#231F20" stroke="#000000" stroke-miterlimit="10" points="21.321,52.66 21.751,52.875 21.321,52.016 	"/>
	<polyline fill="#231F20" stroke="#000000" stroke-miterlimit="10" points="21.751,52.875 21.321,52.016 21.751,51.587 	"/>
	<polyline fill="#231F20" stroke="#000000" stroke-miterlimit="10" points="21.321,52.016 21.751,51.587 5.652,52.016 	"/>
	<polyline fill="#231F20" stroke="#000000" stroke-miterlimit="10" points="21.751,51.587 5.652,52.016 5.222,51.587 	"/>
	
		<line fill="none" stroke="#000000" stroke-linecap="round" stroke-linejoin="round" stroke-miterlimit="10" x1="120.703" y1="95.373" x2="119.417" y2="95.373"/>
	
		<rect x="273.533" y="3.934" fill="none" stroke="#000000" stroke-linecap="round" stroke-linejoin="round" stroke-miterlimit="10" width="1.932" height="2.145"/>
	
		<rect x="181.021" y="4.148" fill="none" stroke="#000000" stroke-linecap="round" stroke-linejoin="round" stroke-miterlimit="10" width="1.502" height="1.502"/>
	
		<rect x="203.774" y="4.148" fill="none" stroke="#000000" stroke-linecap="round" stroke-linejoin="round" stroke-miterlimit="10" width="1.932" height="1.502"/>
	
		<rect x="226.956" y="4.148" fill="none" stroke="#000000" stroke-linecap="round" stroke-linejoin="round" stroke-miterlimit="10" width="1.933" height="1.502"/>
	
		<rect x="250.139" y="4.148" fill="none" stroke="#000000" stroke-linecap="round" stroke-linejoin="round" stroke-miterlimit="10" width="1.931" height="1.502"/>
	<path fill="none" stroke="#000000" stroke-linecap="round" stroke-linejoin="round" stroke-miterlimit="10" d="M6.511,41.928v1.287
		 M18.746,43.214v-1.287 M24.111,41.928v11.375 M22.824,43.214v11.377 M18.746,41.928h5.365 M3.077,41.928h3.434 M18.746,43.214
		h4.078 M3.077,43.214h3.434 M62.749,2.861H0.5"/>
	<polyline fill="none" stroke="#000000" stroke-linecap="round" stroke-linejoin="round" stroke-miterlimit="10" points="
		18.746,41.928 18.315,38.707 17.244,35.917 15.312,33.341 	"/>
	<polyline fill="#231F20" stroke="#000000" stroke-miterlimit="10" points="6.511,41.712 6.725,41.928 15.097,33.339 	"/>
	<polyline fill="#231F20" stroke="#000000" stroke-miterlimit="10" points="6.725,41.928 15.097,33.341 15.527,33.554 	"/>
	<path fill="none" stroke="#000000" stroke-linecap="round" stroke-linejoin="round" stroke-miterlimit="10" d="M72.837,10.372
		V5.867 M48.796,138.52V53.303 M47.295,140.021v-85.43"/>
	<polyline fill="none" stroke="#000000" stroke-linecap="round" stroke-linejoin="round" stroke-miterlimit="10" points="
		49.655,140.021 49.655,138.52 48.797,138.52 	"/>
	<path fill="none" stroke="#000000" stroke-linecap="round" stroke-linejoin="round" stroke-miterlimit="10" d="M228.242,11.017
		h-12.877 M226.956,9.515h-12.88 M228.242,5.651v5.366 M226.956,5.651v3.864 M49.655,140.021h-2.359"/>
	<polygon fill="none" stroke="#000000" stroke-linecap="round" stroke-linejoin="round" stroke-miterlimit="10" points="
		182.523,117.699 182.309,117.055 181.665,116.84 181.021,117.055 180.807,117.699 181.021,118.342 181.665,118.557 
		182.309,118.342 	"/>
	<polygon fill="none" stroke="#000000" stroke-linecap="round" stroke-linejoin="round" stroke-miterlimit="10" points="
		182.523,120.916 182.309,120.273 181.665,120.06 181.021,120.273 180.807,120.916 181.021,121.561 181.665,121.776 
		182.309,121.561 	"/>
	<polygon fill="none" stroke="#000000" stroke-linecap="round" stroke-linejoin="round" stroke-miterlimit="10" points="
		182.523,123.924 182.309,123.279 181.665,123.065 181.021,123.279 180.807,123.924 181.021,124.568 181.665,124.781 
		182.309,124.568 	"/>
	<path fill="none" stroke="#000000" stroke-linecap="round" stroke-linejoin="round" stroke-miterlimit="10" d="M62.749,5.006H1.573
		 M119.417,83.353v-2.79 M120.703,83.353v-1.501"/>
	<polyline fill="none" stroke="#000000" stroke-linecap="round" stroke-linejoin="round" stroke-miterlimit="10" points="
		171.146,80.562 171.146,73.695 177.802,73.695 177.802,80.562 	"/>
	<polyline fill="none" stroke="#000000" stroke-linecap="round" stroke-linejoin="round" stroke-miterlimit="10" points="
		169.859,81.852 169.859,72.407 179.303,72.407 179.303,81.852 	"/>
	<polyline fill="none" stroke="#000000" stroke-linecap="round" stroke-linejoin="round" stroke-miterlimit="10" points="
		95.161,80.562 95.161,73.695 102.029,73.695 102.029,80.562 	"/>
	<polyline fill="none" stroke="#000000" stroke-linecap="round" stroke-linejoin="round" stroke-miterlimit="10" points="
		93.872,81.852 93.872,72.407 103.318,72.407 103.318,81.852 	"/>
	<path fill="none" stroke="#000000" stroke-linecap="round" stroke-linejoin="round" stroke-miterlimit="10" d="M1.573,5.006V4.148
		 M169.859,81.852h9.443 M93.872,81.852h9.446 M184.885,114.479v12.449 M178.23,126.928v-12.449 M93.872,81.852H48.796"/>
</g>
</svg>
