<?xml version="1.0" encoding="utf-8"?>
<!-- Generator: Adobe Illustrator 16.2.1, SVG Export Plug-In . SVG Version: 6.00 Build 0)  -->
<!DOCTYPE svg PUBLIC "-//W3C//DTD SVG 1.1//EN" "http://www.w3.org/Graphics/SVG/1.1/DTD/svg11.dtd">
<svg version="1.1" id="Layer_1" xmlns="http://www.w3.org/2000/svg" xmlns:xlink="http://www.w3.org/1999/xlink" x="0px" y="0px"
	 width="201.735px" height="172.399px" viewBox="0 0 201.735 172.399" enable-background="new 0 0 201.735 172.399"
	 xml:space="preserve">
<g>
	<rect x="85.019" fill="#FFFFFF" width="28.139" height="28.002"/>
	<polygon fill="#FFFFFF" points="70.97,21.521 99.088,38.073 127.209,21.521 	"/>
	<g>
		<path fill="#FFFFFF" d="M136.043,153.999v-13.943h1.408c1.998,0,4.314-0.091,6.131,0.772c2.452,1.09,3.633,3.633,3.633,6.177
			c0,2.043-0.771,4.087-2.406,5.404c-1.727,1.499-3.86,1.59-5.996,1.59H136.043z M139.585,156.042
			c5.677,0.091,9.81-2.997,9.81-8.947c0-2.905-0.998-5.631-3.45-7.356c-2.317-1.681-5.042-1.727-7.812-1.727h-4.27v34.244h2.18
			v-16.214h1.09l11.172,16.214h2.498L139.585,156.042z M126.747,140.056v-2.044h-16.351v34.244h16.351v-2.044h-14.17v-15.668h13.806
			V152.5h-13.806v-12.444H126.747z M91.536,157.632v14.624h2.18v-14.624l11.4-19.62h-2.407l-10.083,17.35l-10.082-17.35h-2.407
			L91.536,157.632z M72.439,138.012h-2.18v34.244h10.9v-2.044h-8.72V138.012z M63.316,140.056v-2.044H49.51v34.244h2.18v-17.712
			h11.308V152.5H51.69v-12.444H63.316z"/>
		<path fill="#FFFFFF" d="M151.076,172.399h-2.847l-0.043-0.062l-11.129-16.151h-0.871v16.214h-2.467v-34.531h4.413
			c2.567,0,5.478,0,7.896,1.754c2.9,2.041,3.51,5.19,3.51,7.473c0,5.599-3.708,9.08-9.678,9.093L151.076,172.399z M148.38,172.112
			h2.149l-11.222-16.219l0.279,0.005c0.081,0.001,0.161,0.002,0.24,0.002c5.813,0,9.424-3.374,9.424-8.806
			c0-2.215-0.588-5.268-3.39-7.239c-2.344-1.7-5.205-1.7-7.729-1.7h-4.126v33.957h1.893v-16.214h1.309l0.043,0.062L148.38,172.112z
			 M126.891,172.399h-16.638v-34.531h16.638v2.331h-14.17v12.157h13.806v2.331h-13.806v15.381h14.17V172.399z M110.54,172.112
			h16.063v-1.757h-14.17V154.4h13.806v-1.757h-13.806v-12.731h14.17v-1.757H110.54V172.112z M93.86,172.399h-2.467v-14.729
			l-11.505-19.803h2.739l10,17.208l10-17.208h2.739l-0.125,0.216l-11.38,19.587V172.399z M91.68,172.112h1.893v-14.52l0.02-0.033
			l11.275-19.404h-2.075l-10.166,17.491l-0.124-0.213l-10.041-17.278h-2.075l11.293,19.438V172.112z M81.303,172.399H70.116v-34.531
			h2.467v32.2h8.72V172.399z M70.403,172.112h10.613v-1.757h-8.72v-32.2h-1.893V172.112z M51.833,172.399h-2.467v-34.531h14.093
			v2.331H51.833v12.157h11.308v2.331H51.833V172.399z M49.654,172.112h1.893V154.4h11.308v-1.757H51.546v-12.731h11.626v-1.757
			H49.654V172.112z M138.812,154.143h-2.913v-14.23l2.618-0.003c1.754,0,3.594,0.062,5.126,0.789
			c2.29,1.018,3.715,3.436,3.715,6.307c0,2.246-0.896,4.256-2.46,5.516C143.174,154.019,141.035,154.143,138.812,154.143z
			 M136.187,153.855h2.626c2.249,0,4.246-0.117,5.902-1.555c1.499-1.208,2.356-3.138,2.356-5.296c0-2.757-1.359-5.073-3.548-6.046
			c-1.481-0.704-3.285-0.763-5.006-0.763l-2.331,0.003V153.855z"/>
		<path fill="#FFFFFF" d="M187.906,111.837v14.624h2.18v-14.624l11.4-19.62h-2.406l-10.084,17.349l-10.082-17.349h-2.406
			L187.906,111.837z M164,94.261h8.856v-2.044h-19.892v2.044h8.855v32.2H164V94.261z M135.588,108.204V94.261h1.408
			c1.998,0,4.314-0.091,6.131,0.772c2.453,1.09,3.634,3.633,3.634,6.177c0,2.043-0.772,4.087-2.407,5.404
			c-1.725,1.499-3.859,1.59-5.995,1.59H135.588z M139.131,110.247c5.677,0.091,9.81-2.997,9.81-8.946
			c0-2.907-0.999-5.632-3.45-7.358c-2.318-1.68-5.041-1.726-7.812-1.726h-4.27v34.244h2.18v-16.214h1.091l11.172,16.214h2.498
			L139.131,110.247z M126.293,94.261v-2.044h-16.351v34.244h16.351v-2.044h-14.17v-15.668h13.807v-2.044h-13.807V94.261H126.293z
			 M89.312,108.158V94.261h3.588c2.089,0,4.269,0.045,5.994,1.363c1.726,1.271,2.589,3.406,2.589,5.54
			c0,1.999-0.727,3.77-2.225,5.132c-1.772,1.59-3.77,1.862-5.995,1.862H89.312z M89.312,110.202h3.86c2.68,0,5.541-0.363,7.63-2.181
			c1.907-1.59,2.86-4.313,2.86-6.767c0-2.679-0.998-5.268-3.088-7.039c-2.135-1.817-4.723-1.999-7.403-1.999h-6.04v34.244h2.18
			V110.202z M61.895,93.807c8.492,0,15.577,7.085,15.577,15.532c0,8.402-7.085,15.532-15.577,15.532
			c-8.538,0-15.578-7.085-15.578-15.532S53.356,93.807,61.895,93.807 M61.895,91.763c-9.674,0-17.758,7.948-17.758,17.576
			s8.13,17.576,17.758,17.576s17.757-7.948,17.757-17.576S71.522,91.763,61.895,91.763 M25.136,108.204V94.261h1.408
			c1.998,0,4.314-0.091,6.131,0.772c2.452,1.09,3.633,3.633,3.633,6.177c0,2.043-0.772,4.087-2.407,5.404
			c-1.726,1.499-3.86,1.59-5.995,1.59H25.136z M28.678,110.247c5.677,0.091,9.81-2.997,9.81-8.946c0-2.907-0.999-5.632-3.452-7.358
			c-2.316-1.68-5.041-1.726-7.811-1.726h-4.269v34.244h2.18v-16.214h1.09l11.172,16.214h2.498L28.678,110.247z M2.324,108.158
			V94.261h3.588c2.089,0,4.269,0.045,5.995,1.363c1.726,1.271,2.588,3.406,2.588,5.54c0,1.999-0.726,3.77-2.225,5.132
			c-1.771,1.59-3.769,1.862-5.995,1.862H2.324z M2.324,110.202h3.86c2.68,0,5.541-0.363,7.63-2.181
			c1.908-1.59,2.861-4.313,2.861-6.767c0-2.679-0.999-5.268-3.088-7.039c-2.134-1.817-4.723-1.999-7.403-1.999h-6.04v34.244h2.18
			V110.202z"/>
		<path fill="#FFFFFF" d="M61.895,127.059c-9.704,0-17.901-8.114-17.901-17.72c0-4.689,1.88-9.129,5.294-12.501
			c3.407-3.365,7.885-5.219,12.607-5.219c9.703,0,17.9,8.114,17.9,17.72S71.598,127.059,61.895,127.059z M61.895,91.906
			c-4.646,0-9.052,1.824-12.406,5.136c-3.359,3.318-5.208,7.685-5.208,12.297c0,9.449,8.066,17.433,17.614,17.433
			c9.547,0,17.613-7.983,17.613-17.433S71.442,91.906,61.895,91.906z M190.229,126.604h-2.467v-14.729l-11.504-19.803h2.738
			l0.041,0.071l9.958,17.136l10.001-17.207h2.738l-0.125,0.216l-11.381,19.587V126.604z M188.05,126.317h1.893v-14.52l0.02-0.033
			l11.275-19.404h-2.074l-10.167,17.49l-0.124-0.213L178.831,92.36h-2.074l11.293,19.438V126.317z M164.144,126.604h-2.467v-32.2
			h-8.855v-2.331H173v2.331h-8.856V126.604z M161.964,126.317h1.893v-32.2h8.856V92.36h-19.604v1.757h8.855V126.317z
			 M150.622,126.604h-2.847l-0.043-0.062l-11.129-16.151h-0.872v16.214h-2.467V92.073h4.413c2.567,0,5.478,0,7.896,1.753
			c2.9,2.043,3.51,5.192,3.51,7.475c0,5.598-3.708,9.079-9.678,9.092L150.622,126.604z M147.926,126.317h2.149l-11.222-16.219
			l0.279,0.005c0.081,0.001,0.161,0.002,0.24,0.002c5.812,0,9.424-3.374,9.424-8.805c0-2.214-0.588-5.268-3.39-7.241
			c-2.346-1.699-5.206-1.699-7.729-1.699h-4.126v33.957h1.893v-16.214h1.31l0.043,0.062L147.926,126.317z M126.437,126.604h-16.638
			V92.073h16.638v2.331h-14.17v12.157h13.807v2.331h-13.807v15.381h14.17V126.604z M110.086,126.317h16.063v-1.757h-14.17v-15.955
			h13.807v-1.757h-13.807V94.117h14.17V92.36h-16.063V126.317z M89.455,126.604h-2.467V92.073h6.183
			c2.584,0,5.292,0.157,7.496,2.033c2.024,1.716,3.139,4.254,3.139,7.148c0,2.744-1.116,5.38-2.912,6.877
			c-2.281,1.984-5.5,2.214-7.722,2.214h-3.716V126.604z M87.275,126.317h1.893v-16.259h4.003c2.36,0,5.35-0.244,7.537-2.146
			c1.734-1.446,2.811-3.997,2.811-6.658c0-2.809-1.078-5.27-3.037-6.93c-2.13-1.813-4.779-1.965-7.31-1.965h-5.896V126.317z
			 M40.169,126.604h-2.847l-0.043-0.062L26.15,110.391h-0.871v16.214h-2.467V92.073h4.413c2.568,0,5.479,0,7.896,1.753
			c2.902,2.042,3.511,5.192,3.511,7.475c0,5.598-3.708,9.079-9.679,9.092L40.169,126.604z M37.473,126.317h2.149l-11.221-16.219
			l0.279,0.005c0.08,0.001,0.161,0.002,0.24,0.002c5.813,0,9.424-3.374,9.424-8.805c0-2.215-0.588-5.269-3.391-7.241
			c-2.343-1.699-5.204-1.699-7.729-1.699h-4.125v33.957h1.893v-16.214h1.309l0.043,0.062L37.473,126.317z M2.467,126.604H0V92.073
			h6.184c2.585,0,5.293,0.157,7.496,2.033c2.024,1.716,3.139,4.255,3.139,7.148c0,2.745-1.116,5.38-2.913,6.877
			c-2.281,1.984-5.499,2.214-7.722,2.214H2.467V126.604z M0.287,126.317H2.18v-16.259h4.003c2.36,0,5.35-0.244,7.536-2.146
			c1.735-1.445,2.812-3.996,2.812-6.658c0-2.808-1.079-5.269-3.038-6.93c-2.129-1.813-4.779-1.965-7.31-1.965H0.287V126.317z
			 M61.895,125.015c-8.522,0-15.722-7.179-15.722-15.676s7.2-15.676,15.722-15.676c8.521,0,15.721,7.179,15.721,15.676
			S70.416,125.015,61.895,125.015z M61.895,93.95c-8.366,0-15.435,7.047-15.435,15.389s7.068,15.389,15.435,15.389
			c8.366,0,15.434-7.047,15.434-15.389S70.26,93.95,61.895,93.95z M138.358,108.348h-2.914v-14.23l2.618-0.003
			c1.754,0,3.594,0.062,5.126,0.789c2.291,1.018,3.716,3.435,3.716,6.307c0,2.245-0.896,4.256-2.461,5.516
			C142.721,108.224,140.582,108.348,138.358,108.348z M135.731,108.061h2.627c2.25,0,4.247-0.117,5.901-1.555
			c1.5-1.209,2.357-3.138,2.357-5.296c0-2.757-1.359-5.073-3.549-6.046c-1.481-0.704-3.285-0.763-5.006-0.763l-2.331,0.003V108.061z
			 M27.906,108.348h-2.914v-14.23l2.618-0.003c1.753,0,3.594,0.062,5.126,0.789c2.29,1.019,3.715,3.436,3.715,6.307
			c0,2.246-0.897,4.256-2.461,5.516C32.267,108.224,30.128,108.348,27.906,108.348z M25.279,108.061h2.626
			c2.249,0,4.246-0.117,5.9-1.555c1.5-1.208,2.358-3.138,2.358-5.296c0-2.756-1.359-5.073-3.547-6.046
			c-1.482-0.704-3.286-0.763-5.007-0.763l-2.331,0.003V108.061z M93.263,108.302h-4.095V94.117h3.731c1.897,0,4.259,0,6.081,1.393
			c1.656,1.219,2.646,3.333,2.646,5.654c0,2.075-0.785,3.887-2.271,5.238C97.597,107.979,95.648,108.302,93.263,108.302z
			 M89.455,108.015h3.808c2.319,0,4.21-0.311,5.899-1.825c1.424-1.295,2.177-3.033,2.177-5.025c0-2.23-0.946-4.258-2.53-5.425
			c-1.748-1.335-4.055-1.335-5.909-1.335h-3.444V108.015z M6.274,108.302H2.18V94.117h3.731c1.897,0,4.259,0,6.082,1.393
			c1.655,1.219,2.645,3.333,2.645,5.654c0,2.076-0.786,3.887-2.272,5.238C10.61,107.979,8.661,108.302,6.274,108.302z
			 M2.467,108.015h3.807c2.32,0,4.211-0.311,5.899-1.825c1.424-1.295,2.177-3.032,2.177-5.025c0-2.23-0.945-4.259-2.529-5.425
			c-1.749-1.335-4.056-1.335-5.91-1.335H2.467V108.015z"/>
		<path fill="#FFFFFF" d="M148.243,58.369l-0.679,4.104c-0.746-0.407-1.289-0.577-2.205-0.577c-2.85,0-5.631,2.782-6.275,6.208
			c-0.576,3.427,0.68,6.241,3.528,6.241c1.052,0,2.375-0.712,3.223-1.696c0.068,0.95,0.542,1.562,1.492,1.562
			c0.61,0,1.562-0.509,2.239-1.188v-0.78c-0.271,0.237-0.984,0.747-1.357,0.747c-0.475,0-0.509-0.611-0.373-1.392l3.29-18.758
			l-4.069,0.848l-0.103,0.713C148.65,54.4,148.854,54.977,148.243,58.369 M146.242,69.834c-0.339,1.832-1.73,3.155-3.02,3.155
			c-1.934,0-2.442-2.171-1.934-4.886c0.475-2.714,1.9-5.122,3.9-5.122c1.086,0,1.73,0.476,2.104,0.849L146.242,69.834z
			 M132.719,72.648c0.067,0.95,0.543,1.562,1.491,1.562c0.611,0,1.562-0.509,2.239-1.188v-0.78
			c-0.271,0.237-0.984,0.747-1.357,0.747c-0.475,0-0.509-0.611-0.373-1.392l1.594-9.125h-1.864
			c-0.746-0.407-1.289-0.577-2.205-0.577c-2.849,0-5.631,2.782-6.274,6.208c-0.578,3.427,0.678,6.241,3.526,6.241
			C130.547,74.345,131.87,73.633,132.719,72.648 M133.125,69.834c-0.339,1.832-1.73,3.155-3.02,3.155
			c-1.934,0-2.441-2.171-1.934-4.886c0.475-2.714,1.9-5.122,3.901-5.122c1.086,0,1.729,0.476,2.103,0.849L133.125,69.834z
			 M120.941,68.104c-0.51,2.85-1.832,5.19-3.867,5.19c-2.036,0-2.545-2.341-2.036-5.19c0.509-2.849,1.866-5.155,3.901-5.155
			C120.941,62.948,121.449,65.255,120.941,68.104 M123.112,68.104c0.61-3.426-1.188-6.208-4.003-6.208
			c-2.85,0-5.631,2.782-6.276,6.208c-0.575,3.427,1.222,6.241,4.071,6.241C119.719,74.345,122.501,71.53,123.112,68.104
			 M108.655,58.369l-2.375,13.466c-0.203,1.357,0.271,2.375,1.459,2.375c0.61,0,1.56-0.509,2.237-1.188v-0.78
			c-0.271,0.237-0.982,0.747-1.355,0.747c-0.475,0-0.509-0.611-0.374-1.392l3.257-18.758l-4.037,0.848l-0.101,0.713
			C109.062,54.4,109.266,54.977,108.655,58.369 M94.605,73.769l0.916-5.054c0.61-3.528,2.544-5.224,3.663-5.224
			c1.628,0,1.832,1.424,1.425,3.629l-0.814,4.715c-0.204,1.357,0.271,2.375,1.458,2.375c0.611,0,1.562-0.509,2.239-1.188v-0.78
			c-0.271,0.237-0.982,0.747-1.357,0.747c-0.475,0-0.508-0.611-0.373-1.392l0.78-4.646c0.509-2.884-0.101-5.056-2.407-5.056
			c-1.459,0-2.917,1.12-3.936,2.782l0.068-0.305c0.238-1.357-0.271-2.341-1.459-2.341c-0.644,0-1.56,0.475-2.204,1.152V64
			c0.237-0.272,0.949-0.781,1.356-0.781c0.441,0,0.509,0.611,0.374,1.425l-1.629,9.125H94.605z M82.909,70.919
			c0.984-1.492,1.696-3.324,2.035-5.054c0.441-2.544-0.135-3.97-1.017-3.97c-0.916,0-2.205,1.596-2.714,4.309
			c-0.407,2.375-0.271,4.173,0.204,5.496c-0.713,0.848-1.595,1.39-2.409,1.39c-1.017,0-1.865-1.017-1.492-3.256
			c0.576-3.222,1.798-6.038,2.137-7.938h-0.611c-0.916,0.611-1.153,0.137-2.34,0.137c-0.611,0-1.561,0.475-2.205,1.152V64
			c0.271-0.272,0.95-0.781,1.357-0.781c0.949,0,1.56,0.407,2.171,0.679c-0.204,1.289-2.07,4.003-2.443,6.207
			c-0.475,2.681,0.645,4.24,2.816,4.24c1.119,0,2.306-0.746,3.358-1.898c0.746,1.289,1.899,1.898,3.154,1.898
			c1.9,0,4.037-2.34,4.715-6.241c0.781-4.478-0.271-6.24-1.051-6.24c-0.373,0-0.746,0.135-0.848,0.644
			c-0.238,1.357,1.628,1.323,0.882,5.597c-0.611,3.393-2.103,4.986-3.392,4.986C84.232,73.09,83.384,72.344,82.909,70.919
			 M82.706,69.766c-0.136-1.085-0.136-2.441,0.169-4.069c0.272-1.562,0.713-2.409,0.984-2.409c0.305,0,0.475,0.813,0.17,2.578
			C83.791,67.222,83.316,68.579,82.706,69.766 M69.999,68.104c-0.509,2.85-1.832,5.19-3.867,5.19c-2.035,0-2.544-2.341-2.035-5.19
			c0.508-2.849,1.865-5.155,3.901-5.155C69.999,62.948,70.508,65.255,69.999,68.104 M72.17,68.104
			c0.61-3.426-1.187-6.208-4.003-6.208c-2.849,0-5.631,2.782-6.275,6.208c-0.577,3.427,1.221,6.241,4.07,6.241
			C68.778,74.345,71.559,71.53,72.17,68.104 M57.94,58.369l-0.678,4.104c-0.746-0.407-1.289-0.577-2.205-0.577
			c-2.849,0-5.631,2.782-6.275,6.208c-0.577,3.427,0.678,6.241,3.527,6.241c1.052,0,2.375-0.712,3.223-1.696
			c0.068,0.95,0.543,1.562,1.492,1.562c0.611,0,1.561-0.509,2.239-1.188v-0.78c-0.271,0.237-0.983,0.747-1.357,0.747
			c-0.474,0-0.508-0.611-0.373-1.392l3.291-18.758l-4.071,0.848L56.651,54.4C58.347,54.4,58.551,54.977,57.94,58.369 M55.939,69.834
			c-0.339,1.832-1.73,3.155-3.019,3.155c-1.933,0-2.442-2.171-1.933-4.886c0.474-2.714,1.899-5.122,3.9-5.122
			c1.086,0,1.73,0.476,2.104,0.849L55.939,69.834z"/>
		<path fill="#FFFFFF" d="M142.612,74.488c-1.101,0-2.034-0.415-2.699-1.201c-0.979-1.157-1.332-3.056-0.971-5.207
			c0.656-3.491,3.535-6.328,6.417-6.328c0.911,0,1.467,0.175,2.096,0.5l0.646-3.906c0.342-1.901,0.455-3.016,0.076-3.47
			c-0.197-0.236-0.552-0.332-1.224-0.332h-0.166l0.141-0.977l4.375-0.911l-0.036,0.208l-3.29,18.757
			c-0.131,0.748-0.048,1.036,0.045,1.146c0.044,0.053,0.104,0.077,0.187,0.077c0.289,0,0.931-0.421,1.263-0.712l0.238-0.208v1.156
			l-0.042,0.042c-0.712,0.712-1.696,1.229-2.341,1.229c-0.878,0-1.436-0.486-1.597-1.38
			C144.849,73.877,143.605,74.488,142.612,74.488z M145.359,62.039c-2.751,0-5.503,2.732-6.135,6.091
			c-0.347,2.066-0.017,3.879,0.908,4.972c0.617,0.729,1.451,1.1,2.479,1.1c0.999,0,2.279-0.677,3.114-1.646l0.227-0.264l0.025,0.347
			c0.047,0.652,0.318,1.429,1.349,1.429c0.555,0,1.446-0.472,2.096-1.104v-0.424c-0.326,0.244-0.866,0.594-1.214,0.594
			c-0.167,0-0.308-0.062-0.406-0.18c-0.197-0.234-0.231-0.673-0.108-1.38l3.254-18.55l-3.764,0.784l-0.065,0.451
			c0.504,0.012,0.99,0.088,1.278,0.433c0.454,0.543,0.353,1.673-0.013,3.703l-0.712,4.301l-0.177-0.097
			C146.72,62.175,146.2,62.039,145.359,62.039z M129.495,74.488c-1.102,0-2.034-0.416-2.699-1.202
			c-0.979-1.157-1.332-3.055-0.969-5.206c0.655-3.491,3.534-6.328,6.416-6.328c0.98,0,1.55,0.203,2.241,0.577h1.999l-1.623,9.293
			c-0.131,0.748-0.048,1.036,0.045,1.146c0.044,0.053,0.104,0.077,0.187,0.077c0.289,0,0.931-0.421,1.263-0.712l0.238-0.208v1.156
			l-0.042,0.042c-0.712,0.712-1.696,1.229-2.341,1.229c-0.878,0-1.436-0.486-1.596-1.38
			C131.731,73.877,130.488,74.488,129.495,74.488z M132.243,62.039c-2.751,0-5.503,2.732-6.134,6.091
			c-0.348,2.065-0.019,3.878,0.905,4.972c0.617,0.729,1.452,1.1,2.48,1.1c0.998,0,2.279-0.677,3.115-1.646l0.227-0.264l0.025,0.348
			c0.046,0.651,0.317,1.428,1.348,1.428c0.555,0,1.446-0.472,2.096-1.104v-0.424c-0.326,0.244-0.866,0.594-1.214,0.594
			c-0.167,0-0.308-0.062-0.406-0.18c-0.197-0.234-0.231-0.673-0.108-1.38l1.564-8.957l-1.762-0.018
			C133.604,62.175,133.084,62.039,132.243,62.039z M116.904,74.488c-1.213,0-2.312-0.51-3.094-1.434
			c-1.036-1.225-1.444-3.038-1.119-4.975c0.658-3.491,3.536-6.328,6.418-6.328c1.208,0,2.3,0.509,3.075,1.435
			c1.021,1.22,1.411,3.021,1.069,4.942C122.628,71.636,119.779,74.488,116.904,74.488z M119.109,62.039
			c-2.75,0-5.503,2.732-6.136,6.091c-0.311,1.851,0.074,3.579,1.056,4.739c0.737,0.871,1.731,1.332,2.875,1.332
			c2.743,0,5.465-2.747,6.066-6.123c0.327-1.837-0.039-3.553-1.007-4.708C121.234,62.5,120.247,62.039,119.109,62.039z
			 M84.91,74.488c-1.318,0-2.44-0.64-3.179-1.806c-1.107,1.166-2.286,1.806-3.333,1.806c-1.013,0-1.83-0.335-2.361-0.969
			c-0.651-0.777-0.857-1.967-0.596-3.44c0.213-1.259,0.895-2.659,1.497-3.896c0.432-0.887,0.809-1.662,0.925-2.202
			c-0.084-0.039-0.169-0.081-0.255-0.123c-0.502-0.244-1.021-0.497-1.754-0.497c-0.346,0-0.991,0.474-1.255,0.739l-0.245,0.247
			v-1.22l0.04-0.042c0.648-0.683,1.641-1.197,2.309-1.197c0.431,0,0.745,0.062,0.998,0.111c0.471,0.093,0.777,0.101,1.263-0.223
			l0.036-0.024h0.826l-0.03,0.169c-0.149,0.835-0.46,1.826-0.821,2.973c-0.465,1.478-0.992,3.153-1.316,4.966
			c-0.195,1.173-0.057,2.111,0.391,2.64c0.249,0.293,0.581,0.447,0.96,0.447c0.727,0,1.542-0.464,2.246-1.276
			c-0.498-1.445-0.56-3.292-0.183-5.49c0.521-2.772,1.861-4.428,2.856-4.428c0.29,0,0.555,0.132,0.765,0.382
			c0.55,0.654,0.694,2.023,0.394,3.756c-0.354,1.803-1.069,3.592-2.019,5.05c0.444,1.276,1.224,2.007,2.149,2.007
			c1.182,0,2.645-1.505,3.25-4.868c0.468-2.679-0.104-3.618-0.521-4.304c-0.245-0.402-0.456-0.749-0.361-1.292
			c0.1-0.5,0.442-0.762,0.989-0.762c0.173,0,0.437,0.068,0.709,0.392c0.795,0.945,0.976,3.195,0.483,6.016
			C89.041,72.304,86.774,74.488,84.91,74.488z M81.782,72.205l0.098,0.169c0.682,1.179,1.758,1.827,3.03,1.827
			c2.28,0,4.058-3.154,4.573-6.122c0.708-4.06-0.143-5.453-0.42-5.783c-0.157-0.187-0.331-0.29-0.489-0.29
			c-0.41,0-0.635,0.168-0.708,0.528c-0.076,0.433,0.092,0.708,0.324,1.09c0.441,0.725,1.045,1.717,0.559,4.503
			c-0.679,3.769-2.328,5.105-3.533,5.105c-1.072,0-1.962-0.827-2.443-2.27l-0.022-0.065l0.039-0.059
			c0.934-1.417,1.668-3.24,2.014-5.002c0.281-1.622,0.157-2.938-0.331-3.519c-0.156-0.186-0.34-0.28-0.545-0.28
			c-0.859,0-2.087,1.603-2.573,4.191c-0.375,2.187-0.308,4.012,0.198,5.421l0.028,0.078l-0.053,0.063
			c-0.77,0.915-1.688,1.44-2.519,1.44c-0.467,0-0.875-0.189-1.179-0.549c-0.356-0.42-0.724-1.26-0.455-2.874
			c0.328-1.832,0.857-3.517,1.325-5.003c0.333-1.061,0.625-1.986,0.781-2.769h-0.395c-0.537,0.35-0.924,0.343-1.44,0.242
			c-0.252-0.049-0.539-0.105-0.942-0.105c-0.575,0-1.47,0.465-2.062,1.067v0.438c0.334-0.271,0.846-0.605,1.213-0.605
			c0.8,0,1.374,0.279,1.88,0.526c0.118,0.058,0.233,0.114,0.349,0.165l0.101,0.045l-0.017,0.109c-0.092,0.585-0.5,1.421-0.971,2.389
			c-0.593,1.219-1.266,2.6-1.472,3.82c-0.246,1.388-0.062,2.496,0.533,3.206c0.476,0.566,1.216,0.866,2.142,0.866
			c1.007,0,2.162-0.657,3.252-1.852L81.782,72.205z M65.962,74.488c-1.213,0-2.312-0.51-3.095-1.435
			c-1.036-1.226-1.443-3.038-1.117-4.974c0.656-3.491,3.534-6.328,6.417-6.328c1.208,0,2.3,0.509,3.075,1.435
			c1.021,1.22,1.411,3.021,1.069,4.942C71.686,71.636,68.838,74.488,65.962,74.488z M68.167,62.039
			c-2.751,0-5.502,2.732-6.134,6.091c-0.312,1.85,0.072,3.578,1.053,4.738c0.738,0.872,1.732,1.333,2.875,1.333
			c2.743,0,5.465-2.747,6.067-6.123c0.327-1.837-0.04-3.553-1.007-4.708C70.292,62.5,69.305,62.039,68.167,62.039z M52.309,74.488
			c-1.101,0-2.034-0.415-2.699-1.201c-0.979-1.157-1.332-3.056-0.97-5.207c0.656-3.491,3.534-6.328,6.417-6.328
			c0.911,0,1.467,0.175,2.096,0.5l0.645-3.906c0.342-1.9,0.456-3.016,0.076-3.47c-0.197-0.236-0.552-0.332-1.224-0.332h-0.166
			l0.14-0.977l4.377-0.911l-3.328,18.966c-0.129,0.749-0.046,1.037,0.046,1.146c0.044,0.053,0.104,0.077,0.186,0.077
			c0.29,0,0.93-0.421,1.262-0.712l0.238-0.208v1.156l-0.042,0.042c-0.712,0.712-1.696,1.229-2.341,1.229
			c-0.878,0-1.436-0.486-1.596-1.38C54.546,73.877,53.302,74.488,52.309,74.488z M55.057,62.039c-2.751,0-5.502,2.732-6.134,6.091
			c-0.348,2.066-0.018,3.879,0.906,4.972c0.617,0.729,1.451,1.1,2.479,1.1c0.999,0,2.279-0.677,3.114-1.646l0.227-0.264l0.025,0.348
			c0.046,0.651,0.318,1.428,1.349,1.428c0.554,0,1.446-0.472,2.096-1.104V72.54c-0.326,0.243-0.865,0.593-1.213,0.593
			c-0.167,0-0.307-0.062-0.406-0.18c-0.197-0.233-0.231-0.672-0.109-1.38l3.255-18.55l-3.766,0.784l-0.065,0.451
			c0.504,0.012,0.991,0.088,1.279,0.433c0.455,0.544,0.352,1.673-0.014,3.703l-0.71,4.301l-0.178-0.097
			C56.417,62.175,55.898,62.039,55.057,62.039z M107.739,74.354c-0.502,0-0.919-0.175-1.204-0.507
			c-0.386-0.446-0.526-1.169-0.396-2.033l2.375-13.469c0.342-1.899,0.455-3.015,0.076-3.468c-0.197-0.236-0.552-0.332-1.224-0.332
			h-0.165l0.138-0.976l4.343-0.912l-3.293,18.966c-0.13,0.749-0.047,1.037,0.046,1.146c0.044,0.053,0.104,0.077,0.187,0.077
			c0.29,0,0.93-0.421,1.261-0.711l0.238-0.209v1.156l-0.042,0.042C109.366,73.836,108.383,74.354,107.739,74.354z M107.531,54.259
			c0.504,0.012,0.99,0.088,1.278,0.433c0.454,0.543,0.353,1.673-0.013,3.703l-2.375,13.466c-0.116,0.776,0.001,1.417,0.33,1.799
			c0.233,0.271,0.565,0.407,0.987,0.407c0.554,0,1.445-0.472,2.094-1.104V72.54c-0.325,0.243-0.863,0.593-1.212,0.593
			c-0.167,0-0.308-0.062-0.406-0.18c-0.196-0.233-0.231-0.672-0.109-1.38l3.221-18.549l-3.731,0.783L107.531,54.259z
			 M101.253,74.354c-0.502,0-0.918-0.176-1.203-0.507c-0.386-0.447-0.526-1.169-0.397-2.033l0.815-4.718
			c0.289-1.57,0.229-2.535-0.19-3.039c-0.236-0.284-0.594-0.422-1.093-0.422c-1.106,0-2.946,1.774-3.521,5.104l-0.938,5.173h-2.191
			l1.659-9.294c0.098-0.587,0.074-1.019-0.064-1.183c-0.042-0.05-0.096-0.073-0.168-0.073c-0.353,0-1.029,0.481-1.248,0.732
			l-0.252,0.289v-1.256l0.04-0.042c0.67-0.705,1.619-1.197,2.308-1.197c0.523,0,0.954,0.183,1.244,0.528
			c0.32,0.38,0.459,0.947,0.404,1.619c1.05-1.441,2.392-2.284,3.679-2.284c0.846,0,1.509,0.28,1.972,0.832
			c0.73,0.871,0.931,2.39,0.577,4.392l-0.78,4.645c-0.13,0.75-0.047,1.038,0.045,1.147c0.045,0.053,0.104,0.077,0.187,0.077
			c0.289,0,0.931-0.421,1.263-0.712l0.238-0.208v1.156l-0.042,0.042C102.882,73.836,101.897,74.354,101.253,74.354z M99.184,63.348
			c0.581,0,1.023,0.177,1.314,0.526c0.478,0.574,0.558,1.614,0.253,3.272l-0.814,4.713c-0.117,0.776,0,1.417,0.33,1.8
			c0.232,0.271,0.564,0.407,0.986,0.407c0.555,0,1.446-0.472,2.096-1.104v-0.422c-0.333,0.25-0.865,0.592-1.214,0.592
			c-0.167,0-0.307-0.062-0.405-0.179c-0.197-0.234-0.231-0.673-0.109-1.381l0.78-4.646c0.339-1.917,0.161-3.355-0.514-4.159
			c-0.406-0.484-0.995-0.729-1.752-0.729c-1.347,0-2.772,1.015-3.813,2.713l-0.263-0.106l0.068-0.305
			c0.129-0.739,0.025-1.359-0.295-1.74c-0.237-0.283-0.582-0.426-1.024-0.426c-0.594,0-1.453,0.446-2.061,1.067v0.426
			c0.34-0.279,0.861-0.594,1.212-0.594c0.156,0,0.29,0.061,0.387,0.175c0.202,0.238,0.245,0.715,0.128,1.417l-1.599,8.958h1.609
			l0.895-4.936C96.01,65.046,98.022,63.348,99.184,63.348z M117.074,73.438c-0.675,0-1.221-0.242-1.62-0.72
			c-0.736-0.88-0.935-2.527-0.558-4.64c0.581-3.252,2.13-5.273,4.043-5.273c0.664,0,1.2,0.239,1.594,0.709
			c0.729,0.871,0.925,2.51,0.55,4.615C120.488,71.453,118.989,73.438,117.074,73.438z M118.939,63.092
			c-2.109,0-3.325,2.602-3.76,5.037c-0.357,1.997-0.177,3.603,0.494,4.404c0.343,0.409,0.814,0.617,1.4,0.617
			c1.765,0,3.158-1.896,3.726-5.072c0.36-2.02,0.188-3.576-0.486-4.38C119.977,63.296,119.515,63.092,118.939,63.092z
			 M66.132,73.438c-0.675,0-1.22-0.242-1.62-0.72c-0.736-0.88-0.934-2.527-0.557-4.64c0.58-3.252,2.128-5.273,4.042-5.273
			c0.664,0,1.2,0.239,1.594,0.709c0.729,0.872,0.924,2.51,0.548,4.615C69.547,71.453,68.048,73.438,66.132,73.438z M67.998,63.092
			c-2.11,0-3.326,2.602-3.76,5.037c-0.357,1.997-0.177,3.603,0.495,4.404c0.343,0.409,0.813,0.617,1.399,0.617
			c1.766,0,3.158-1.896,3.726-5.072c0.355-1.99,0.179-3.586-0.486-4.38C69.035,63.296,68.573,63.092,67.998,63.092z M143.223,73.133
			c-0.657,0-1.186-0.235-1.571-0.699c-0.694-0.837-0.873-2.384-0.503-4.356c0.455-2.607,1.882-5.239,4.041-5.239
			c0.872,0,1.614,0.3,2.205,0.891l0.053,0.053l-1.063,6.077C146.044,71.695,144.655,73.133,143.223,73.133z M145.189,63.125
			c-1.992,0-3.323,2.513-3.759,5.003c-0.349,1.862-0.188,3.363,0.441,4.122c0.328,0.396,0.782,0.596,1.351,0.596
			c1.277,0,2.568-1.362,2.879-3.038l1.037-5.928C146.606,63.372,145.968,63.125,145.189,63.125z M130.105,73.133
			c-0.657,0-1.186-0.235-1.57-0.699c-0.694-0.836-0.873-2.383-0.504-4.356c0.455-2.607,1.883-5.239,4.042-5.239
			c0.871,0,1.613,0.3,2.204,0.891l0.053,0.053l-1.063,6.077C132.927,71.695,131.538,73.133,130.105,73.133z M132.073,63.125
			c-1.993,0-3.324,2.513-3.76,5.003c-0.349,1.862-0.188,3.364,0.442,4.123c0.328,0.395,0.782,0.595,1.35,0.595
			c1.277,0,2.568-1.362,2.879-3.038l1.037-5.928C133.489,63.372,132.851,63.125,132.073,63.125z M52.92,73.133
			c-0.657,0-1.186-0.235-1.57-0.699c-0.695-0.837-0.874-2.384-0.503-4.356c0.455-2.607,1.881-5.239,4.041-5.239
			c0.883,0,1.604,0.292,2.206,0.891l0.053,0.053l-0.013,0.074l-1.052,6.003C55.741,71.695,54.353,73.133,52.92,73.133z
			 M54.887,63.125c-1.993,0-3.324,2.513-3.759,5.003c-0.349,1.861-0.188,3.363,0.442,4.122c0.328,0.396,0.782,0.596,1.35,0.596
			c1.277,0,2.568-1.362,2.878-3.038l1.039-5.928C56.303,63.372,55.665,63.125,54.887,63.125z M82.622,70.244l-0.058-0.461
			c-0.159-1.273-0.102-2.658,0.17-4.113c0.219-1.257,0.652-2.526,1.125-2.526c0.068,0,0.168,0.022,0.257,0.128
			c0.271,0.322,0.291,1.251,0.055,2.618c-0.234,1.332-0.696,2.695-1.337,3.941L82.622,70.244z M83.859,63.431
			c-0.117,0.016-0.55,0.608-0.843,2.29c-0.232,1.241-0.306,2.426-0.218,3.532c0.514-1.096,0.888-2.266,1.09-3.413
			c0.253-1.466,0.163-2.2,0.009-2.383C83.887,63.445,83.872,63.431,83.859,63.431z"/>
	</g>
</g>
</svg>
