<?xml version="1.0" encoding="utf-8"?>
<!-- Generator: Adobe Illustrator 16.0.0, SVG Export Plug-In . SVG Version: 6.00 Build 0)  -->
<!DOCTYPE svg PUBLIC "-//W3C//DTD SVG 1.1//EN" "http://www.w3.org/Graphics/SVG/1.1/DTD/svg11.dtd">
<svg version="1.1" id="Layer_1" xmlns="http://www.w3.org/2000/svg" xmlns:xlink="http://www.w3.org/1999/xlink" x="0px" y="0px"
	 width="21.031px" height="18.719px" viewBox="0 0 21.031 18.719" enable-background="new 0 0 21.031 18.719" xml:space="preserve">
<g>
	<path fill="#453124" d="M20.103,17.597l-1.944-3.285H2.616L0,18.729h20.772L20.103,17.597z M3.472,15.812h13.831l0.839,1.417H2.632
		L3.472,15.812z"/>
	<path fill="#453124" d="M3.476,13.125h14.759l-0.768-3.449c-0.048-3.199-2.215-5.879-5.162-6.707V1.917
		C12.304,0.857,11.445,0.001,10.387,0c-1.06,0-1.916,0.859-1.916,1.917v1.052C5.524,3.796,3.356,6.475,3.308,9.675l-0.768,3.45
		H3.476z M9.971,1.917c0-0.231,0.187-0.417,0.416-0.417c0.23,0,0.418,0.188,0.418,0.417v0.804c-0.139-0.009-0.277-0.021-0.418-0.021
		s-0.277,0.013-0.416,0.021V1.917z M4.802,9.784c0-1.545,0.624-2.937,1.636-3.949c1.014-1.012,2.405-1.636,3.949-1.636
		c1.545,0,2.938,0.624,3.95,1.636c1.012,1.013,1.636,2.404,1.636,3.949v0.082l0.391,1.759H4.411l0.391-1.759V9.784z"/>
</g>
</svg>
