<?xml version="1.0" encoding="utf-8"?>
<!-- Generator: Adobe Illustrator 16.0.0, SVG Export Plug-In . SVG Version: 6.00 Build 0)  -->
<!DOCTYPE svg PUBLIC "-//W3C//DTD SVG 1.1//EN" "http://www.w3.org/Graphics/SVG/1.1/DTD/svg11.dtd">
<svg version="1.1" id="Layer_1" xmlns="http://www.w3.org/2000/svg" xmlns:xlink="http://www.w3.org/1999/xlink" x="0px" y="0px"
	 width="27.465px" height="26.397px" viewBox="0 0 27.465 26.397" enable-background="new 0 0 27.465 26.397" xml:space="preserve">
<path fill="#C4986D" d="M13.161,0.075C5.893,0.075,0,5.968,0,13.236s5.893,13.161,13.161,13.161s13.161-5.893,13.161-13.161
	S20.43,0.075,13.161,0.075z M17.168,7.397H15.33c-0.402,0-1.162,0.723-1.162,1.039v1.961h3.195c-0.119,2-0.354,3-0.354,3h-2.842v9
	h-3v-9h-2v-3h2V8.032c0-0.465-0.482-3.635,3.43-3.635h2.57V7.397z"/>
<path display="none" fill="#D0D2D3" d="M42.039,0.044c-7.27,0-13.162,5.893-13.162,13.161s5.893,13.161,13.162,13.161
	c7.268,0,13.16-5.893,13.16-13.161S49.307,0.044,42.039,0.044z M49.402,12.932c-1.574,6.531-12.17,9.307-17.041,2.518
	c1.863,1.826,5.119,1.984,7.182-0.195c-1.213,0.184-2.094-1.029-0.605-1.684c-1.342,0.148-2.076-0.574-2.381-1.191
	c0.311-0.338,0.658-0.492,1.322-0.537c-1.459-0.354-2.002-1.082-2.166-1.969c0.406-0.096,0.914-0.184,1.188-0.145
	c-1.277-0.686-1.725-1.711-1.65-2.488c2.287,0.867,3.744,1.564,4.963,2.232c0.436,0.238,0.924,0.666,1.469,1.205
	c0.693-1.881,1.555-3.816,3.029-4.777c-0.023,0.219-0.139,0.42-0.293,0.588c0.42-0.393,0.961-0.658,1.516-0.732
	c-0.066,0.426-0.66,0.662-1.02,0.799c0.27-0.088,1.719-0.744,1.877-0.371c0.188,0.424-1,0.627-1.199,0.701
	c-0.152,0.049-0.303,0.107-0.453,0.17c1.84-0.189,3.596,1.361,4.105,3.281c0.033,0.139,0.076,0.289,0.107,0.453
	c0.668,0.258,1.889-0.012,2.279-0.262c-0.285,0.688-1.023,1.195-2.113,1.287c0.525,0.217,1.514,0.34,2.197,0.223
	C51.279,12.512,50.586,12.939,49.402,12.932z"/>
</svg>
