<?xml version="1.0" encoding="utf-8"?>
<!-- Generator: Adobe Illustrator 16.0.0, SVG Export Plug-In . SVG Version: 6.00 Build 0)  -->
<!DOCTYPE svg PUBLIC "-//W3C//DTD SVG 1.1//EN" "http://www.w3.org/Graphics/SVG/1.1/DTD/svg11.dtd">
<svg version="1.1" id="Layer_1" xmlns="http://www.w3.org/2000/svg" xmlns:xlink="http://www.w3.org/1999/xlink" x="0px" y="0px"
	 width="6.658px" height="8.911px" viewBox="0 0 6.658 8.911" enable-background="new 0 0 6.658 8.911" xml:space="preserve">
<g>
	<path fill="#75655B" d="M5.108,3.172c0,0.989-0.801,1.791-1.789,1.791S1.528,4.161,1.528,3.172c0-0.988,0.803-1.79,1.791-1.79
		S5.108,2.184,5.108,3.172 M6.638,3.318C6.638,1.485,5.151,0,3.319,0C1.485,0,0,1.485,0,3.318C0,5.707,3.319,7.754,3.319,8.87
		C3.319,7.754,6.638,5.707,6.638,3.318"/>
	<path fill="#FFFFFF" d="M3.319,4.722c0.896,0,1.624-0.728,1.624-1.624c0-0.897-0.728-1.624-1.624-1.624S1.695,2.2,1.695,3.098
		C1.695,3.994,2.423,4.722,3.319,4.722"/>
</g>
</svg>
