<?xml version="1.0" encoding="utf-8"?>
<!-- Generator: Adobe Illustrator 16.0.0, SVG Export Plug-In . SVG Version: 6.00 Build 0)  -->
<!DOCTYPE svg PUBLIC "-//W3C//DTD SVG 1.1//EN" "http://www.w3.org/Graphics/SVG/1.1/DTD/svg11.dtd">
<svg version="1.1" id="Layer_1" xmlns="http://www.w3.org/2000/svg" xmlns:xlink="http://www.w3.org/1999/xlink" x="0px" y="0px"
	 width="30.467px" height="16.727px" viewBox="0 0 30.467 16.727" enable-background="new 0 0 30.467 16.727" xml:space="preserve">
<path fill="#453124" d="M30.566,4.554l-1.58-1.003V3.55l-5.338-3.388l-3.446,2.186l-3.443-2.186l-3.852,2.445L9.055,0.162
	L2.212,4.504v0.003L0,5.911l0.805,1.266l1.407-0.894v10.334h3.967h5.752h3.966v-0.75v-1.165h3.463h3.453v-1.743h3.186h2.988V5.327
	l0.775,0.492L30.566,4.554z M7.679,15.117v-3.913h2.752v3.913H7.679z M11.181,9.704H6.179v5.413H3.712V5.331l5.343-3.392
	l5.342,3.392v9.786h-2.466V9.704H11.181z M15.896,13.202V9.989h1.963v3.213H15.896z M19.359,13.202V8.489h-3.463V6.284l1.406,0.893
	l0.805-1.266l-2.211-1.404V4.504l-1.59-1.009l2.452-1.556l4.554,2.891v2.552h-0.016v5.577h0.016v0.243H19.359z M22.812,11.459V8.882
	h1.686v2.577H22.812z M27.486,11.459h-1.488V7.382h-0.75h-2.436V5.781l1.078,0.685L24.695,5.2l-3.092-1.963l2.045-1.298l3.838,2.436
	V11.459z"/>
</svg>
