<?xml version="1.0" encoding="utf-8"?>
<!-- Generator: Adobe Illustrator 16.0.0, SVG Export Plug-In . SVG Version: 6.00 Build 0)  -->
<!DOCTYPE svg PUBLIC "-//W3C//DTD SVG 1.1//EN" "http://www.w3.org/Graphics/SVG/1.1/DTD/svg11.dtd">
<svg version="1.1" id="Layer_1" xmlns="http://www.w3.org/2000/svg" xmlns:xlink="http://www.w3.org/1999/xlink" x="0px" y="0px"
	 width="18.719px" height="18.188px" viewBox="0 0 18.719 18.188" enable-background="new 0 0 18.719 18.188" xml:space="preserve">
<g>
	<path fill="#453124" d="M11.789,8.815h1.523c0-1.904-1.543-3.447-3.446-3.447v1.524C10.928,6.895,11.787,7.753,11.789,8.815z"/>
	<path fill="#453124" d="M14.474,8.815h1.524c-0.002-3.387-2.746-6.132-6.132-6.133v1.524c1.273,0,2.42,0.515,3.257,1.35
		C13.959,6.394,14.474,7.542,14.474,8.815z"/>
	<path fill="#453124" d="M9.866,0v1.524c2.016,0,3.833,0.814,5.154,2.136c1.321,1.322,2.137,3.141,2.137,5.155h1.523
		C18.68,3.946,14.734,0.001,9.866,0z"/>
	<path fill="#453124" d="M14.146,11.556c-0.318-0.212-0.647-0.395-0.979-0.531c-0.334-0.135-0.668-0.232-1.037-0.234
		c-0.481,0-0.892,0.184-1.207,0.395c-0.473,0.32-0.811,0.71-1.104,0.975c-0.143,0.133-0.271,0.232-0.361,0.283
		C9.364,12.496,9.323,12.5,9.303,12.5H9.294c-0.034,0-0.163-0.026-0.331-0.107C8.349,12.114,7.34,11.24,6.575,10.29
		C6.188,9.815,5.852,9.32,5.623,8.883c-0.231-0.435-0.336-0.82-0.329-0.988l0.004-0.059C5.3,7.819,5.382,7.693,5.558,7.542
		c0.261-0.234,0.678-0.516,1.07-0.894c0.196-0.19,0.39-0.412,0.544-0.689C7.325,5.686,7.433,5.346,7.431,4.98l-0.01-0.202
		C7.37,4.301,7.194,3.852,6.969,3.397C6.625,2.723,6.151,2.056,5.672,1.524C5.43,1.259,5.188,1.027,4.939,0.842
		c-0.127-0.094-0.255-0.175-0.4-0.243c-0.146-0.066-0.314-0.128-0.541-0.13c-0.263,0.006-0.428,0.07-0.61,0.143
		C2.78,0.876,2.041,1.412,1.355,2.153c-0.668,0.74-1.284,1.683-1.334,2.812C0.012,5.25,0,5.551,0,5.868
		c-0.001,0.902,0.093,1.945,0.532,3.157c0.438,1.212,1.208,2.587,2.524,4.234c1.572,1.965,3.218,3.167,4.627,3.881
		c1.414,0.714,2.571,0.943,3.242,0.984c0.094,0.005,0.188,0.008,0.282,0.008c1.328-0.004,2.544-0.526,3.463-1.202
		c0.46-0.34,0.847-0.722,1.137-1.132c0.286-0.412,0.497-0.853,0.504-1.373c-0.012-0.537-0.242-0.939-0.516-1.33
		C15.375,12.52,14.782,11.983,14.146,11.556z M14.564,14.919c-0.262,0.373-0.76,0.819-1.364,1.146
		c-0.605,0.331-1.311,0.545-1.992,0.544l-0.193-0.006c-0.428-0.022-1.423-0.201-2.642-0.822c-1.222-0.619-2.688-1.677-4.126-3.472
		c-1.24-1.553-1.913-2.782-2.28-3.802C1.6,7.486,1.526,6.671,1.524,5.868c0-0.283,0.01-0.563,0.02-0.849
		c0.01-0.314,0.129-0.675,0.342-1.04c0.315-0.549,0.835-1.09,1.312-1.466c0.238-0.188,0.467-0.336,0.638-0.428l0.133-0.062
		C4.055,2.081,4.195,2.188,4.34,2.337c0.337,0.33,0.734,0.834,1.037,1.337c0.31,0.495,0.512,1.017,0.527,1.255L5.906,4.98
		c-0.002,0.113-0.032,0.208-0.153,0.37C5.574,5.589,5.192,5.878,4.795,6.191C4.597,6.354,4.394,6.525,4.206,6.745
		C4.023,6.963,3.843,7.248,3.789,7.617V7.615C3.774,7.711,3.769,7.804,3.769,7.895c0.01,0.669,0.275,1.289,0.635,1.933
		c0.548,0.958,1.358,1.938,2.203,2.722c0.423,0.391,0.853,0.73,1.279,0.99c0.43,0.257,0.845,0.453,1.34,0.482l0.077,0.002
		c0.476-0.001,0.858-0.202,1.147-0.41c0.436-0.319,0.755-0.693,1.051-0.949c0.144-0.128,0.275-0.225,0.382-0.278
		c0.107-0.055,0.178-0.07,0.247-0.071c0.091-0.006,0.373,0.062,0.682,0.223c0.471,0.234,1.021,0.646,1.415,1.057
		c0.197,0.204,0.356,0.408,0.45,0.571l0.096,0.197l0.014,0.053l0.002,0.011C14.795,14.465,14.744,14.672,14.564,14.919z"/>
</g>
</svg>
