<?xml version="1.0" encoding="utf-8"?>
<!-- Generator: Adobe Illustrator 16.0.0, SVG Export Plug-In . SVG Version: 6.00 Build 0)  -->
<!DOCTYPE svg PUBLIC "-//W3C//DTD SVG 1.1//EN" "http://www.w3.org/Graphics/SVG/1.1/DTD/svg11.dtd">
<svg version="1.1" id="Layer_1" xmlns="http://www.w3.org/2000/svg" xmlns:xlink="http://www.w3.org/1999/xlink" x="0px" y="0px"
	 width="232.036px" height="91px" viewBox="0 0 232.036 91" enable-background="new 0 0 232.036 91" xml:space="preserve">
<path fill="#5F4C40" d="M62.678,80.746c0,5.738,4.825,10.381,10.541,10.381c2.149,0,4.293-0.724,6.041-1.984v-2.792
	c-1.613,1.611-3.841,2.686-6.118,2.686c-4.533,0-8.214-3.917-8.214-8.373c0-4.449,3.649-8.368,8.159-8.368
	c2.332,0,4.56,1.017,6.173,2.682v-2.789c-1.8-1.342-3.785-1.987-6.041-1.987C67.426,70.2,62.678,74.946,62.678,80.746"/>
<polygon fill="#5F4C40" points="85.226,90.78 95.715,90.78 95.715,88.689 87.476,88.689 87.476,80.746 95.475,80.746 95.475,78.652 
	87.476,78.652 87.476,72.641 95.715,72.641 95.715,70.547 85.226,70.547 "/>
<polygon fill="#5F4C40" points="117.619,86.217 101.84,69.692 101.84,90.78 104.096,90.78 104.096,75.193 119.871,91.691 
	119.871,70.547 117.619,70.547 "/>
<polygon fill="#5F4C40" points="124.474,72.641 129.36,72.641 129.36,90.78 131.612,90.78 131.612,72.641 136.549,72.641 
	136.549,70.547 124.474,70.547 "/>
<polygon fill="#5F4C40" points="141.013,90.78 151.503,90.78 151.503,88.689 143.263,88.689 143.263,80.746 151.26,80.746 
	151.26,78.652 143.263,78.652 143.263,72.641 151.503,72.641 151.503,70.547 141.013,70.547 "/>
<path fill="#5F4C40" d="M159.746,79.912v-7.271h0.666c2.716,0,5.154,0.321,5.154,3.649c0,3.139-2.572,3.622-5.117,3.622H159.746z
	 M167.821,76.13c0-4.562-3.57-5.583-7.409-5.583h-2.915V90.78h2.249v-8.879h0.562l6.121,8.879h2.766l-6.441-9.069
	C165.863,81.439,167.821,79.242,167.821,76.13"/>
<polygon fill="#5F4C40" points="64.916,10.817 66.284,10.817 66.412,10.817 66.412,10.688 66.412,1.992 68.65,1.992 68.779,1.992 
	68.779,0.729 68.779,0.602 62.55,0.602 62.55,1.864 62.55,1.992 64.916,1.992 "/>
<polygon fill="#5F4C40" points="71.943,10.817 71.943,6.037 76.427,6.037 76.427,10.817 77.795,10.817 77.924,10.817 77.924,0.602 
	76.556,0.602 76.427,0.602 76.427,4.618 71.943,4.618 71.943,0.602 70.572,0.602 70.443,0.602 70.443,10.817 71.814,10.817 "/>
<polygon fill="#5F4C40" points="86.117,9.553 86.117,9.425 82.007,9.425 82.007,5.918 85.996,5.918 85.996,4.652 85.996,4.523 
	82.008,4.523 82.008,1.992 86.117,1.992 86.117,0.729 86.117,0.601 80.511,0.601 80.511,0.729 80.511,10.816 86.117,10.816 "/>
<path fill="#5F4C40" d="M97.954,9.608c-2.083,0-3.845-1.699-3.847-3.898c0.002-2.13,1.58-3.897,3.847-3.899
	c2.266,0.002,3.842,1.77,3.845,3.899C101.795,7.909,100.035,9.608,97.954,9.608 M103.298,5.71c0-2.926-2.421-5.318-5.344-5.319
	c-2.925,0.001-5.346,2.394-5.347,5.319c0,1.514,0.599,2.845,1.566,3.796c0.969,0.951,2.306,1.523,3.78,1.523
	c1.474,0,2.81-0.572,3.777-1.523S103.298,7.224,103.298,5.71"/>
<polygon fill="#5F4C40" points="106.775,10.817 106.775,5.93 110.231,5.93 110.231,4.666 110.231,4.537 106.774,4.537 
	106.775,1.992 110.354,1.992 110.354,0.729 110.354,0.602 105.276,0.602 105.276,10.817 106.647,10.817 "/>
<polygon fill="#5F4C40" points="114.088,10.817 114.088,5.93 117.544,5.93 117.544,4.666 117.544,4.537 114.088,4.537 
	114.088,1.992 117.664,1.992 117.664,0.729 117.664,0.602 112.586,0.602 112.586,10.817 113.96,10.817 "/>
<polygon fill="#5F4C40" points="119.868,0.602 119.868,10.817 121.238,10.817 121.367,10.817 121.367,10.688 121.367,0.602 
	119.997,0.602 "/>
<path fill="#5F4C40" d="M128.793,11.029c0.896-0.001,1.89-0.256,2.681-0.722l0.063-0.036V8.735V8.45l-0.213,0.189
	c-0.72,0.639-1.625,0.995-2.574,0.995c-2.14-0.004-3.777-1.797-3.777-3.913c0-2.14,1.651-3.937,3.808-3.939
	c0.905-0.001,1.856,0.335,2.544,0.946l0.213,0.189V2.633v-1.44V1.12l-0.062-0.038c-0.78-0.476-1.688-0.69-2.578-0.69
	c-3.001,0.006-5.418,2.355-5.423,5.37C123.475,8.715,125.883,11.022,128.793,11.029"/>
<polygon fill="#5F4C40" points="139.409,9.553 139.409,9.425 135.303,9.425 135.303,5.918 139.289,5.918 139.289,4.652 
	139.289,4.523 135.303,4.523 135.303,1.992 139.409,1.992 139.409,0.729 139.409,0.601 133.802,0.601 133.802,0.729 133.802,10.816 
	139.409,10.816 "/>
<path fill="#5F4C40" d="M144.407,11.029c0.925,0,1.754-0.337,2.351-0.909c0.599-0.573,0.964-1.386,0.964-2.323
	c0.005-1.73-1.127-2.565-2.553-3.118l-0.714-0.277c-0.618-0.235-1.313-0.628-1.304-1.309c0-0.392,0.192-0.703,0.483-0.931
	c0.293-0.225,0.685-0.353,1.053-0.352c0.716,0.005,1.126,0.281,1.488,0.875l0.064,0.109l0.112-0.066l0.991-0.594l0.106-0.065
	l-0.062-0.107c-0.562-1.002-1.523-1.572-2.673-1.57c-1.556,0.003-3.062,1.005-3.064,2.701c0,1.466,1.104,2.155,2.247,2.641
	l0.688,0.293c0.858,0.358,1.641,0.786,1.639,1.771c-0.001,0.981-0.715,1.811-1.71,1.812c-0.996-0.003-1.799-0.723-1.799-1.736V7.85
	l0.002-0.16l-1.411,0.298l-0.115,0.025l0.015,0.117C141.421,9.785,142.733,11.029,144.407,11.029"/>
<path fill="#5F4C40" d="M158.567,3.348l1.575,3.581h-3.149L158.567,3.348z M160.77,8.32l1.135,2.497h1.42h0.2L158.567,0
	l-4.952,10.817h1.533h0.081l1.135-2.497H160.77z"/>
<polygon fill="#5F4C40" points="165.461,10.817 166.827,10.817 166.955,10.817 166.955,10.688 166.955,1.992 169.195,1.992 
	169.323,1.992 169.323,0.729 169.323,0.602 163.092,0.602 163.092,1.864 163.092,1.992 165.461,1.992 "/>
<path fill="#5F4C40" d="M10.944,23.644h5.505c5.442,0,7.942,3.753,7.942,8.255c0,4.566-2.5,8.255-7.942,8.255h-5.505V23.644z
	 M16.887,57.545c-5.191,0-5.942-1.065-5.942-7.317v-7.82h5.568c8.692,0,13.448-4.691,13.448-10.509
	c0-5.816-4.756-10.568-13.448-10.568H0v1.312c5.191,0,5.943,1.002,5.943,7.256v20.33c0,6.252-0.752,7.317-5.943,7.317v1.311h16.887
	V57.545z"/>
<path fill="#5F4C40" d="M53.39,35.45c0,2.94-1.627,5.378-5.13,5.378h-3.564V29.944h3.564C51.763,29.944,53.39,32.449,53.39,35.45
	 M35.313,27.693v1.252c4.192,0,4.94,0.999,4.94,7.256v10.008c0,6.255-0.748,7.317-4.94,7.317v1.251h14.323v-1.251
	c-4.189,0-4.941-1.062-4.941-7.317v-3.065h1.752l8.506,11.634h8.008v-1.251c-3.003-0.439-5.883-2.877-8.382-5.818l-3.878-4.69
	c4.691-0.624,7.566-3.753,7.566-7.567c0-4.441-3.563-7.757-10.008-7.757H35.313z"/>
<path fill="#5F4C40" d="M68.156,27.693v1.252c4.191,0,4.939,0.999,4.939,7.256v10.008c0,6.255-0.748,7.317-4.939,7.317v1.251h23.392
	l0.502-7.568h-1.252l-0.312,1.252c-0.751,2.937-1.563,4.003-7.254,4.003h-0.753c-4.188,0-4.939-1.003-4.939-7.258V41.58h0.373
	c6.255,0,6.758,0.813,6.758,4.941h1.248V34.324H84.67c0,4.191-0.503,4.94-6.758,4.94h-0.373v-9.32h4.19
	c5.691,0,6.504,1.13,7.192,4.005l0.311,1.252h1.315l-0.5-7.508h-8.069H68.156z"/>
<path fill="#5F4C40" d="M103.248,53.526c1.127,0.752,3.754,2.312,7.004,2.312c4.82,0,8.885-3.439,8.885-8.569
	c0-2.437-1.314-5.253-4.884-7.064l-4.187-2.192c-3.816-1.998-5.442-3.187-5.442-5.378c0-2.314,2.064-3.625,4.505-3.625
	c4.502,0,6.189,4.439,6.565,8.19h1.252V26.631h-1.252c-0.124,1.001-0.622,1.564-0.937,1.939c-1.315-0.938-3.316-1.876-5.942-1.876
	c-4.504,0-7.819,3.188-7.819,7.13c0,3.501,2.19,6.067,5.191,7.633l4.254,2.188c3.379,1.687,5.129,3.377,5.129,5.565
	c0,2.69-2.128,4.19-4.816,4.19c-4.689,0-8.068-3.002-8.568-8.318h-1.251v10.757h1.126C102.246,54.776,102.873,53.965,103.248,53.526
	"/>
<path fill="#5F4C40" d="M125.022,27.693l-0.375,7.693h1.253l0.308-1.249c0.754-2.94,1.253-4.003,7.009-4.003h3.626v16.074
	c0,6.255-0.813,7.317-5.002,7.317v1.251h14.385v-1.251c-4.19,0-5.003-1.062-5.003-7.317V30.135h3.251
	c5.753,0,6.503,1.062,7.252,4.003l0.317,1.249h1.312l-0.44-7.693H125.022z"/>
<path fill="#5F4C40" d="M173.721,53.4c-7.381,0-10.135-6.753-10.135-12.196c0-5.379,2.754-12.194,10.135-12.194
	c7.379,0,10.13,6.815,10.13,12.194C183.851,46.647,181.1,53.4,173.721,53.4 M188.979,41.204c0-7.942-6.879-14.573-15.259-14.573
	c-8.385,0-15.263,6.631-15.263,14.573c0,8.069,6.878,14.635,15.263,14.635C182.101,55.839,188.979,49.273,188.979,41.204"/>
<path fill="#5F4C40" d="M217.614,21.354v1.613v0.324h0.325c1.262,0,2.245,0.062,2.985,0.242c1.11,0.279,1.661,0.733,2.04,1.718
	c0.371,0.991,0.485,2.547,0.482,4.84v19.901l-23.105-28.639h-9.14v1.613v0.324h0.326c1.264,0,2.246,0.062,2.986,0.242
	c1.11,0.279,1.661,0.733,2.04,1.718c0.372,0.99,0.483,2.547,0.48,4.84v19.964c0.008,3.06-0.207,4.806-0.933,5.691
	c-0.36,0.448-0.849,0.733-1.592,0.919c-0.738,0.183-1.719,0.251-2.982,0.251h-0.326v1.612v0.323h14.65V57.24v-0.324h-0.325
	c-1.262,0-2.246-0.068-2.991-0.251c-1.12-0.288-1.687-0.759-2.076-1.754c-0.383-1.003-0.503-2.565-0.499-4.856v-20.46l24.519,30.301
	h1.565h0.325V30.091c-0.009-3.062,0.222-4.788,0.96-5.659c0.366-0.439,0.863-0.72,1.614-0.898c0.747-0.18,1.732-0.242,2.998-0.242
	h0.325v-1.613v-0.324H217.614z"/>
<rect x="175.91" y="78.048" fill="#5F4C40" width="55.962" height="1.708"/>
<rect x="175.91" y="83.325" fill="#5F4C40" width="55.962" height="1.708"/>
<rect x="178.548" y="4.92" fill="#5F4C40" width="53.324" height="1.709"/>
<rect x="0.001" y="78.048" fill="#5F4C40" width="55.962" height="1.708"/>
<rect x="0.001" y="83.325" fill="#5F4C40" width="55.962" height="1.708"/>
<rect x="0.001" y="4.92" fill="#5F4C40" width="53.324" height="1.709"/>
</svg>
