<?xml version="1.0" encoding="utf-8"?>
<!-- Generator: Adobe Illustrator 16.0.0, SVG Export Plug-In . SVG Version: 6.00 Build 0)  -->
<!DOCTYPE svg PUBLIC "-//W3C//DTD SVG 1.1//EN" "http://www.w3.org/Graphics/SVG/1.1/DTD/svg11.dtd">
<svg version="1.1" id="Layer_1" xmlns="http://www.w3.org/2000/svg" xmlns:xlink="http://www.w3.org/1999/xlink" x="0px" y="0px"
	 width="237px" height="100px" viewBox="0 0 237 100" enable-background="new 0 0 237 100" xml:space="preserve">
<path fill="#FFFFFF" d="M66.129,85.105c0,5.738,4.825,10.381,10.541,10.381c2.149,0,4.293-0.724,6.041-1.984V90.71
	c-1.613,1.611-3.841,2.686-6.118,2.686c-4.533,0-8.214-3.917-8.214-8.373c0-4.449,3.649-8.368,8.159-8.368
	c2.332,0,4.56,1.017,6.173,2.682v-2.789c-1.8-1.342-3.785-1.987-6.041-1.987C70.877,74.56,66.129,79.306,66.129,85.105"/>
<polygon fill="#FFFFFF" points="88.677,95.14 99.166,95.14 99.166,93.049 90.927,93.049 90.927,85.105 98.926,85.105 98.926,83.012 
	90.927,83.012 90.927,77 99.166,77 99.166,74.906 88.677,74.906 "/>
<polygon fill="#FFFFFF" points="121.07,90.576 105.291,74.052 105.291,95.14 107.547,95.14 107.547,79.553 123.322,96.051 
	123.322,74.906 121.07,74.906 "/>
<polygon fill="#FFFFFF" points="127.925,77 132.812,77 132.812,95.14 135.063,95.14 135.063,77 140,77 140,74.906 127.925,74.906 
	"/>
<polygon fill="#FFFFFF" points="144.464,95.14 154.954,95.14 154.954,93.049 146.714,93.049 146.714,85.105 154.711,85.105 
	154.711,83.012 146.714,83.012 146.714,77 154.954,77 154.954,74.906 144.464,74.906 "/>
<path fill="#FFFFFF" d="M163.197,84.271V77h0.666c2.716,0,5.154,0.321,5.154,3.649c0,3.139-2.572,3.622-5.117,3.622H163.197z
	 M171.272,80.489c0-4.562-3.57-5.583-7.409-5.583h-2.915V95.14h2.249v-8.879h0.562l6.121,8.879h2.766l-6.441-9.069
	C169.314,85.799,171.272,83.602,171.272,80.489"/>
<polygon fill="#FFFFFF" points="68.367,15.177 69.735,15.177 69.863,15.177 69.863,15.048 69.863,6.352 72.102,6.352 72.23,6.352 
	72.23,5.089 72.23,4.961 66.001,4.961 66.001,6.224 66.001,6.352 68.367,6.352 "/>
<polygon fill="#FFFFFF" points="75.395,15.177 75.395,10.396 79.878,10.396 79.878,15.177 81.246,15.177 81.375,15.177 
	81.375,4.961 80.007,4.961 79.878,4.961 79.878,8.978 75.395,8.978 75.395,4.961 74.023,4.961 73.895,4.961 73.895,15.177 
	75.266,15.177 "/>
<polygon fill="#FFFFFF" points="89.568,13.912 89.568,13.784 85.458,13.784 85.458,10.277 89.447,10.277 89.447,9.012 89.447,8.883 
	85.459,8.883 85.459,6.352 89.568,6.352 89.568,5.089 89.568,4.96 83.962,4.96 83.962,5.089 83.962,15.176 89.568,15.176 "/>
<path fill="#FFFFFF" d="M101.405,13.968c-2.083,0-3.845-1.699-3.847-3.898c0.002-2.13,1.58-3.897,3.847-3.899
	c2.266,0.002,3.842,1.77,3.845,3.899C105.246,12.269,103.486,13.968,101.405,13.968 M106.749,10.069
	c0-2.926-2.421-5.318-5.344-5.319c-2.925,0.001-5.346,2.394-5.347,5.319c0,1.514,0.599,2.845,1.566,3.796
	c0.969,0.951,2.306,1.523,3.78,1.523c1.474,0,2.81-0.572,3.777-1.523S106.749,11.583,106.749,10.069"/>
<polygon fill="#FFFFFF" points="110.227,15.177 110.227,10.289 113.683,10.289 113.683,9.025 113.683,8.896 110.226,8.896 
	110.227,6.352 113.806,6.352 113.806,5.089 113.806,4.961 108.728,4.961 108.728,15.177 110.099,15.177 "/>
<polygon fill="#FFFFFF" points="117.539,15.177 117.539,10.289 120.995,10.289 120.995,9.025 120.995,8.896 117.539,8.896 
	117.539,6.352 121.115,6.352 121.115,5.089 121.115,4.961 116.037,4.961 116.037,15.177 117.411,15.177 "/>
<polygon fill="#FFFFFF" points="123.319,4.961 123.319,15.177 124.689,15.177 124.818,15.177 124.818,15.048 124.818,4.961 
	123.448,4.961 "/>
<path fill="#FFFFFF" d="M132.244,15.389c0.896-0.001,1.89-0.256,2.681-0.722l0.063-0.036v-1.536V12.81l-0.213,0.189
	c-0.72,0.639-1.625,0.995-2.574,0.995c-2.14-0.004-3.777-1.797-3.777-3.913c0-2.14,1.651-3.937,3.808-3.939
	c0.905-0.001,1.856,0.335,2.544,0.946l0.213,0.189V6.992v-1.44V5.479l-0.062-0.038c-0.78-0.476-1.688-0.69-2.578-0.69
	c-3.001,0.006-5.418,2.355-5.423,5.37C126.926,13.074,129.334,15.382,132.244,15.389"/>
<polygon fill="#FFFFFF" points="142.86,13.912 142.86,13.784 138.754,13.784 138.754,10.277 142.74,10.277 142.74,9.012 
	142.74,8.883 138.754,8.883 138.754,6.352 142.86,6.352 142.86,5.089 142.86,4.96 137.253,4.96 137.253,5.089 137.253,15.176 
	142.86,15.176 "/>
<path fill="#FFFFFF" d="M147.858,15.389c0.925,0,1.754-0.337,2.351-0.909c0.599-0.573,0.964-1.386,0.964-2.323
	c0.005-1.73-1.127-2.565-2.553-3.118l-0.714-0.277c-0.618-0.235-1.313-0.628-1.304-1.309c0-0.392,0.192-0.703,0.483-0.931
	c0.293-0.225,0.685-0.353,1.053-0.352c0.716,0.005,1.126,0.281,1.488,0.875l0.064,0.109l0.112-0.066l0.991-0.594l0.106-0.065
	l-0.062-0.107c-0.562-1.002-1.523-1.572-2.673-1.57c-1.556,0.003-3.062,1.005-3.064,2.701c0,1.466,1.104,2.155,2.247,2.641
	l0.688,0.293c0.858,0.358,1.641,0.786,1.639,1.771c-0.001,0.981-0.715,1.811-1.71,1.812c-0.996-0.003-1.799-0.723-1.799-1.736
	v-0.023l0.002-0.16l-1.411,0.298l-0.115,0.025l0.015,0.117C144.872,14.145,146.185,15.389,147.858,15.389"/>
<path fill="#FFFFFF" d="M162.019,7.707l1.575,3.581h-3.149L162.019,7.707z M164.221,12.68l1.135,2.497h1.42h0.2l-4.957-10.817
	l-4.952,10.817h1.533h0.081l1.135-2.497H164.221z"/>
<polygon fill="#FFFFFF" points="168.912,15.177 170.278,15.177 170.406,15.177 170.406,15.048 170.406,6.352 172.646,6.352 
	172.774,6.352 172.774,5.089 172.774,4.961 166.543,4.961 166.543,6.224 166.543,6.352 168.912,6.352 "/>
<path fill="#FFFFFF" d="M14.396,28.003H19.9c5.442,0,7.942,3.753,7.942,8.255c0,4.566-2.5,8.255-7.942,8.255h-5.505V28.003z
	 M20.338,61.904c-5.191,0-5.942-1.065-5.942-7.317v-7.82h5.568c8.692,0,13.448-4.691,13.448-10.509
	c0-5.816-4.756-10.568-13.448-10.568H3.451v1.312c5.191,0,5.943,1.002,5.943,7.256v20.33c0,6.252-0.752,7.317-5.943,7.317v1.311
	h16.887V61.904z"/>
<path fill="#FFFFFF" d="M56.841,39.81c0,2.94-1.627,5.378-5.13,5.378h-3.564V34.304h3.564C55.214,34.304,56.841,36.809,56.841,39.81
	 M38.765,32.053v1.252c4.192,0,4.94,0.999,4.94,7.256v10.008c0,6.255-0.748,7.317-4.94,7.317v1.251h14.323v-1.251
	c-4.189,0-4.941-1.062-4.941-7.317v-3.065h1.752l8.506,11.634h8.008v-1.251c-3.003-0.439-5.883-2.877-8.382-5.818l-3.878-4.69
	c4.691-0.624,7.566-3.753,7.566-7.567c0-4.441-3.563-7.757-10.008-7.757H38.765z"/>
<path fill="#FFFFFF" d="M71.607,32.053v1.252c4.191,0,4.939,0.999,4.939,7.256v10.008c0,6.255-0.748,7.317-4.939,7.317v1.251h23.392
	l0.502-7.568h-1.252l-0.312,1.252c-0.751,2.937-1.563,4.003-7.254,4.003H85.93c-4.188,0-4.939-1.003-4.939-7.258v-3.626h0.373
	c6.255,0,6.758,0.813,6.758,4.941h1.248V38.684h-1.248c0,4.191-0.503,4.94-6.758,4.94H80.99v-9.32h4.19
	c5.691,0,6.504,1.13,7.192,4.005l0.311,1.252h1.315l-0.5-7.508H85.43H71.607z"/>
<path fill="#FFFFFF" d="M106.699,57.886c1.127,0.752,3.754,2.312,7.004,2.312c4.82,0,8.885-3.439,8.885-8.569
	c0-2.437-1.314-5.253-4.884-7.064l-4.187-2.192c-3.816-1.998-5.442-3.187-5.442-5.378c0-2.314,2.064-3.625,4.505-3.625
	c4.502,0,6.189,4.439,6.565,8.19h1.252V30.99h-1.252c-0.124,1.001-0.622,1.564-0.937,1.939c-1.315-0.938-3.316-1.876-5.942-1.876
	c-4.504,0-7.819,3.188-7.819,7.13c0,3.501,2.19,6.067,5.191,7.633l4.254,2.188c3.379,1.687,5.129,3.377,5.129,5.565
	c0,2.69-2.128,4.19-4.816,4.19c-4.689,0-8.068-3.002-8.568-8.318h-1.251v10.757h1.126C105.697,59.136,106.324,58.324,106.699,57.886
	"/>
<path fill="#FFFFFF" d="M128.474,32.053l-0.375,7.693h1.253l0.308-1.249c0.754-2.94,1.253-4.003,7.009-4.003h3.626v16.074
	c0,6.255-0.813,7.317-5.002,7.317v1.251h14.385v-1.251c-4.19,0-5.003-1.062-5.003-7.317V34.494h3.251
	c5.753,0,6.503,1.062,7.252,4.003l0.317,1.249h1.312l-0.44-7.693H128.474z"/>
<path fill="#FFFFFF" d="M177.172,57.76c-7.381,0-10.135-6.753-10.135-12.196c0-5.379,2.754-12.194,10.135-12.194
	c7.379,0,10.13,6.815,10.13,12.194C187.302,51.007,184.551,57.76,177.172,57.76 M192.431,45.563c0-7.942-6.879-14.573-15.259-14.573
	c-8.385,0-15.263,6.631-15.263,14.573c0,8.069,6.878,14.635,15.263,14.635C185.552,60.198,192.431,53.633,192.431,45.563"/>
<path fill="#FFFFFF" d="M221.065,25.713v1.613v0.324h0.325c1.262,0,2.245,0.062,2.985,0.242c1.11,0.279,1.661,0.733,2.04,1.718
	c0.371,0.991,0.485,2.547,0.482,4.84v19.901l-23.105-28.639h-9.14v1.613v0.324h0.326c1.264,0,2.246,0.062,2.986,0.242
	c1.11,0.279,1.661,0.733,2.04,1.718c0.372,0.99,0.483,2.547,0.48,4.84v19.964c0.008,3.06-0.207,4.806-0.933,5.691
	c-0.36,0.448-0.849,0.733-1.592,0.919c-0.738,0.183-1.719,0.251-2.982,0.251h-0.326v1.612v0.323h14.65V61.6v-0.324h-0.325
	c-1.262,0-2.246-0.068-2.991-0.251c-1.12-0.288-1.687-0.759-2.076-1.754c-0.383-1.003-0.503-2.565-0.499-4.856v-20.46l24.519,30.301
	h1.565h0.325V34.45c-0.009-3.062,0.222-4.788,0.96-5.659c0.366-0.439,0.863-0.72,1.614-0.898c0.747-0.18,1.732-0.242,2.998-0.242
	h0.325v-1.613v-0.324H221.065z"/>
<rect x="179.361" y="82.407" fill="#FFFFFF" width="55.962" height="1.708"/>
<rect x="179.361" y="87.685" fill="#FFFFFF" width="55.962" height="1.708"/>
<rect x="181.999" y="9.279" fill="#FFFFFF" width="53.324" height="1.709"/>
<rect x="3.452" y="82.407" fill="#FFFFFF" width="55.962" height="1.708"/>
<rect x="3.452" y="87.685" fill="#FFFFFF" width="55.962" height="1.708"/>
<rect x="3.452" y="9.279" fill="#FFFFFF" width="53.324" height="1.709"/>
</svg>
