<?xml version="1.0" encoding="utf-8"?>
<!-- Generator: Adobe Illustrator 16.0.0, SVG Export Plug-In . SVG Version: 6.00 Build 0)  -->
<!DOCTYPE svg PUBLIC "-//W3C//DTD SVG 1.1//EN" "http://www.w3.org/Graphics/SVG/1.1/DTD/svg11.dtd">
<svg version="1.1" id="Layer_1" xmlns="http://www.w3.org/2000/svg" xmlns:xlink="http://www.w3.org/1999/xlink" x="0px" y="0px"
	 width="131.309px" height="166.152px" viewBox="0 0 131.309 166.152" enable-background="new 0 0 131.309 166.152"
	 xml:space="preserve">
<g>
	<path fill="#FFFFFF" d="M130.804,35.995c-1.843,0.912-3.892,2.167-5.756,3.376v-5.096l-8.141-4.716v30.027v0.002
		c0,26.407-20.124,48.103-45.873,50.601v-0.003l-0.002-0.024l-0.025,0.003c-0.604,0.062-1.09,0.407-1.54,0.814
		c-0.673,0.613-1.298,1.433-1.899,2.078c-0.3,0.321-0.597,0.598-0.856,0.777c-0.262,0.18-0.48,0.258-0.644,0.257h-0.007H66.06
		h-0.004h-0.013c-0.215,0.001-0.54-0.147-0.909-0.466c-0.566-0.479-1.19-1.272-1.83-1.979c-0.322-0.354-0.65-0.689-1.003-0.956
		c-0.356-0.267-0.742-0.481-1.198-0.526l-0.025-0.002l-0.003,0.026c-25.745-2.498-45.873-24.193-45.873-50.6v0V29.559l-8.14,4.716
		v5.098c-1.864-1.212-3.914-2.464-5.756-3.376l-0.941-0.466l1.942,10.487l0.197,0.122c0.511,0.317,1.021,0.646,1.522,0.982
		c1.049,0.703,2.054,1.436,3.035,2.205v10.209c0.001,31.202,24.222,56.744,54.887,58.854l0.09,0.002
		c0.555-0.009,0.978-0.307,1.35-0.64c0.558-0.509,1.06-1.196,1.543-1.736c0.235-0.27,0.471-0.5,0.672-0.643
		c0.196-0.144,0.347-0.194,0.438-0.195l0.013-0.001l0.019,0.001c0.122,0.001,0.36,0.109,0.641,0.367
		c0.444,0.393,0.945,1.062,1.469,1.654c0.262,0.295,0.526,0.57,0.827,0.796c0.298,0.219,0.648,0.397,1.058,0.4l0.094-0.002
		c30.663-2.108,54.885-27.652,54.886-58.854V49.326c0.977-0.768,1.985-1.502,3.034-2.205c0.503-0.335,1.016-0.665,1.523-0.982
		l0.187-0.116l0.01-0.006l1.943-10.488L130.804,35.995z M122.835,71.098l-0.014-0.021l-2.782,1.913
		c0.388-1.569,0.716-3.164,0.968-4.783l2.626-2.241C123.441,67.701,123.177,69.412,122.835,71.098z M102.785,96.254
		c1.088-1.086,2.127-2.228,3.116-3.409l0.419,3.513c-0.545,0.593-1.098,1.178-1.666,1.745c-0.584,0.584-1.184,1.152-1.792,1.71
		L102.785,96.254z M107.162,100.352l-3.421,0.071c1.193-1.101,2.342-2.247,3.436-3.446l3.421-0.403
		C109.508,97.883,108.363,99.143,107.162,100.352z M106.821,91.695c0.963-1.221,1.868-2.482,2.72-3.787l0.812,3.477
		c-0.975,1.348-2.011,2.652-3.103,3.912L106.821,91.695z M110.325,86.667c0.76-1.231,1.472-2.5,2.126-3.8l1.225,3.316
		c-0.781,1.392-1.621,2.745-2.516,4.052L110.325,86.667z M111.553,95.408l-3.354,0.391c1.073-1.246,2.093-2.537,3.059-3.874
		l3.359-0.782C113.656,92.614,112.636,94.035,111.553,95.408z M113.084,81.548c0.65-1.395,1.24-2.822,1.771-4.28l1.624,3.168
		c-0.643,1.543-1.358,3.056-2.136,4.527L113.084,81.548z M115.41,89.881l-3.24,0.754c0.888-1.317,1.717-2.679,2.494-4.072
		l3.254-1.199C117.149,86.91,116.313,88.416,115.41,89.881z M115.333,75.896c0.464-1.405,0.874-2.837,1.221-4.295l1.985,2.889
		c-0.449,1.576-0.965,3.123-1.548,4.638L115.333,75.896z M118.587,84l-3.168,1.166c0.757-1.454,1.455-2.938,2.081-4.463l3.096-1.586
		C119.999,80.78,119.328,82.41,118.587,84z M116.861,70.194c0.312-1.507,0.558-3.039,0.737-4.592l2.326,2.721
		c-0.269,1.642-0.601,3.263-1.011,4.852L116.861,70.194z M121.083,77.686l-2.997,1.539c0.578-1.526,1.086-3.084,1.533-4.67
		l2.896-1.989C122.111,74.303,121.635,76.01,121.083,77.686z M120.125,66.945l-2.374-2.778c0.131-1.509,0.208-3.035,0.208-4.579
		V59.33l2.621,2.622C120.51,63.639,120.354,65.301,120.125,66.945z M117.959,53.413l2.684,2.68v3.408c0,0.334-0.019,0.664-0.025,1
		l-2.658-2.659V53.413z M117.959,47.499l2.684,2.68v4.429l-2.684-2.68V47.499z M117.959,41.585l2.684,2.68v4.43l-2.684-2.681V41.585
		z M117.959,35.671l2.684,2.68v4.429l-2.684-2.68V35.671z M117.959,31.381l2.684,1.556v3.936l-2.684-2.684V31.381z M101.768,105.151
		l-3.341-0.413c1.418-1.015,2.785-2.096,4.101-3.235l3.544-0.073C104.7,102.737,103.264,103.977,101.768,105.151z M98.137,100.37
		c1.254-0.987,2.46-2.036,3.617-3.129l0.075,3.474c-1.323,1.149-2.698,2.234-4.131,3.255L98.137,100.37z M96.008,109.144
		l-3.364-0.756c1.549-0.846,3.062-1.76,4.519-2.747l3.42,0.423C99.11,107.158,97.585,108.19,96.008,109.144z M92.697,104.12
		c1.474-0.886,2.9-1.837,4.275-2.859l-0.432,3.532c-1.489,1.004-3.028,1.934-4.62,2.785L92.697,104.12z M71.081,111.22l0.002,0.022
		l0.024-0.003c0.996-0.096,1.974-0.228,2.947-0.382l-1.896,2.885c-1.351,0.145-2.722,0.244-4.096,0.296
		c0.535-0.533,1.038-1.154,1.524-1.688c0.305-0.331,0.599-0.625,0.861-0.827C70.706,111.331,70.921,111.238,71.081,111.22z
		 M70.089,117.341h-0.02h-0.001h-0.001l-0.013,0.001c-0.106,0.001-0.346-0.106-0.625-0.367c-0.44-0.393-0.941-1.067-1.467-1.656
		c-0.069-0.079-0.139-0.148-0.206-0.221c1.484-0.045,2.958-0.14,4.412-0.298l2.977,1.961
		C73.478,117.023,71.795,117.224,70.089,117.341z M75.472,110.623c1.445-0.266,2.874-0.597,4.279-0.98l-1.618,3.086
		c-1.508,0.347-3.046,0.622-4.603,0.839L75.472,110.623z M76.651,116.498l-2.888-1.902c1.529-0.212,3.03-0.486,4.519-0.818
		l3.12,1.639C79.841,115.844,78.256,116.201,76.651,116.498z M81.147,109.249c1.52-0.464,3.008-0.993,4.463-1.586l-1.145,3.238
		c-1.623,0.581-3.288,1.089-4.981,1.519L81.147,109.249z M82.852,114.995l-3.009-1.58c1.646-0.42,3.266-0.919,4.849-1.482
		l3.387,1.201C86.374,113.835,84.63,114.455,82.852,114.995z M86.921,107.108c1.552-0.679,3.065-1.427,4.536-2.253l-0.756,3.354
		c-1.606,0.81-3.258,1.546-4.951,2.201L86.921,107.108z M89.504,112.525l-3.289-1.163c1.705-0.663,3.361-1.405,4.976-2.224
		l3.472,0.782C92.992,110.867,91.273,111.74,89.504,112.525z M123.778,64.46l-2.562,2.187c0.208-1.624,0.353-3.274,0.417-4.943
		l2.362-2.362l0.003,0.195C123.997,61.197,123.914,62.836,123.778,64.46z M123.997,57.858l-2.321,2.321
		c0.005-0.224,0.02-0.447,0.02-0.675v-3.767l2.303-2.305L123.997,57.858z M121.694,33.545l1.871,1.086l-1.871,1.875V33.545z
		 M123.997,40.115l-2.303,2.305V37.99l2.303-2.305V40.115z M123.997,51.944l-2.303,2.305V49.82l2.303-2.305V51.944z M123.997,46.03
		l-2.303,2.305v-4.429l2.303-2.305V46.03z M129.507,41.87l-0.636,3.418l-3.662-0.723c0.277-0.194,0.555-0.389,0.839-0.578
		C127.179,43.23,128.336,42.535,129.507,41.87z M129.752,40.52c-1.453,0.797-2.889,1.657-4.292,2.595
		c-0.125,0.088-0.245,0.171-0.368,0.255l0.001-0.782l0.447-2.28c1.552-1.009,3.219-2.034,4.782-2.867L129.752,40.52z
		 M127.693,46.125l-0.193,0.125c-0.841,0.561-1.652,1.156-2.45,1.76v-2.407L127.693,46.125z M4.613,46.25l-0.194-0.125l2.645-0.523
		v2.407C6.263,47.406,5.455,46.811,4.613,46.25z M6.071,43.988c0.28,0.188,0.557,0.382,0.834,0.576L3.24,45.289L2.609,41.87
		C3.776,42.534,4.93,43.23,6.071,43.988z M2.358,40.519l-0.57-3.082c1.564,0.835,3.232,1.858,4.783,2.867l0.448,2.28l0.001,0.782
		c-0.123-0.084-0.246-0.169-0.367-0.253C5.245,42.177,3.81,41.316,2.358,40.519z M42.607,112.521
		c-1.77-0.781-3.488-1.655-5.158-2.604l3.473-0.782c1.614,0.818,3.274,1.561,4.975,2.224L42.607,112.521z M45.19,107.108
		l1.167,3.305c-1.693-0.655-3.343-1.394-4.95-2.203l-0.752-3.355C42.123,105.678,43.638,106.427,45.19,107.108z M50.964,109.247
		l1.663,3.17c-1.694-0.43-3.354-0.937-4.982-1.519L46.5,107.66C47.957,108.256,49.445,108.785,50.964,109.247z M49.262,114.993
		c-1.781-0.538-3.525-1.159-5.229-1.86l3.387-1.201c1.581,0.563,3.202,1.062,4.849,1.482L49.262,114.993z M56.643,110.624
		l1.938,2.944c-1.557-0.217-3.09-0.492-4.603-0.839l-1.619-3.086C53.764,110.026,55.193,110.357,56.643,110.624z M55.463,116.498
		c-1.608-0.297-3.192-0.654-4.749-1.082l3.123-1.639c1.483,0.332,2.989,0.606,4.514,0.818L55.463,116.498z M56.97,116.758
		l2.976-1.961c1.458,0.158,2.932,0.253,4.418,0.298c-0.435,0.455-0.835,0.974-1.22,1.406c-0.238,0.27-0.474,0.502-0.668,0.643
		c-0.196,0.146-0.347,0.195-0.431,0.194H62.04h-0.019C60.316,117.22,58.632,117.02,56.97,116.758z M61.03,111.219
		c0.215,0.023,0.545,0.206,0.907,0.54c0.566,0.513,1.189,1.319,1.842,2.016c0.088,0.094,0.177,0.18,0.266,0.267
		c-1.374-0.051-2.742-0.146-4.091-0.295l-1.896-2.884c0.974,0.147,1.954,0.281,2.945,0.377l0.025,0.003L61.03,111.219z
		 M39.415,104.12l0.777,3.456c-1.585-0.852-3.132-1.785-4.621-2.785l-0.431-3.531C36.515,102.283,37.941,103.237,39.415,104.12z
		 M36.101,109.14c-1.575-0.95-3.1-1.983-4.575-3.08l3.423-0.421c1.458,0.985,2.965,1.901,4.517,2.745L36.101,109.14z M33.974,100.37
		l0.436,3.6c-1.427-1.021-2.81-2.105-4.13-3.255l0.076-3.474C31.513,98.335,32.719,99.384,33.974,100.37z M11.105,68.207
		c0.255,1.62,0.582,3.215,0.969,4.784l-2.78-1.913L9.277,71.1c-0.342-1.686-0.605-3.397-0.797-5.134L11.105,68.207z M29.249,99.813
		c-0.609-0.559-1.205-1.126-1.793-1.711c-0.564-0.567-1.121-1.153-1.665-1.745l0.419-3.513c0.988,1.182,2.03,2.322,3.115,3.41
		L29.249,99.813z M24.945,100.352c-1.196-1.208-2.342-2.47-3.431-3.778l3.417,0.403c1.092,1.199,2.241,2.346,3.434,3.446
		L24.945,100.352z M24.86,95.296c-1.091-1.256-2.127-2.563-3.103-3.911l0.813-3.476c0.852,1.304,1.758,2.564,2.719,3.785
		L24.86,95.296z M20.947,90.238c-0.895-1.307-1.73-2.661-2.511-4.053l1.22-3.315c0.657,1.295,1.368,2.563,2.125,3.798L20.947,90.238
		z M17.768,84.963c-0.777-1.473-1.492-2.981-2.136-4.527l1.625-3.168c0.529,1.459,1.119,2.887,1.771,4.28L17.768,84.963z
		 M15.121,79.129c-0.588-1.515-1.102-3.061-1.552-4.638l1.986-2.89c0.348,1.457,0.758,2.889,1.223,4.296L15.121,79.129z
		 M13.198,73.176c-0.41-1.589-0.743-3.21-1.007-4.852l2.322-2.72c0.18,1.552,0.425,3.083,0.738,4.591L13.198,73.176z M14.361,64.165
		l-2.373,2.777c-0.224-1.644-0.382-3.308-0.457-4.992l2.623-2.622v0.259C14.153,61.131,14.229,62.656,14.361,64.165z M11.468,56.096
		l2.685-2.681v4.43l-2.659,2.657c-0.008-0.335-0.025-0.664-0.025-1.001L11.468,56.096z M11.468,50.182l2.685-2.681v4.43l-2.685,2.68
		V50.182z M11.468,44.268l2.685-2.681v4.43l-2.685,2.68V44.268z M11.468,38.354l2.685-2.681v4.43l-2.685,2.68V38.354z
		 M11.468,32.937l2.685-1.556v2.804l-2.685,2.684V32.937z M11.033,77.685C10.476,76.01,10,74.303,9.6,72.564l2.896,1.991
		c0.444,1.586,0.955,3.144,1.537,4.669L11.033,77.685z M13.524,84c-0.742-1.589-1.412-3.22-2.009-4.883l3.096,1.586
		c0.628,1.524,1.328,3.012,2.085,4.463L13.524,84z M16.699,89.881c-0.9-1.465-1.737-2.971-2.509-4.518l3.253,1.199
		c0.778,1.394,1.607,2.755,2.498,4.072L16.699,89.881z M20.561,95.411c-1.086-1.376-2.105-2.797-3.064-4.266l3.363,0.782
		c0.961,1.335,1.981,2.628,3.055,3.874L20.561,95.411z M30.343,105.147c-1.497-1.17-2.934-2.411-4.304-3.722l3.544,0.073
		c1.315,1.14,2.683,2.221,4.101,3.235L30.343,105.147z M10.436,60.176l-2.322-2.322l-0.001-4.426l2.304,2.306v3.767
		C10.417,59.728,10.432,59.952,10.436,60.176z M8.113,47.514l2.304,2.306v4.429l-2.304-2.305V47.514z M8.113,41.6l2.304,2.306v4.429
		L8.113,46.03V41.6z M8.113,35.685l2.304,2.306v4.429l-2.304-2.305V35.685z M8.546,34.631l1.872-1.086v2.96L8.546,34.631z
		 M8.113,59.537v-0.194l2.362,2.361c0.061,1.665,0.208,3.315,0.417,4.943L8.333,64.46C8.197,62.836,8.113,61.196,8.113,59.537z"/>
	<path fill="#FFFFFF" d="M59.306,105.81L59.306,105.81c1.555,0.327,5.101,1.312,6.729,3.658l0.021,0.029l0.021-0.029
		c1.628-2.344,5.176-3.329,6.729-3.656l0,0c22.238-3.228,39.375-22.178,39.795-45.211l0.021,0.023V59.82l0.002-0.077l-0.002-0.078
		V27.114L66.055,0.227L19.489,27.114v33.494l0.025-0.022C19.927,83.626,37.062,102.582,59.306,105.81z M50.942,57.603
		c0,3.783,1.634,7.367,4.361,10.048c1.483,1.42,3.334,2.603,5.313,3.412v0.002l0.016,0.006c0.228,0.093,0.432,0.162,0.673,0.24
		v3.383c-0.109-0.025-0.188-0.041-0.301-0.075l-0.324-0.104c-7.362-2.249-13.002-9.092-13.01-17.095
		c0.014-9.92,8.334-17.962,18.243-17.964c3.934,0.002,7.88,1.46,10.922,3.977v4.468l-0.139-0.174
		c-2.467-3.033-6.919-5.136-10.894-5.136h-0.011h-0.01h-0.009c-4.054,0-7.762,1.747-10.456,4.503
		C52.619,49.854,50.942,53.61,50.942,57.603z M62.416,82.904v-1.871V60.758v-1.812V55.58v-0.676V44.143l0.13-0.041l0.166-0.035
		c0.44-0.104,0.892-0.19,1.346-0.255c0.145-0.02,0.294-0.021,0.443-0.04c0.267-0.026,0.542-0.042,0.817-0.051v9.094h5.207
		c2.942,0,5.579-0.356,7.913-2.456c1.979-1.799,2.937-4.134,2.937-6.771c0-2.817-1.14-5.635-3.415-7.309
		c-2.243-1.712-5.078-1.796-7.806-1.796h-0.105h-4.726v3.906c-0.988,0.031-1.957,0.132-2.901,0.308v-1.285v-5.696h7.991
		c3.548,0,6.979,0.241,9.812,2.652c2.775,2.348,4.099,5.786,4.099,9.334c0.001,3.253-1.264,6.867-3.795,8.981
		c-2.776,2.412-6.57,2.891-10.123,2.891h-5.078v0.753v1.805v3.393v0.67v18.559v1.725v3.294h-2.909V82.904z M66.428,75.281V72.13
		c0.09,0,0.162,0.001,0.253-0.003c3.563-0.281,7.85-2.257,10.02-4.915l0.137-0.168v4.415c-2.941,2.253-6.444,3.635-10.185,3.809
		L66.428,75.281z"/>
	<path fill="#FFFFFF" d="M20.546,134.087h-7.527v0.738v0.15h0.15c1.156-0.002,1.766,0.121,2.079,0.517
		c0.329,0.395,0.429,1.181,0.425,2.573v9.08c0.003,1.394-0.096,2.188-0.426,2.589c-0.315,0.403-0.923,0.532-2.079,0.53h-0.15v0.736
		v0.15h7.845v-0.736v-0.15h-0.15c-1.158,0.002-1.766-0.127-2.08-0.53c-0.329-0.401-0.428-1.195-0.424-2.589v-3.342h2.336
		c1.968,0,3.506-0.531,4.555-1.408c1.049-0.875,1.602-2.096,1.601-3.436c0.001-1.339-0.551-2.567-1.6-3.45
		C24.053,134.627,22.514,134.087,20.546,134.087z M18.21,135.423h2.307c1.184,0.001,2.021,0.402,2.575,1.037
		c0.553,0.636,0.824,1.521,0.824,2.5c0,0.993-0.273,1.877-0.826,2.51c-0.554,0.632-1.39,1.026-2.573,1.027H18.21V135.423z"/>
	<path fill="#FFFFFF" d="M34.776,150.135c-0.435-0.137-0.666-0.36-0.83-0.856c-0.16-0.496-0.213-1.261-0.212-2.379v-1.316h0.612
		l4.072,5.567h4.058v-0.748v-0.13l-0.128-0.019c-1.373-0.197-2.733-1.335-3.923-2.734l0,0l-1.694-2.051
		c2.147-0.383,3.5-1.885,3.497-3.719c0.001-1.103-0.447-2.08-1.293-2.77c-0.846-0.69-2.079-1.094-3.646-1.094h-6.347v0.754v0.15
		h0.15c0.496-0.001,0.882,0.03,1.174,0.115c0.435,0.133,0.665,0.35,0.829,0.839c0.16,0.49,0.213,1.25,0.212,2.368v4.789
		c0.003,1.492-0.099,2.351-0.405,2.79c-0.151,0.222-0.346,0.354-0.638,0.443c-0.292,0.088-0.678,0.121-1.173,0.12h-0.15v0.748v0.15
		h7.157v-0.748v-0.149l-0.15-0.001C35.453,150.256,35.067,150.222,34.776,150.135z M33.733,139.266h1.557
		c0.803,0.001,1.365,0.281,1.741,0.725c0.375,0.444,0.564,1.067,0.564,1.76c0,0.676-0.188,1.283-0.562,1.717
		c-0.376,0.433-0.939,0.706-1.743,0.707h-1.557V139.266z"/>
	<path fill="#FFFFFF" d="M46.738,146.951c0.003,1.469-0.101,2.314-0.406,2.747c-0.151,0.217-0.346,0.349-0.637,0.437
		c-0.291,0.087-0.676,0.119-1.169,0.118h-0.15v0.15v0.598v0.15h11.488l0.26-3.922h-0.758h-0.117l-0.181,0.715
		c-0.179,0.701-0.352,1.126-0.783,1.396c-0.434,0.275-1.189,0.408-2.542,0.406h-0.361c-0.496,0.001-0.882-0.03-1.174-0.115
		c-0.435-0.133-0.664-0.35-0.828-0.84c-0.16-0.491-0.212-1.252-0.212-2.371v-1.582H49.2c1.488-0.005,2.275,0.108,2.641,0.408
		c0.185,0.147,0.291,0.34,0.356,0.634c0.065,0.293,0.081,0.679,0.081,1.169v0.15h0.75h0.15v-6.139h-0.75h-0.15v0.15
		c0,0.498-0.016,0.89-0.081,1.184c-0.104,0.441-0.272,0.658-0.712,0.82c-0.444,0.158-1.169,0.212-2.285,0.211h-0.036v-4.16h1.856
		c1.354-0.002,2.11,0.139,2.539,0.418c0.427,0.273,0.592,0.697,0.756,1.383l0,0.001l0.147,0.6l0.028,0.114h0.75h0.16l-0.26-3.895
		H51.14h-6.767v0.754v0.15h0.15c0.497-0.001,0.885,0.03,1.176,0.115c0.436,0.133,0.664,0.35,0.828,0.839
		c0.159,0.489,0.211,1.25,0.211,2.368v4.789V146.951z"/>
	<path fill="#FFFFFF" d="M65.71,149.708c-0.381,0.312-0.922,0.485-1.537,0.484c-2.178-0.009-3.708-1.361-3.955-3.843l-0.013-0.136
		h-0.734h-0.15v5.447h0.687h0.126l0.021-0.124c0.07-0.4,0.285-0.72,0.455-0.932c0.598,0.385,1.811,1.054,3.32,1.056
		c1.189,0,2.289-0.425,3.093-1.17c0.805-0.745,1.31-1.814,1.31-3.082c0.002-1.222-0.667-2.63-2.418-3.517l0,0l-2.004-1.048
		c-0.91-0.477-1.553-0.855-1.954-1.229c-0.401-0.377-0.566-0.727-0.57-1.212c0.002-0.508,0.22-0.891,0.581-1.163
		s0.869-0.424,1.428-0.423c1.024,0.002,1.707,0.494,2.185,1.219c0.475,0.725,0.72,1.686,0.81,2.568l0.014,0.135h0.735h0.15v-5.359
		h-0.75h-0.132l-0.017,0.131c-0.049,0.361-0.199,0.58-0.335,0.75c-0.648-0.437-1.587-0.849-2.81-0.849
		c-1.113,0-2.087,0.395-2.782,1.038s-1.111,1.538-1.11,2.524c-0.001,1.746,1.097,3.021,2.561,3.781l2.038,1.05
		c0.801,0.402,1.4,0.8,1.792,1.214c0.392,0.415,0.578,0.834,0.579,1.316v0.008C66.323,148.945,66.091,149.394,65.71,149.708z"/>
	<path fill="#FFFFFF" d="M79.055,150.133c-0.438-0.136-0.676-0.36-0.845-0.855c-0.164-0.496-0.222-1.26-0.221-2.378v-7.543h1.408
		c1.368-0.002,2.123,0.132,2.553,0.407c0.427,0.27,0.595,0.694,0.776,1.396l0,0l0.146,0.602l0.027,0.115h0.749h0.159l-0.229-3.988
		H69.943l-0.198,3.988h0.759h0.118l0.174-0.717l0,0c0.18-0.706,0.323-1.134,0.718-1.398c0.397-0.271,1.122-0.406,2.491-0.404h1.586
		v7.543c0.004,1.491-0.107,2.349-0.42,2.789c-0.155,0.222-0.354,0.355-0.649,0.444c-0.295,0.088-0.683,0.121-1.177,0.12h-0.15v0.748
		v0.15h7.188v-0.748v-0.15h-0.15C79.737,150.254,79.349,150.22,79.055,150.133z"/>
	<path fill="#FFFFFF" d="M93.028,137.38c-4.091,0.001-7.453,3.232-7.455,7.125c0,1.974,0.843,3.765,2.194,5.06
		c1.353,1.295,3.216,2.097,5.261,2.097c2.047,0,3.911-0.802,5.264-2.097s2.195-3.086,2.195-5.06
		C100.481,140.612,97.119,137.381,93.028,137.38z M89.402,140.706c0.752-1.104,1.907-1.887,3.626-1.889
		c1.72,0.002,2.876,0.784,3.628,1.889c0.75,1.104,1.076,2.539,1.075,3.799c0,1.278-0.326,2.712-1.076,3.812
		c-0.751,1.1-1.906,1.874-3.627,1.876c-1.718-0.002-2.873-0.775-3.624-1.874c-0.75-1.1-1.076-2.533-1.075-3.813
		C88.327,143.245,88.653,141.81,89.402,140.706z"/>
	<path fill="#FFFFFF" d="M112.577,135.981v0.146v0.15h0.301h0.026c1.055-0.003,1.558,0.127,1.779,0.422l0.002,0.002l0.002,0.002
		c0.246,0.278,0.359,0.971,0.354,2.209v0.077v7.942l-9.514-11.798h-4.102v0.846v0.146v0.15h0.297h0.026
		c1.054-0.003,1.557,0.127,1.778,0.422l0.002,0.003l0.002,0.002c0.254,0.282,0.365,0.991,0.359,2.265v0.021v0.002v8.428v0.077
		c0.005,1.238-0.107,1.934-0.361,2.223l-0.001,0.002l-0.002,0.002c-0.225,0.299-0.725,0.434-1.778,0.431h-0.026h-0.146h-0.15V151
		v0.15v0.15h6.516v-0.846v-0.146v-0.15h-0.301h-0.025c-1.053,0.003-1.562-0.132-1.793-0.432l-0.001-0.001l-0.002-0.002
		c-0.258-0.292-0.373-0.986-0.369-2.226l0.001-0.073v-8.179l10.115,12.497h0.738h0.15h0.15V138.99l-0.001-0.072
		c-0.004-1.24,0.114-1.929,0.365-2.214l0.001-0.002c0.231-0.297,0.75-0.427,1.822-0.424h0.146h0.15v-0.842v-0.15v-0.15h-6.516
		L112.577,135.981z"/>
	<path fill="#FFFFFF" d="M41.16,165.25c-1.466-0.001-2.662-1.273-2.663-2.715c0-1.439,1.189-2.715,2.641-2.715
		c0.752-0.001,1.481,0.335,2.004,0.874l0.001,0.001l0.043,0.044l0.256,0.256v-0.423v-0.965v-0.013v-0.062l-0.055-0.055l-0.008-0.008
		l-0.009-0.007c-0.647-0.476-1.375-0.712-2.188-0.712c-2.097,0.003-3.813,1.715-3.815,3.816c0.002,2.083,1.751,3.755,3.815,3.756
		c0.781-0.001,1.556-0.263,2.19-0.716l0.012-0.009l0.062-0.045v-1.056v-0.061v-0.362l-0.299,0.299
		C42.622,164.902,41.892,165.251,41.16,165.25z"/>
	<path fill="#FFFFFF" d="M48.572,158.751c-2.088,0.001-3.81,1.699-3.811,3.796c0,2.108,1.725,3.773,3.811,3.777
		c2.091-0.004,3.816-1.669,3.816-3.777C52.386,160.449,50.661,158.752,48.572,158.751z M45.885,162.54
		c0-1.489,1.182-2.707,2.686-2.715c1.509,0.008,2.69,1.226,2.691,2.715c-0.006,1.479-1.206,2.713-2.691,2.715
		C47.092,165.253,45.887,164.018,45.885,162.54z"/>
	<polygon fill="#FFFFFF" points="57.647,164.073 55.04,158.051 54.938,158.618 54.938,158.618 53.481,166.209 54.489,166.209 
		54.51,166.209 54.634,166.209 55.46,161.859 57.646,166.746 59.842,161.86 60.67,166.209 61.611,166.209 61.642,166.209 
		61.823,166.209 60.259,158.06 	"/>
	<polygon fill="#FFFFFF" points="67.104,164.073 64.497,158.051 64.395,158.618 64.395,158.618 62.937,166.209 63.945,166.209 
		63.966,166.209 64.09,166.209 64.917,161.857 67.104,166.746 69.299,161.858 70.127,166.209 71.068,166.209 71.099,166.209 
		71.281,166.209 69.715,158.06 	"/>
	<path fill="#FFFFFF" d="M76.188,158.751c-2.088,0.001-3.813,1.698-3.815,3.796c0.001,2.108,1.729,3.773,3.815,3.777
		c2.087-0.004,3.815-1.669,3.816-3.777C80.002,160.449,78.276,158.752,76.188,158.751z M76.188,165.255
		c-1.479-0.002-2.685-1.236-2.686-2.715c0-1.489,1.182-2.708,2.687-2.715c1.504,0.007,2.686,1.226,2.686,2.715
		C78.871,164.019,77.672,165.253,76.188,165.255z"/>
	<polygon fill="#FFFFFF" points="87.354,158.872 87.203,158.872 87.203,159.022 87.203,164.021 81.758,158.313 81.758,158.751 
		81.758,166.209 82.711,166.209 82.736,166.209 82.886,166.209 82.886,161.088 88.333,166.783 88.333,158.872 87.379,158.872 	"/>
	<path fill="#FFFFFF" d="M92.959,161.871l-0.46-0.2l0,0c-0.237-0.107-0.496-0.228-0.686-0.378c-0.189-0.154-0.303-0.319-0.304-0.552
		v-0.004c0-0.532,0.442-0.909,0.985-0.912c0.533,0.009,0.776,0.218,1.055,0.674l0.013,0.021l0.077,0.131l0.152-0.093l0.621-0.398
		l0.018-0.011l0.119-0.071l-0.073-0.146l-0.001-0.003l-0.001-0.001c-0.396-0.734-1.121-1.178-1.96-1.177
		c-0.558,0.002-1.087,0.188-1.48,0.527s-0.649,0.835-0.648,1.428c-0.002,0.545,0.2,0.955,0.506,1.256
		c0.305,0.302,0.703,0.505,1.112,0.693h0.001l0.43,0.186l0,0c0.324,0.147,0.63,0.288,0.842,0.472
		c0.212,0.187,0.338,0.398,0.341,0.757c-0.001,0.677-0.597,1.188-1.26,1.188c-0.647,0.001-1.128-0.504-1.226-1.146v-0.001
		l-0.004-0.025l-0.026-0.168l-0.949,0.267l-0.007,0.002l-0.027,0.01l-0.121,0.047l0.032,0.146l0,0
		c0.231,1.157,1.149,1.949,2.349,1.945c1.305-0.004,2.368-1.013,2.371-2.337v-0.001c-0.001-0.598-0.221-1.045-0.556-1.373
		C93.859,162.292,93.419,162.072,92.959,161.871z"/>
</g>
</svg>
