<?xml version="1.0" encoding="utf-8"?>
<!-- Generator: Adobe Illustrator 16.0.0, SVG Export Plug-In . SVG Version: 6.00 Build 0)  -->
<!DOCTYPE svg PUBLIC "-//W3C//DTD SVG 1.1//EN" "http://www.w3.org/Graphics/SVG/1.1/DTD/svg11.dtd">
<svg version="1.1" id="Layer_1" xmlns="http://www.w3.org/2000/svg" xmlns:xlink="http://www.w3.org/1999/xlink" x="0px" y="0px"
	 width="122.078px" height="172.064px" viewBox="0 0 122.078 172.064" enable-background="new 0 0 122.078 172.064"
	 xml:space="preserve">
<linearGradient id="SVGID_1_" gradientUnits="userSpaceOnUse" x1="0" y1="86.6382" x2="122.0781" y2="86.6382">
	<stop  offset="0" style="stop-color:#FFFFFF"/>
	<stop  offset="0.01" style="stop-color:#FFFFFF"/>
	<stop  offset="0.4809" style="stop-color:#E2E2E1"/>
	<stop  offset="0.9996" style="stop-color:#C6C5C4"/>
	<stop  offset="1" style="stop-color:#C6C5C4"/>
</linearGradient>
<path fill="url(#SVGID_1_)" d="M46.353,165.648h0.27c0.934,0.002,1.844,0.082,1.844,1.227c-0.002,1.008-0.727,1.262-1.607,1.264
	h-0.506V165.648z M45.53,164.855h-0.024v7.209h0.823h0.023v-0.027v-3.105h0.555c0.601,0,1.223-0.076,1.715-0.48
	c0.453-0.375,0.691-0.971,0.691-1.557c0-0.643-0.277-1.277-0.816-1.654c-0.531-0.365-1.172-0.383-1.789-0.385H45.53z
	 M51.181,164.855h-0.025v7.209h2.822v-0.768v-0.025h-1.975v-6.416H51.181z M63.823,164.855v0.768v0.025h3.387l-3.9,6.416h5.195
	v-0.768v-0.025H68.48H64.72l3.91-6.416H63.823z M58.655,166.466l1.158,2.775H57.47L58.655,166.466z M55.333,172.064h0.912h0.018
	l0.863-2.031h3.022l0.844,2.031h0.899h0.039l-3.256-7.588L55.333,172.064z M73.311,166.466l1.159,2.775h-2.345L73.311,166.466z
	 M69.987,172.064h0.914h0.018l0.863-2.031h3.021l0.845,2.031h0.899h0.039l-3.256-7.588L69.987,172.064z M26.028,143.375v1.428h3.326
	v12.355h1.535v-12.355h3.363v-1.428H26.028z M38.014,143.375v13.783h7.147v-1.428h-5.612v-5.408h5.448v-1.426h-5.448v-4.094h5.612
	v-1.428H38.014z M51.499,144.802h0.456c1.846,0,3.509,0.217,3.509,2.484c0,2.137-1.754,2.467-3.49,2.467h-0.475V144.802z
	 M49.962,143.375v13.783h1.537v-6.051h0.383l4.168,6.051h1.881l-4.386-6.178c2.121-0.184,3.454-1.682,3.454-3.803
	c0-3.107-2.43-3.803-5.044-3.803H49.962z M62.056,143.375v13.783h5.338v-1.428h-3.801v-12.355H62.056z M71.138,157.158h1.535
	v-13.783h-1.535V157.158z M14.886,146.41c0,1.977,1.389,2.799,2.997,3.529l0.841,0.365c1.278,0.586,2.539,1.135,2.539,2.74
	c0,1.555-1.353,2.689-2.832,2.689c-1.48,0-2.559-1.152-2.761-2.561l-1.497,0.42c0.438,2.141,2.083,3.564,4.295,3.564
	c2.393,0,4.33-1.846,4.33-4.26c0-2.191-1.517-3.088-3.309-3.873l-0.912-0.402c-0.933-0.42-2.157-0.969-2.157-2.156
	c0-1.262,1.061-2.141,2.286-2.141c1.168,0,1.826,0.551,2.375,1.5l1.225-0.785c-0.732-1.354-2.029-2.139-3.564-2.139
	C16.694,142.902,14.886,144.273,14.886,146.41 M94.284,150.068c0,3.873,3.217,7.09,7.094,7.09c1.917,0,3.836-0.84,5.1-2.301
	c1.26-1.463,1.461-2.998,1.425-4.863h-5.74v1.426h4.095c0,2.557-2.521,4.314-4.917,4.314c-1.443,0-2.905-0.75-3.91-1.758
	c-1.025-1.039-1.61-2.428-1.61-3.891c0-3.109,2.486-5.76,5.631-5.76c2.029,0,3.582,0.971,4.732,2.598l1.117-1.043
	c-1.463-1.9-3.418-2.979-5.832-2.979C97.501,142.902,94.284,146.119,94.284,150.068 M77.753,156.537h1.535v-10.621l10.746,11.242
	v-14.404h-1.535v10.676l-10.746-11.26V156.537z M59.419,85.953l0.068-0.012v5.168h-3.031v-4.883l0.059,0.004l0.143,0.006
	C57.584,86.236,58.509,86.132,59.419,85.953 M63.376,79.39c1.819-1.709,2.822-3.977,2.822-6.383
	c-0.004-1.855-0.818-3.369-2.566-4.76c-1.005-0.793-2.197-1.438-3.126-1.912l-0.012-0.006v-3.727l0.114,0.061l4.26,2.221
	c1.617,1.021,2.783,2.164,3.562,3.494c0.816,1.387,1.211,2.969,1.211,4.842c0,3.266-1.416,6.33-3.982,8.625
	c-2.445,2.184-5.718,3.438-8.996,3.438c-5.547,0-10.215-3.406-12.184-8.891l-0.106-0.291l-0.036-0.098l0.094-0.041l2.835-1.281
	l0.107-0.045l0.042,0.109l0.131,0.324c0.861,2.156,2.045,3.842,3.516,5.014c1.599,1.27,3.521,1.914,5.722,1.914
	C59.205,81.998,61.606,81.048,63.376,79.39 M51.16,61.408v-0.002c-1.369-0.848-2.456-1.887-3.194-3.135
	c-0.74-1.25-1.129-2.701-1.129-4.352v-0.006V53.91c-0.002-3.062,1.099-5.701,2.988-7.566c1.883-1.867,4.549-2.951,7.639-2.951
	c4.171,0.002,8.115,2.244,10.101,5.824l0.161,0.285l-2.057,1.691l-0.344,0.283l-0.031-0.055l-0.207-0.32
	c-0.877-1.396-1.925-2.527-3.196-3.312c-1.272-0.779-2.766-1.223-4.583-1.225c-4.076,0.004-7.135,3.258-7.141,7.244
	c0.006,1.965,0.906,3.316,2.25,4.432c0.867,0.719,1.925,1.309,2.999,1.848l0.032,0.016v3.576l-4.276-2.266H51.17L51.16,61.408z
	 M56.456,35.664h8.209c3.637,0,7.164,0.246,10.074,2.725c2.85,2.414,4.209,5.941,4.209,9.588c0,3.34-1.297,7.049-3.898,9.223
	c-2.852,2.477-6.746,2.967-10.385,2.967h-5.178v0.75v1.848v3.475v0.686v13.674l-0.04,0.012c-0.858,0.283-1.762,0.439-2.669,0.439
	c-0.092,0-0.179-0.01-0.268-0.01l-0.055-0.002v-15.59v-1.861v-3.447v-0.693V47.634l0.047-0.006c0.264-0.033,0.531-0.057,0.805-0.057
	c0.762,0,1.467,0.088,2.129,0.26l0.043,0.01v9.439h5.309c3.015,0,5.706-0.367,8.092-2.508c2.021-1.84,3-4.223,3-6.918
	c0-2.881-1.164-5.762-3.488-7.471c-2.319-1.771-5.264-1.836-8.095-1.834h-4.817v4.004l-0.066-0.01
	c-0.641-0.102-1.292-0.16-1.949-0.16H57.46c-0.318,0-0.63,0.021-0.943,0.043l-0.061,0.002V35.664z M13.352,62.253
	c0,26.338,21.351,47.689,47.688,47.689c26.336,0,47.688-21.352,47.688-47.689S87.376,14.564,61.04,14.564
	C34.702,14.564,13.352,35.916,13.352,62.253 M54.896,118.099l6.146-1.984l6.145,1.982l-6.146,3.975L54.896,118.099z M40.649,114.605
	l6.45-0.326l5.427,3.508l-6.969,2.25L40.649,114.605z M69.556,117.787l5.422-3.508l6.451,0.326l-4.908,5.43L69.556,117.787z
	 M62.71,115.576l5.131-1.654l5.387,0.27l-4.931,3.189L62.71,115.576z M48.851,114.191l5.389-0.271l5.133,1.656l-5.588,1.805
	L48.851,114.191z M35.823,109.265L41.1,110.4l4.529,2.928l-5.868,0.295L35.823,109.265z M76.45,113.328l4.529-2.928l5.275-1.135
	l-3.939,4.357L76.45,113.328z M27.792,107.542l6.316,1.357l4.331,4.791l-7.312,0.367L27.792,107.542z M83.638,113.689l4.331-4.791
	l6.317-1.355l-3.336,6.516L83.638,113.689z M27.19,106.365l-2.676-5.227l4.804,2.461l3.616,4L27.19,106.365z M92.761,103.597
	l4.806-2.461l-2.679,5.229l-5.743,1.234L92.761,103.597z M18.741,104.552l-1.537-7.158l5.749,2.945l2.944,5.75L18.741,104.552z
	 M99.126,100.339l5.748-2.945l-1.535,7.156l-7.156,1.537L99.126,100.339z M16.927,96.101l-1.232-5.744l4,3.617l2.461,4.805
	L16.927,96.101z M102.384,93.974l4-3.617l-1.233,5.744l-5.224,2.676L102.384,93.974z M107.685,89.183l4.791-4.33l0.367,7.309
	l-6.514,3.336L107.685,89.183z M9.235,92.162l0.368-7.311l4.79,4.332l1.356,6.314L9.235,92.162z M9.67,83.531l0.296-5.865
	l2.928,4.529l1.133,5.273L9.67,83.531z M109.187,82.193l2.928-4.527l0.294,5.865l-4.354,3.938L109.187,82.193z M3.259,77.734
	l2.248-6.965l3.508,5.424l-0.326,6.449L3.259,77.734z M113.064,76.193l3.509-5.426l2.248,6.967l-5.432,4.91L113.064,76.193z
	 M112.706,69.052l1.656-5.133l1.804,5.59l-3.188,4.934L112.706,69.052z M5.912,69.509l1.806-5.59l1.656,5.133l-0.271,5.391
	L5.912,69.509z M114.901,62.251l1.982-6.145l3.974,6.146l-3.972,6.145L114.901,62.251z M1.22,62.253l3.975-6.148l1.984,6.145
	L5.194,68.4L1.22,62.253z M5.913,54.996l3.188-4.932l0.272,5.387l-1.656,5.131L5.913,54.996z M112.706,55.451l0.271-5.387
	l3.188,4.932l-1.804,5.588L112.706,55.451z M3.259,46.769l5.43-4.91l0.325,6.453l-3.507,5.424L3.259,46.769z M113.064,48.314
	l0.327-6.455l5.43,4.91l-2.248,6.969L113.064,48.314z M9.669,40.972l4.357-3.938l-1.133,5.277l-2.928,4.529L9.669,40.972z
	 M109.185,42.312l-1.133-5.277l4.357,3.938l-0.295,5.869L109.185,42.312z M9.235,32.341l6.514-3.336l-1.355,6.316l-4.791,4.33
	L9.235,32.341z M107.685,35.32l-1.354-6.314l6.514,3.338l-0.368,7.309L107.685,35.32z M16.926,28.404l5.229-2.678l-2.459,4.803
	l-4.002,3.617L16.926,28.404z M102.384,30.529l-2.457-4.803l5.227,2.678l1.23,5.74L102.384,30.529z M99.128,24.167l-2.944-5.75
	l7.155,1.537l1.537,7.156L99.128,24.167z M18.741,19.955l7.156-1.539l-2.944,5.75l-5.749,2.945L18.741,19.955z M27.192,18.14
	l5.744-1.234l-3.618,4.002l-4.804,2.459L27.192,18.14z M92.761,20.908l-3.616-4.002l5.743,1.234l2.679,5.227L92.761,20.908z
	 M39.763,10.882l5.866,0.295L41.1,14.105l-5.274,1.133L39.763,10.882z M80.979,14.105l-4.529-2.928l5.865-0.295l3.939,4.355
	L80.979,14.105z M31.13,10.447l7.312,0.367l-4.331,4.791l-6.316,1.357L31.13,10.447z M87.969,15.605l-4.331-4.791l7.312-0.367
	l3.336,6.516L87.969,15.605z M61.04,9.466l6.664,2.15l6.994-0.352l5.883,3.803l6.85,1.471l4.696,5.195l6.237,3.195l3.193,6.234
	l5.195,4.695l1.469,6.852l3.805,5.883l-0.354,6.994l2.151,6.664l-2.151,6.666l0.352,6.996l-3.801,5.881l-1.471,6.85l-5.195,4.695
	l-3.193,6.238l-6.237,3.193l-4.696,5.195l-6.85,1.471l-5.883,3.803l-6.994-0.352l-6.662,2.15l-6.666-2.152l-6.996,0.354
	l-5.883-3.803l-6.85-1.471l-4.694-5.195l-6.238-3.193l-3.193-6.238l-5.195-4.697l-1.47-6.846l-3.803-5.883l0.354-6.998L8.255,62.25
	l2.15-6.662l-0.352-6.996l3.803-5.881l1.47-6.852l5.196-4.695l3.193-6.236l6.237-3.193l4.696-5.195l6.848-1.471l5.881-3.803
	l6.998,0.354L61.04,9.466z M62.708,8.929l5.589-1.805l4.931,3.189l-5.387,0.271L62.708,8.929z M48.851,10.314l4.932-3.189
	l5.59,1.805l-5.133,1.656L48.851,10.314z M40.649,9.9l4.908-5.43l6.967,2.248l-5.426,3.508L40.649,9.9z M69.555,6.718l6.966-2.248
	l4.908,5.43l-6.45,0.324L69.555,6.718z M54.894,6.406l6.146-3.973l6.147,3.975L61.04,8.39L54.894,6.406z M61.039,1.212l-7.403,4.789
	l-8.395-2.711l-0.221,0.248l-5.692,6.295L30.521,9.39l-4.02,7.85l-8.623,1.852l-1.852,8.621l-7.848,4.02l0.443,8.807l-6.543,5.914
	l2.709,8.395L0,62.253l4.788,7.404L2.079,78.05l6.543,5.914l-0.443,8.809l7.848,4.02l1.852,8.623l8.621,1.85l4.02,7.85l8.808-0.443
	l5.915,6.543l8.395-2.709l7.404,4.787l0.278-0.182l7.127-4.607l8.392,2.709l5.914-6.541l8.81,0.443l4.019-7.85l8.621-1.852
	l1.852-8.621l7.849-4.02l-0.443-8.807l6.542-5.916l-2.708-8.393l4.787-7.404l-4.788-7.404l2.709-8.395l-6.542-5.916l0.444-8.807
	l-7.85-4.02l-1.852-8.621l-8.62-1.852l-4.02-7.85l-8.81,0.443l-5.914-6.543l-0.314,0.104l-8.077,2.607L61.039,1.212z"/>
</svg>
