<?xml version="1.0" encoding="utf-8"?>
<!-- Generator: Adobe Illustrator 16.0.0, SVG Export Plug-In . SVG Version: 6.00 Build 0)  -->
<!DOCTYPE svg PUBLIC "-//W3C//DTD SVG 1.1//EN" "http://www.w3.org/Graphics/SVG/1.1/DTD/svg11.dtd">
<svg version="1.1" id="Layer_1" xmlns="http://www.w3.org/2000/svg" xmlns:xlink="http://www.w3.org/1999/xlink" x="0px" y="0px"
	 width="122.078px" height="172.064px" viewBox="0 0 122.078 172.064" enable-background="new 0 0 122.078 172.064"
	 xml:space="preserve">
<g>
	<path fill="#FFFFFF" d="M114.494,66.799l4.674-7.229l-4.675-7.233l2.646-8.193l-6.39-5.775l0.438-8.599l-7.664-3.925l-1.812-8.418
		l-8.416-1.808L89.37,7.955l-8.603,0.433L74.994,2l-0.322,0.104l-7.875,2.541L59.569-0.03l-7.229,4.674l-8.195-2.645l-0.228,0.252
		l-5.547,6.136L29.77,7.954l-3.925,7.665l-8.419,1.808l-1.808,8.418l-7.664,3.924l0.435,8.599L2,44.142l2.646,8.192l-4.676,7.236
		l4.674,7.23L2,74.995l6.389,5.773l-0.434,8.604l7.663,3.925l1.808,8.419l8.418,1.807l3.924,7.665l8.6-0.434l5.776,6.39l8.197-2.647
		l7.229,4.679l0.285-0.189l6.945-4.49l8.192,2.647l5.773-6.388l8.603,0.433l3.924-7.664l8.419-1.807l1.81-8.419l7.663-3.925
		l-0.436-8.603l6.39-5.773L114.494,66.799z M113.758,67.937l2.174,6.732l-5.25,4.746l-0.314-6.237L113.758,67.937z M99.936,90.54
		l3.846-3.471l-1.184,5.518l-5.021,2.567L99.936,90.54z M100.829,100.83l-6.913,1.484l2.846-5.557l5.553-2.846L100.829,100.83z
		 M90.543,99.94l4.615-2.363l-2.571,5.022l-5.517,1.184L90.543,99.94z M88.745,110.1l-7.067-0.352l4.187-4.635l6.105-1.307
		L88.745,110.1z M79.039,106.585l5.068-1.092l-3.784,4.186l-5.635-0.284L79.039,106.585z M74.672,115.931l-6.733-2.17l5.24-3.393
		l6.236,0.313L74.672,115.931z M66.21,110.018l5.175,0.261l-4.736,3.062l-5.368-1.732L66.21,110.018z M59.569,117.919l-5.938-3.839
		l5.941-1.92l5.939,1.92L59.569,117.919z M44.469,115.933l-4.745-5.25l6.235-0.314l5.244,3.394L44.469,115.933z M30.394,110.101
		l-3.225-6.293l6.104,1.307l4.187,4.635L30.394,110.101z M18.31,100.83l-1.484-6.918l5.556,2.846l2.845,5.558L18.31,100.83z
		 M8.771,73.18l-0.314,6.234l-5.249-4.746l2.172-6.732L8.771,73.18z M5.383,51.2l-2.174-6.735l5.248-4.744l0.315,6.236L5.383,51.2z
		 M6.979,59.568L5.06,65.511l-3.84-5.94l3.842-5.942L6.979,59.568z M19.202,28.596l-3.846,3.474l1.184-5.518l5.023-2.571
		L19.202,28.596z M18.31,18.311l6.917-1.485l-2.845,5.557l-5.557,2.845L18.31,18.311z M28.596,19.201l-4.615,2.363l2.572-5.023
		l5.518-1.185L28.596,19.201z M30.396,9.038l7.066,0.352l-4.186,4.629l-6.104,1.311L30.396,9.038z M40.1,12.556l-5.067,1.09
		l3.782-4.185l5.636,0.285L40.1,12.556z M44.468,3.208l6.734,2.169l-5.244,3.39l-6.233-0.311L44.468,3.208z M74.672,3.208
		l4.743,5.248L73.18,8.766L67.938,5.38L74.672,3.208z M88.745,9.038l3.225,6.294l-6.105-1.312l-4.187-4.628L88.745,9.038z
		 M100.828,18.311l1.486,6.917l-5.552-2.844l-2.846-5.557L100.828,18.311z M105.114,85.868l4.631-4.189l0.354,7.064l-6.295,3.229
		L105.114,85.868z M9.395,81.677l4.629,4.189l1.311,6.105l-6.295-3.228L9.395,81.677z M14.024,33.274l-4.63,4.189l-0.355-7.069
		l6.295-3.224L14.024,33.274z M109.745,37.463l-4.631-4.189l-1.31-6.103l6.296,3.224L109.745,37.463z M105.593,78.636l-1.434,6.677
		l-5.068,4.581l-3.113,6.084l-6.085,3.115l-4.58,5.068l-6.682,1.434l-5.737,3.71l-6.822-0.344l-6.5,2.098l-6.503-2.099l-6.824,0.344
		l-5.737-3.709l-6.682-1.434l-4.58-5.067l-6.085-3.116l-3.115-6.084l-5.067-4.582l-1.434-6.679l-3.709-5.736l0.345-6.827
		l-2.099-6.501l2.098-6.5l-0.345-6.824l3.709-5.736l1.435-6.682l5.068-4.582l3.115-6.082l6.084-3.115l4.582-5.069l6.68-1.434
		l5.736-3.709l6.826,0.344l6.5-2.098l6.501,2.098l6.822-0.344l5.737,3.709l6.68,1.434l4.582,5.068l6.085,3.117l3.113,6.082
		l5.068,4.58l1.434,6.683l3.71,5.737l-0.346,6.823l2.1,6.5l-2.1,6.501l0.345,6.826l-3.708,5.735L105.593,78.636z M13.647,35.027
		l-1.088,5.069L9.746,44.45l-0.284-5.64L13.647,35.027z M109.677,38.813l-0.284,5.64l-2.812-4.351l-1.089-5.073L109.677,38.813z
		 M9.463,80.323l0.284-5.634l2.812,4.35l1.088,5.067L9.463,80.323z M105.492,84.112l1.088-5.068l2.812-4.353l0.283,5.634
		L105.492,84.112z M99.943,28.596l-2.366-4.615l5.025,2.571l1.183,5.518L99.943,28.596z M90.541,19.204l-3.473-3.848l5.519,1.185
		l2.568,5.023L90.541,19.204z M79.039,12.559l-4.352-2.813l5.636-0.285l3.784,4.186L79.039,12.559z M66.209,9.122L61.28,7.53
		l5.368-1.732l4.736,3.06L66.209,9.122z M65.511,5.061L59.57,6.978l-5.941-1.917l5.94-3.841L65.511,5.061z M57.861,7.534
		L52.93,9.126l-5.177-0.265l4.738-3.06L57.861,7.534z M7.531,57.859L5.798,52.49l3.062-4.737l0.261,5.175L7.531,57.859z
		 M7.532,61.278l1.591,4.932l-0.262,5.179L5.797,66.65L7.532,61.278z M19.2,90.545l2.363,4.613l-5.022-2.568l-1.185-5.52
		L19.2,90.545z M28.597,99.937l3.474,3.846l-5.518-1.184l-2.571-5.022L28.597,99.937z M40.098,106.581l4.352,2.813l-5.636,0.284
		l-3.784-4.186L40.098,106.581z M52.93,110.018l4.933,1.592l-5.37,1.733l-4.74-3.064L52.93,110.018z M111.607,57.86l-1.591-4.932
		l0.261-5.174l3.064,4.738L111.607,57.86z M111.607,61.279l1.734,5.37l-3.064,4.737l-0.261-5.177L111.607,61.279z M110.367,45.959
		l0.315-6.237l5.249,4.746l-2.174,6.734L110.367,45.959z M114.078,65.51l-1.92-5.941l1.918-5.938l3.841,5.94L114.078,65.51z"/>
	<path fill="#FFFFFF" d="M59.57,13.005c-25.716,0-46.566,20.849-46.566,46.566s20.85,46.566,46.566,46.566
		c25.715,0,46.565-20.85,46.565-46.566S85.285,13.005,59.57,13.005z M73.227,54.618l0.016,0.019L73.227,54.618
		c-2.776,2.412-6.57,2.89-10.119,2.89h-5.078v0.757v1.803v3.391v0.67v13.329l-0.021,0.006c-0.836,0.271-1.715,0.427-2.598,0.427
		l-0.26-0.01l-0.03-0.001V62.688v-1.816v-3.365v-0.676V45.323l0.025-0.003c0.255-0.027,0.517-0.055,0.782-0.055
		c0.74,0,1.428,0.086,2.072,0.253l0.022,0.005v9.218h5.208c2.941,0,5.578-0.356,7.913-2.452c1.98-1.799,2.937-4.134,2.937-6.771
		c0-2.819-1.14-5.635-3.413-7.309c-2.244-1.714-5.076-1.796-7.805-1.796h-0.108h-4.727v3.902l-0.034-0.007
		c-0.628-0.1-1.266-0.153-1.907-0.153H56.08c-0.312,0-0.617,0.021-0.922,0.041L55.124,40.2v-6.553h7.985
		c3.55,0,6.983,0.241,9.815,2.652c2.775,2.348,4.097,5.786,4.097,9.334C77.022,48.891,75.758,52.504,73.227,54.618z M66.058,47.116
		l-1.989,1.637l-0.312,0.259l-0.015-0.024l-0.201-0.312c-0.855-1.363-1.884-2.47-3.127-3.238c-1.246-0.764-2.708-1.196-4.486-1.201
		c-3.993,0.007-6.989,3.195-6.994,7.095c0.005,1.926,0.891,3.253,2.204,4.345c0.851,0.704,1.883,1.278,2.933,1.806l0.018,0.011
		v3.431l-4.136-2.193v0l-0.012-0.007c-1.333-0.824-2.39-1.835-3.108-3.05c-0.72-1.218-1.098-2.631-1.099-4.231l0.001-0.007v-0.002
		v-0.001v-0.008v-0.008c0-2.975,1.071-5.542,2.909-7.359c1.833-1.813,4.427-2.872,7.438-2.872c4.061,0.002,7.903,2.185,9.836,5.675
		L66.058,47.116z M43.371,72.973l2.766-1.25l0.081-0.035l0.032,0.083l0.127,0.313c0.843,2.107,2,3.757,3.439,4.907
		c1.565,1.238,3.447,1.871,5.6,1.871c2.369,0,4.719-0.93,6.451-2.552c1.779-1.672,2.762-3.892,2.762-6.247
		c-0.004-1.82-0.805-3.306-2.514-4.666c-0.98-0.772-2.146-1.4-3.053-1.863l0,0v-3.581l0.074,0.042l4.157,2.167l0,0
		c1.575,0.991,2.709,2.103,3.472,3.396c0.794,1.35,1.178,2.889,1.178,4.717c-0.003,3.179-1.382,6.163-3.881,8.399
		c-2.382,2.126-5.57,3.347-8.763,3.347c-5.403,0-9.948-3.313-11.867-8.659l-0.104-0.286l-0.027-0.072L43.371,72.973z M55.121,82.989
		l0.032,0.002L55.292,83h0.001h0.001c0.906,0,1.811-0.104,2.7-0.276l0.037-0.006v4.988h-2.909V82.989z"/>
	<path fill="#FFFFFF" d="M19.082,144.115l-0.891-0.393c-0.454-0.204-0.969-0.438-1.36-0.752c-0.392-0.316-0.654-0.691-0.655-1.215
		c0.002-1.141,0.954-1.935,2.08-1.938c1.088,0.007,1.658,0.483,2.188,1.388l0.078,0.136l0.132-0.085l1.314-0.838l-0.066-0.123
		c-0.737-1.365-2.061-2.167-3.611-2.165c-1.032,0.001-2.008,0.346-2.729,0.967c-0.721,0.619-1.186,1.521-1.185,2.607
		c-0.002,0.997,0.358,1.729,0.918,2.282c0.559,0.554,1.306,0.938,2.096,1.298l0.002,0.001l0.817,0.353l0,0
		c0.625,0.284,1.233,0.56,1.672,0.94c0.438,0.384,0.716,0.854,0.719,1.597c0,0.716-0.31,1.329-0.792,1.771
		c-0.482,0.44-1.139,0.703-1.822,0.702c-1.361,0.001-2.355-1.055-2.546-2.369l-0.024-0.169l-1.76,0.494l0.028,0.137
		c0.435,2.146,2.112,3.604,4.338,3.6c1.207,0,2.302-0.466,3.094-1.237s1.283-1.851,1.283-3.069c0.002-1.104-0.39-1.905-1.003-2.51
		C20.783,144.92,19.96,144.504,19.082,144.115z"/>
	<polygon fill="#FFFFFF" points="25.252,140.28 28.498,140.28 28.498,152.341 30.296,152.341 30.296,152.19 30.296,140.28 
		33.579,140.28 33.579,138.587 25.252,138.587 	"/>
	<polygon fill="#FFFFFF" points="36.949,138.739 36.949,152.344 44.224,152.344 44.224,150.647 38.747,150.647 38.747,145.673 
		44.063,145.673 44.063,143.977 38.747,143.977 38.747,140.282 44.224,140.282 44.224,138.589 36.949,138.589 	"/>
	<path fill="#FFFFFF" d="M55.776,142.45c0.005-1.554-0.622-2.551-1.577-3.121c-0.952-0.571-2.207-0.739-3.495-0.74h-2.095v13.752
		h1.8v-0.15v-5.754h0.145l4.068,5.904h2.206l-4.312-6.072C54.508,145.993,55.784,144.5,55.776,142.45z M50.409,140.281h0.295
		c0.895-0.002,1.731,0.057,2.317,0.366c0.581,0.311,0.95,0.839,0.957,1.913c-0.006,1.003-0.393,1.529-0.988,1.852
		c-0.599,0.32-1.43,0.403-2.268,0.402h-0.313V140.281z"/>
	<polygon fill="#FFFFFF" points="60.412,138.59 60.412,152.344 65.922,152.344 65.922,150.646 62.213,150.646 62.213,138.59 	"/>
	<polygon fill="#FFFFFF" points="71.073,138.589 69.274,138.589 69.274,152.341 71.073,152.341 71.073,152.19 	"/>
	<polygon fill="#FFFFFF" points="86.218,148.174 75.729,137.189 75.729,137.563 75.729,151.731 77.528,151.731 77.528,141.591 
		88.017,152.564 88.017,137.979 86.218,137.979 	"/>
	<path fill="#FFFFFF" d="M105.452,145.048h-0.147H99.55v1.693h3.973c-0.049,1.129-0.607,2.086-1.448,2.773
		c-0.879,0.718-2.049,1.136-3.182,1.135c-1.355,0.002-2.753-0.71-3.707-1.668c-0.973-0.988-1.523-2.306-1.523-3.693
		c0-1.477,0.59-2.845,1.554-3.843c0.964-0.999,2.297-1.626,3.787-1.626c1.928,0.002,3.391,0.911,4.497,2.47l0.099,0.14l1.315-1.228
		l-0.083-0.108c-1.444-1.884-3.408-2.967-5.808-2.965c-3.954,0.001-7.159,3.205-7.16,7.143c0.002,3.861,3.204,7.068,7.072,7.07
		c1.917-0.001,3.828-0.838,5.091-2.299c1.18-1.364,1.434-2.812,1.432-4.482c0-0.12-0.001-0.241-0.003-0.364L105.452,145.048z"/>
	<path fill="#FFFFFF" d="M47.415,159.955l-0.002-0.001h0c-0.566-0.384-1.227-0.398-1.831-0.401h-1.148H44.41h-0.15v7.335h0.953
		h0.024h0.15v-0.176v-2.877h0.39c0.596-0.001,1.245-0.074,1.77-0.508c0.481-0.397,0.729-1.02,0.73-1.636
		C48.277,161.022,47.987,160.355,47.415,159.955z M46.754,162.528c-0.243,0.16-0.608,0.225-1.024,0.225l-0.344,0.003v-2.129H45.5
		c0.45,0,0.884,0.024,1.177,0.165c0.288,0.144,0.465,0.358,0.472,0.877C47.144,162.127,46.995,162.368,46.754,162.528z"/>
	<polygon fill="#FFFFFF" points="50.901,159.552 50.751,159.552 49.948,159.552 49.924,159.552 49.774,159.552 49.774,166.887 
		52.828,166.887 52.828,165.989 52.828,165.963 52.828,165.812 50.901,165.812 	"/>
	<path fill="#FFFFFF" d="M53.77,166.887H54h0.891h0.017h0.099l0.843-1.982h2.75l0.824,1.982h0.978h0.038h0.228l-3.404-7.932
		L53.77,166.887z M57.241,161.66l0.907,2.172h-1.835L57.241,161.66z"/>
	<polygon fill="#FFFFFF" points="62.136,159.552 62.136,159.703 62.136,160.451 62.136,160.476 62.136,160.627 65.325,160.627 
		61.519,166.887 67.006,166.887 67.006,165.989 67.006,165.963 67.006,165.812 66.831,165.812 63.428,165.812 67.244,159.552 	"/>
	<path fill="#FFFFFF" d="M71.427,159.271l-3.358,7.616h1.125h0.018h0.1l0.842-1.982h2.75l0.823,1.982h0.979h0.037h0.228
		l-3.403-7.932L71.427,159.271z M71.544,161.66l0.906,2.172h-1.834L71.544,161.66z"/>
</g>
</svg>
