<?xml version="1.0" encoding="utf-8"?>
<!-- Generator: Adobe Illustrator 16.0.0, SVG Export Plug-In . SVG Version: 6.00 Build 0)  -->
<!DOCTYPE svg PUBLIC "-//W3C//DTD SVG 1.1//EN" "http://www.w3.org/Graphics/SVG/1.1/DTD/svg11.dtd">
<svg version="1.1" id="Layer_1" xmlns="http://www.w3.org/2000/svg" xmlns:xlink="http://www.w3.org/1999/xlink" x="0px" y="0px"
	 width="131.309px" height="166.152px" viewBox="0 0 131.309 166.152" enable-background="new 0 0 131.309 166.152"
	 xml:space="preserve">
<g>
	<linearGradient id="SVGID_1_" gradientUnits="userSpaceOnUse" x1="22.4028" y1="99.4219" x2="108.9072" y2="12.9175">
		<stop  offset="0" style="stop-color:#C7986C"/>
		<stop  offset="0.0301" style="stop-color:#C7986C"/>
		<stop  offset="0.5126" style="stop-color:#BC8450"/>
		<stop  offset="1" style="stop-color:#9C6F42"/>
	</linearGradient>
	<path fill="url(#SVGID_1_)" d="M130.414,35.762c-1.854,0.916-3.918,2.184-5.792,3.402v-5.129l-8.09-4.689v29.988
		c0.001,26.424-20.148,48.139-45.92,50.631l-0.003-0.033c-0.597,0.064-1.077,0.406-1.526,0.809c-0.67,0.611-1.295,1.43-1.901,2.076
		c-0.301,0.322-0.595,0.6-0.86,0.783c-0.268,0.184-0.492,0.262-0.664,0.26c0,0-0.001,0-0.002,0v0.033h-0.002v-0.033
		c-0.001,0-0.002,0-0.002,0c-0.227,0.006-0.559-0.146-0.938-0.473c-0.569-0.48-1.193-1.273-1.832-1.98
		c-0.321-0.354-0.648-0.686-1-0.953c-0.351-0.264-0.735-0.475-1.182-0.521l-0.003,0.033c-25.771-2.492-45.921-24.207-45.92-50.631
		V29.346l-8.09,4.689v5.129c-1.874-1.219-3.938-2.486-5.792-3.402L0,35.318l1.929,10.428l0.188,0.117
		c0.512,0.316,1.021,0.646,1.523,0.982c1.053,0.705,2.065,1.445,3.046,2.213v10.223c0.001,31.186,24.212,56.721,54.864,58.826
		l0.089,0.004c0.545-0.01,0.962-0.303,1.333-0.633c0.555-0.508,1.057-1.193,1.541-1.736c0.239-0.27,0.473-0.502,0.676-0.648
		c0.206-0.15,0.365-0.203,0.464-0.201v-0.033h0.002v0.033c0.129-0.008,0.379,0.102,0.676,0.375c0.447,0.396,0.948,1.068,1.467,1.656
		c0.262,0.295,0.529,0.572,0.827,0.793c0.296,0.217,0.638,0.391,1.043,0.395l0.089-0.004c30.653-2.105,54.864-27.641,54.865-58.826
		V49.059c0.98-0.768,1.993-1.508,3.046-2.213c0.503-0.336,1.012-0.666,1.523-0.982l0.188-0.117l1.929-10.428L130.414,35.762z
		 M1.934,40.279l-0.582-3.146c1.581,0.842,3.271,1.879,4.84,2.902l0.45,2.293l0.001,0.832c-0.136-0.092-0.27-0.188-0.406-0.279
		C4.827,41.939,3.39,41.078,1.934,40.279z M2.818,45.062l-0.647-3.498c1.184,0.672,2.357,1.379,3.51,2.146
		c0.297,0.199,0.59,0.406,0.883,0.611L2.818,45.062z M6.687,47.803c-0.81-0.615-1.634-1.215-2.489-1.787
		c-0.081-0.055-0.165-0.105-0.246-0.158l2.735-0.541V47.803z M60.604,110.961l0.003-0.031c0.226,0.016,0.569,0.203,0.946,0.551
		c0.572,0.518,1.195,1.322,1.843,2.02c0.103,0.107,0.207,0.209,0.312,0.311c-1.404-0.049-2.795-0.146-4.17-0.301l-1.933-2.938
		C58.596,110.727,59.594,110.863,60.604,110.961z M56.257,110.344l1.975,3c-1.58-0.215-3.137-0.498-4.671-0.844l-1.65-3.15
		C53.336,109.74,54.785,110.074,56.257,110.344z M50.581,108.971l1.694,3.232c-1.718-0.432-3.401-0.947-5.051-1.539l-1.167-3.299
		C47.532,107.967,49.041,108.504,50.581,108.971z M44.809,106.836l1.192,3.365c-1.716-0.662-3.388-1.408-5.015-2.234l-0.767-3.418
		C41.704,105.385,43.237,106.145,44.809,106.836z M39.036,103.848l0.792,3.525c-1.61-0.865-3.174-1.805-4.682-2.822l-0.439-3.596
		C36.098,101.99,37.544,102.955,39.036,103.848z M29.931,96.928c1.171,1.113,2.394,2.172,3.665,3.174l0.448,3.666
		c-1.451-1.031-2.849-2.133-4.189-3.299L29.931,96.928z M25.791,92.529c1.001,1.201,2.055,2.355,3.159,3.461l-0.078,3.623
		c-0.624-0.568-1.236-1.15-1.834-1.748c-0.571-0.572-1.127-1.16-1.674-1.756L25.791,92.529z M24.915,91.432L24.478,95.1
		c-1.108-1.271-2.159-2.596-3.147-3.967l0.828-3.541C23.02,88.914,23.939,90.195,24.915,91.432z M21.407,86.408l-0.851,3.639
		c-0.91-1.332-1.758-2.707-2.55-4.119l1.248-3.379C19.917,83.869,20.638,85.156,21.407,86.408z M18.653,81.291l-1.283,3.475
		c-0.789-1.49-1.515-3.021-2.167-4.59l1.655-3.225C17.394,78.43,17.992,79.879,18.653,81.291z M16.403,75.645l-1.688,3.291
		C14.12,77.4,13.596,75.83,13.14,74.23l2.027-2.943C15.516,72.766,15.932,74.217,16.403,75.645z M14.876,69.945l-2.091,3.035
		c-0.417-1.611-0.755-3.254-1.025-4.92l2.369-2.771C14.309,66.863,14.558,68.416,14.876,69.945z M11.567,66.748
		c-0.229-1.666-0.389-3.354-0.464-5.064l2.673-2.674v0.324c0,1.545,0.076,3.074,0.208,4.586L11.567,66.748z M11.042,32.668
		l2.734-1.586v2.857l-2.734,2.734V32.668z M11.042,38.088l2.734-2.734v4.5l-2.734,2.734V38.088z M11.042,44.002l2.734-2.734v4.5
		l-2.734,2.734V44.002z M11.042,49.916l2.734-2.734v4.5l-2.734,2.734V49.916z M11.042,55.83l2.734-2.734v4.5l-2.708,2.709
		c-0.007-0.354-0.026-0.703-0.026-1.057V55.83z M10.042,33.246v3.064l-1.94-1.939L10.042,33.246z M7.687,35.369l2.355,2.355v4.5
		l-2.355-2.355V35.369z M7.687,41.283l2.355,2.355v4.5l-2.355-2.355V41.283z M7.687,47.197l2.355,2.355v4.5l-2.355-2.355V47.197z
		 M7.687,53.111l2.355,2.355v3.781c0,0.248,0.016,0.492,0.019,0.738l-2.374-2.375V53.111z M7.909,64.242
		c-0.139-1.637-0.223-3.289-0.223-4.961v-0.256l2.411,2.412c0.065,1.691,0.211,3.363,0.424,5.014l-2.6-2.223L7.909,64.242z
		 M8.861,70.906c-0.352-1.727-0.622-3.48-0.816-5.258l2.678,2.289c0.258,1.645,0.59,3.262,0.988,4.854l-2.815-1.936L8.861,70.906z
		 M9.158,72.25l2.958,2.033c0.45,1.609,0.968,3.189,1.557,4.736l-3.066-1.572C10.046,75.748,9.562,74.016,9.158,72.25z
		 M11.066,78.809l3.162,1.619c0.638,1.547,1.347,3.057,2.116,4.529l-3.241-1.193C12.351,82.15,11.671,80.498,11.066,78.809z
		 M13.736,85.062l3.322,1.223c0.789,1.416,1.63,2.797,2.535,4.133l-3.31-0.771C15.368,88.16,14.518,86.633,13.736,85.062z
		 M17.039,90.85l3.431,0.799c0.975,1.357,2.009,2.668,3.099,3.93l-3.426-0.404C19.044,93.783,18.009,92.34,17.039,90.85z
		 M21.052,96.287l3.493,0.412c1.108,1.217,2.274,2.381,3.486,3.494l-3.494-0.072C23.319,98.896,22.156,97.617,21.052,96.287z
		 M25.57,101.143l3.62,0.074c1.332,1.158,2.718,2.254,4.156,3.281l-3.413,0.422C28.417,103.732,26.959,102.475,25.57,101.143z
		 M31.058,105.789l3.497-0.432c1.478,0.998,3.005,1.928,4.579,2.783l-3.437,0.775C34.098,107.947,32.552,106.902,31.058,105.789z
		 M36.977,109.652l3.546-0.799c1.636,0.83,3.317,1.582,5.042,2.25l-3.36,1.191C40.411,111.5,38.669,110.617,36.977,109.652z
		 M43.56,112.877l3.459-1.227c1.607,0.57,3.246,1.076,4.917,1.5l-3.073,1.613C47.056,114.219,45.287,113.59,43.56,112.877z
		 M50.242,115.168l3.187-1.672c1.507,0.338,3.035,0.615,4.585,0.828l-2.949,1.943C53.433,115.967,51.823,115.604,50.242,115.168z
		 M62.762,116.262c-0.238,0.27-0.471,0.502-0.672,0.65c-0.202,0.15-0.358,0.201-0.45,0.199l-0.021-0.002
		c-1.729-0.119-3.435-0.322-5.118-0.59l3.038-2.002c1.474,0.162,2.968,0.258,4.475,0.301
		C63.569,115.279,63.158,115.816,62.762,116.262z M121.267,33.246l1.94,1.125l-1.94,1.939V33.246z M117.532,31.082l2.734,1.586
		v4.006l-2.734-2.734V31.082z M117.532,35.354l2.734,2.734v4.5l-2.734-2.734V35.354z M117.532,41.268l2.734,2.734v4.5l-2.734-2.734
		V41.268z M117.532,47.182l2.734,2.734v4.5l-2.734-2.734V47.182z M117.532,53.096l2.734,2.734v3.418c0,0.354-0.02,0.703-0.026,1.057
		l-2.708-2.709V53.096z M117.532,59.334V59.01l2.673,2.674c-0.075,1.711-0.234,3.398-0.464,5.064l-2.417-2.828
		C117.456,62.408,117.532,60.879,117.532,59.334z M117.18,65.289l2.369,2.771c-0.271,1.666-0.608,3.309-1.025,4.92l-2.091-3.035
		C116.751,68.416,117,66.863,117.18,65.289z M116.142,71.287l2.027,2.943c-0.456,1.6-0.98,3.17-1.575,4.705l-1.688-3.291
		C115.377,74.217,115.793,72.766,116.142,71.287z M114.45,76.951l1.655,3.225c-0.652,1.568-1.378,3.1-2.167,4.59l-1.283-3.475
		C113.316,79.879,113.915,78.43,114.45,76.951z M112.054,82.549l1.248,3.379c-0.792,1.412-1.64,2.787-2.55,4.119l-0.851-3.637
		C110.67,85.156,111.392,83.871,112.054,82.549z M109.15,87.592l0.828,3.541c-0.988,1.371-2.039,2.695-3.147,3.967l-0.438-3.668
		C107.369,90.195,108.289,88.914,109.15,87.592z M105.518,92.529l0.427,3.58c-0.547,0.596-1.103,1.184-1.674,1.756
		c-0.598,0.598-1.21,1.18-1.834,1.748l-0.078-3.623C103.463,94.885,104.517,93.73,105.518,92.529z M97.713,100.102
		c1.271-1.002,2.494-2.061,3.665-3.174l0.076,3.541c-1.341,1.166-2.738,2.268-4.189,3.299L97.713,100.102z M92.272,103.848
		c1.492-0.893,2.938-1.857,4.329-2.893l-0.439,3.596c-1.508,1.018-3.071,1.957-4.681,2.822L92.272,103.848z M86.5,106.836
		c1.571-0.691,3.104-1.451,4.589-2.287l-0.767,3.418c-1.627,0.826-3.299,1.572-5.015,2.234L86.5,106.836z M85.251,107.365
		l-1.167,3.299c-1.649,0.592-3.333,1.107-5.051,1.539l1.694-3.232C82.268,108.504,83.776,107.967,85.251,107.365z M79.398,109.35
		l-1.65,3.15c-1.534,0.346-3.091,0.629-4.671,0.844l1.975-3C76.523,110.074,77.973,109.74,79.398,109.35z M69.168,112.08
		c0.302-0.334,0.596-0.627,0.864-0.83c0.268-0.205,0.5-0.307,0.67-0.32l0.003,0.031c1.01-0.098,2.008-0.234,2.999-0.389
		l-1.933,2.938c-1.375,0.154-2.767,0.252-4.17,0.301C68.151,113.27,68.667,112.627,69.168,112.08z M69.689,117.109l-0.021,0.002
		c-0.118,0.008-0.365-0.102-0.66-0.373c-0.443-0.4-0.944-1.07-1.465-1.66c-0.081-0.09-0.164-0.174-0.247-0.26
		c1.507-0.043,3-0.139,4.475-0.301l3.038,2.002C73.124,116.787,71.419,116.99,69.689,117.109z M76.244,116.268l-2.949-1.943
		c1.55-0.213,3.078-0.49,4.585-0.828l3.187,1.672C79.485,115.604,77.876,115.967,76.244,116.268z M82.446,114.764l-3.073-1.613
		c1.671-0.424,3.31-0.93,4.917-1.5l3.459,1.227C86.021,113.59,84.252,114.219,82.446,114.764z M89.104,112.295l-3.359-1.191
		c1.725-0.668,3.406-1.42,5.042-2.25l3.546,0.799C92.64,110.617,90.896,111.5,89.104,112.295z M95.611,108.916l-3.437-0.775
		c1.574-0.855,3.103-1.785,4.58-2.783l3.496,0.432C98.757,106.902,97.211,107.947,95.611,108.916z M101.375,104.92l-3.413-0.422
		c1.438-1.027,2.824-2.123,4.156-3.281l3.62-0.074C104.349,102.475,102.891,103.732,101.375,104.92z M106.771,100.121l-3.495,0.072
		c1.212-1.113,2.378-2.277,3.487-3.494l3.493-0.412C109.152,97.617,107.989,98.896,106.771,100.121z M111.166,95.174l-3.426,0.404
		c1.09-1.262,2.124-2.572,3.099-3.93l3.431-0.799C113.3,92.34,112.265,93.783,111.166,95.174z M115.024,89.646l-3.31,0.771
		c0.905-1.336,1.746-2.717,2.535-4.133l3.322-1.223C116.791,86.633,115.94,88.16,115.024,89.646z M118.205,83.764l-3.241,1.193
		c0.77-1.473,1.479-2.982,2.116-4.529l3.162-1.619C119.638,80.498,118.958,82.15,118.205,83.764z M120.702,77.447l-3.066,1.572
		c0.589-1.547,1.106-3.127,1.557-4.736l2.958-2.033C121.747,74.016,121.263,75.748,120.702,77.447z M122.447,70.906l-0.034-0.051
		l-2.815,1.936c0.398-1.592,0.73-3.209,0.988-4.854l2.678-2.289C123.069,67.426,122.799,69.18,122.447,70.906z M123.622,59.281
		c0,1.672-0.084,3.324-0.223,4.961l-0.013-0.014l-2.6,2.223c0.213-1.65,0.358-3.322,0.424-5.014l2.411-2.412V59.281z
		 M123.622,57.611l-2.374,2.375c0.003-0.246,0.019-0.49,0.019-0.738v-3.781l2.355-2.355V57.611z M123.622,51.697l-2.355,2.355v-4.5
		l2.355-2.355V51.697z M123.622,45.783l-2.355,2.355v-4.5l2.355-2.355V45.783z M123.622,39.869l-2.355,2.355v-4.5l2.355-2.355
		V39.869z M127.111,46.014c-0.855,0.574-1.68,1.174-2.489,1.789v-2.486l2.734,0.539C127.275,45.91,127.192,45.961,127.111,46.014z
		 M128.489,45.061l-3.745-0.738c0.294-0.205,0.587-0.412,0.885-0.611c1.15-0.768,2.324-1.473,3.507-2.146L128.489,45.061z
		 M129.374,40.279c-1.456,0.799-2.894,1.66-4.301,2.6c-0.138,0.094-0.271,0.188-0.407,0.281l0.001-0.832l0.45-2.293
		c1.569-1.021,3.259-2.059,4.839-2.902L129.374,40.279z"/>
	<linearGradient id="SVGID_2_" gradientUnits="userSpaceOnUse" x1="29.4165" y1="89.0488" x2="101.8934" y2="16.5719">
		<stop  offset="0" style="stop-color:#C7986C"/>
		<stop  offset="0.0301" style="stop-color:#C7986C"/>
		<stop  offset="0.5126" style="stop-color:#BC8450"/>
		<stop  offset="1" style="stop-color:#9C6F42"/>
	</linearGradient>
	<path fill="url(#SVGID_2_)" d="M58.911,105.531c1.553,0.328,5.107,1.309,6.744,3.666c1.637-2.357,5.189-3.338,6.744-3.666
		c22.248-3.23,39.389-22.199,39.777-45.25l0.018,0.016v-0.736c0-0.025,0.002-0.051,0.002-0.078c0-0.025-0.002-0.051-0.002-0.076
		V26.873L65.653,0L19.112,26.873v33.424l0.023-0.02C19.522,83.33,36.661,102.299,58.911,105.531z M76.462,71.215
		c-2.951,2.26-6.459,3.65-10.209,3.824c0,0-0.239,0.012-0.251,0.012V71.85c0.104-0.002,0.175,0,0.277-0.004
		c3.556-0.281,7.838-2.256,10.001-4.906l0.182-0.223V71.215z M61.993,37.156v-5.721h8.012c3.549,0,6.992,0.24,9.832,2.658
		c2.781,2.357,4.107,5.799,4.107,9.357c0,3.26-1.266,6.879-3.805,9c-2.783,2.418-6.584,2.896-10.135,2.896h-5.053v0.732v1.803v3.391
		v0.67v18.559v1.721v3.322h-2.959V82.65v-1.871V60.502v-1.816V55.32v-0.676V43.869c0.05-0.014,0.098-0.035,0.148-0.047
		c0.055-0.016,0.111-0.021,0.167-0.035c0.444-0.107,0.893-0.195,1.348-0.256c0.146-0.02,0.296-0.025,0.443-0.041
		c0.28-0.027,0.562-0.043,0.845-0.053v9.096h5.182c2.941,0,5.568-0.359,7.896-2.449c1.973-1.795,2.928-4.121,2.928-6.752
		c0-2.811-1.137-5.621-3.404-7.289c-2.264-1.73-5.137-1.793-7.9-1.791h-4.701v3.904c-1.006,0.031-1.991,0.133-2.951,0.314V37.156z
		 M65.511,39.176c3.947,0.002,7.904,1.465,10.951,3.994v4.547l-0.184-0.227c-2.463-3.029-6.916-5.131-10.885-5.127h-0.01h-0.006
		c-4.047,0-7.748,1.744-10.441,4.496c-2.693,2.754-4.367,6.504-4.367,10.49c0,3.779,1.631,7.354,4.355,10.033
		c1.486,1.418,3.337,2.607,5.322,3.416v-0.002c0.233,0.092,0.439,0.164,0.687,0.246v3.428c-0.127-0.029-0.207-0.043-0.333-0.082
		l-0.324-0.1c-7.371-2.252-13.018-9.107-13.027-17.119C47.257,47.23,55.589,39.178,65.511,39.176z"/>
	<linearGradient id="SVGID_3_" gradientUnits="userSpaceOnUse" x1="10.4639" y1="148.4404" x2="24.0821" y2="134.8222">
		<stop  offset="0" style="stop-color:#C7986C"/>
		<stop  offset="0.0301" style="stop-color:#C7986C"/>
		<stop  offset="0.5126" style="stop-color:#BC8450"/>
		<stop  offset="1" style="stop-color:#9C6F42"/>
	</linearGradient>
	<path fill="url(#SVGID_3_)" d="M20.145,133.98h-7.377v0.588c2.32,0,2.654,0.447,2.654,3.24v9.08c0,2.795-0.334,3.27-2.654,3.27
		v0.586h7.545v-0.586c-2.32,0-2.654-0.475-2.654-3.27v-3.492h2.486c3.883,0,6.006-2.096,6.006-4.693S24.027,133.98,20.145,133.98z
		 M20.115,142.391h-2.457v-7.375h2.457c2.432,0,3.549,1.676,3.549,3.688C23.664,140.742,22.547,142.391,20.115,142.391z"/>
	<linearGradient id="SVGID_4_" gradientUnits="userSpaceOnUse" x1="28.7588" y1="150.8115" x2="39.5975" y2="139.9728">
		<stop  offset="0" style="stop-color:#C7986C"/>
		<stop  offset="0.0301" style="stop-color:#C7986C"/>
		<stop  offset="0.5126" style="stop-color:#BC8450"/>
		<stop  offset="1" style="stop-color:#9C6F42"/>
	</linearGradient>
	<path fill="url(#SVGID_4_)" d="M33.182,146.643v-1.467h0.838l4.072,5.568h3.832v-0.598c-1.438-0.211-2.814-1.377-4.012-2.785
		l-1.855-2.244c2.244-0.301,3.621-1.797,3.621-3.623c0-2.125-1.705-3.713-4.789-3.713h-6.197v0.6c2.006,0,2.365,0.479,2.365,3.473
		v4.789c0,2.994-0.359,3.504-2.365,3.504v0.598h6.857v-0.598C33.541,150.146,33.182,149.637,33.182,146.643z M33.182,138.859h1.707
		c1.676,0,2.455,1.197,2.455,2.635c0,1.406-0.779,2.574-2.455,2.574h-1.707V138.859z"/>
	<linearGradient id="SVGID_5_" gradientUnits="userSpaceOnUse" x1="43.6836" y1="150.3027" x2="55.404" y2="138.5823">
		<stop  offset="0" style="stop-color:#C7986C"/>
		<stop  offset="0.0301" style="stop-color:#C7986C"/>
		<stop  offset="0.5126" style="stop-color:#BC8450"/>
		<stop  offset="1" style="stop-color:#9C6F42"/>
	</linearGradient>
	<path fill="url(#SVGID_5_)" d="M44.125,150.146v0.598h11.197l0.24-3.621h-0.598l-0.152,0.598c-0.357,1.408-0.748,1.916-3.471,1.916
		H50.98c-2.006,0-2.363-0.479-2.363-3.473v-1.736h0.182c2.99,0,3.23,0.389,3.23,2.365h0.6v-5.838h-0.6
		c0,2.006-0.24,2.365-3.23,2.365h-0.182v-4.461h2.006c2.723,0,3.113,0.539,3.441,1.916l0.15,0.6h0.629l-0.24-3.594h-3.861h-6.617
		v0.6c2.008,0,2.365,0.479,2.365,3.473v4.789C46.49,149.637,46.133,150.146,44.125,150.146z"/>
	<linearGradient id="SVGID_6_" gradientUnits="userSpaceOnUse" x1="57.6875" y1="149.8691" x2="68.5096" y2="139.0471">
		<stop  offset="0" style="stop-color:#C7986C"/>
		<stop  offset="0.0301" style="stop-color:#C7986C"/>
		<stop  offset="0.5126" style="stop-color:#BC8450"/>
		<stop  offset="1" style="stop-color:#9C6F42"/>
	</linearGradient>
	<path fill="url(#SVGID_6_)" d="M63.771,150.086c-2.246,0-3.861-1.438-4.102-3.982h-0.598v5.15h0.537
		c0.09-0.51,0.391-0.898,0.57-1.107c0.539,0.359,1.795,1.107,3.352,1.107c2.307,0,4.252-1.646,4.252-4.102
		c0-1.168-0.629-2.516-2.336-3.383l-2.006-1.049c-1.826-0.957-2.604-1.525-2.604-2.574c0-1.107,0.988-1.736,2.158-1.736
		c2.152,0,2.961,2.125,3.141,3.922h0.6v-5.059h-0.6c-0.061,0.479-0.299,0.748-0.449,0.928c-0.629-0.449-1.586-0.898-2.844-0.898
		c-2.156,0-3.742,1.527-3.742,3.412c0,1.678,1.047,2.904,2.484,3.652l2.037,1.049c1.615,0.809,2.453,1.617,2.453,2.664
		C66.076,149.367,65.059,150.086,63.771,150.086z"/>
	<linearGradient id="SVGID_7_" gradientUnits="userSpaceOnUse" x1="70.6113" y1="148.4102" x2="82.1377" y2="136.8838">
		<stop  offset="0" style="stop-color:#C7986C"/>
		<stop  offset="0.0301" style="stop-color:#C7986C"/>
		<stop  offset="0.5126" style="stop-color:#BC8450"/>
		<stop  offset="1" style="stop-color:#9C6F42"/>
	</linearGradient>
	<path fill="url(#SVGID_7_)" d="M77.438,146.643v-7.693h1.559c2.752,0,3.111,0.51,3.471,1.916l0.148,0.6h0.631l-0.211-3.684H69.684
		l-0.18,3.684h0.598l0.15-0.6c0.359-1.406,0.598-1.916,3.354-1.916h1.736v7.693c0,2.994-0.391,3.504-2.396,3.504v0.598h6.887v-0.598
		C77.826,150.146,77.438,149.637,77.438,146.643z"/>
	<linearGradient id="SVGID_8_" gradientUnits="userSpaceOnUse" x1="87.582" y1="149.3125" x2="97.6734" y2="139.2212">
		<stop  offset="0" style="stop-color:#C7986C"/>
		<stop  offset="0.0301" style="stop-color:#C7986C"/>
		<stop  offset="0.5126" style="stop-color:#BC8450"/>
		<stop  offset="1" style="stop-color:#9C6F42"/>
	</linearGradient>
	<path fill="url(#SVGID_8_)" d="M92.627,137.273c-4.012,0-7.305,3.172-7.305,6.975c0,3.861,3.293,7.006,7.305,7.006
		s7.305-3.145,7.305-7.006C99.932,140.445,96.639,137.273,92.627,137.273z M92.627,150.086c-3.533,0-4.85-3.232-4.85-5.838
		c0-2.574,1.316-5.838,4.85-5.838c3.535,0,4.85,3.264,4.85,5.838C97.477,146.854,96.162,150.086,92.627,150.086z"/>
	<linearGradient id="SVGID_9_" gradientUnits="userSpaceOnUse" x1="101.0361" y1="150.7588" x2="117.6535" y2="134.1414">
		<stop  offset="0" style="stop-color:#C7986C"/>
		<stop  offset="0.0301" style="stop-color:#C7986C"/>
		<stop  offset="0.5126" style="stop-color:#BC8450"/>
		<stop  offset="1" style="stop-color:#9C6F42"/>
	</linearGradient>
	<path fill="url(#SVGID_9_)" d="M112.326,135.725v0.15h0.15c1.075-0.002,1.637,0.113,1.924,0.477
		c0.302,0.361,0.395,1.09,0.391,2.383v8.369l-9.739-12.074h-3.88v0.695v0.15h0.15c1.074-0.002,1.636,0.113,1.923,0.477
		c0.302,0.361,0.396,1.09,0.392,2.383v8.43c0.004,1.295-0.089,2.029-0.393,2.398c-0.288,0.369-0.848,0.488-1.922,0.486h-0.15v0.695
		v0.15h6.215v-0.695v-0.15h-0.15c-1.073,0.002-1.642-0.117-1.936-0.488c-0.31-0.369-0.408-1.102-0.404-2.396v-8.602l10.337,12.773
		h0.667h0.15v-12.602c-0.004-1.293,0.096-2.02,0.403-2.381c0.294-0.365,0.862-0.48,1.937-0.479h0.15v-0.695v-0.15h-6.215V135.725z"
		/>
	<linearGradient id="SVGID_10_" gradientUnits="userSpaceOnUse" x1="38.1787" y1="164.8389" x2="43.2828" y2="159.7347">
		<stop  offset="0" style="stop-color:#C7986C"/>
		<stop  offset="0.0301" style="stop-color:#C7986C"/>
		<stop  offset="0.5126" style="stop-color:#BC8450"/>
		<stop  offset="1" style="stop-color:#9C6F42"/>
	</linearGradient>
	<path fill="url(#SVGID_10_)" d="M40.782,158.646c-2.014,0-3.664,1.65-3.665,3.666c0.001,1.996,1.679,3.607,3.665,3.609
		c0.747,0,1.493-0.252,2.099-0.691l0.011-0.008v-0.975v-0.061l-0.043,0.043c-0.551,0.551-1.314,0.92-2.094,0.918
		c-1.551-0.002-2.807-1.34-2.809-2.865c0.002-1.523,1.249-2.861,2.79-2.863c0.798,0,1.562,0.348,2.112,0.918l0.043,0.045v-0.062
		v-0.963v-0.014l-0.011-0.008C42.257,158.871,41.565,158.646,40.782,158.646z"/>
	<linearGradient id="SVGID_11_" gradientUnits="userSpaceOnUse" x1="45.5913" y1="164.8701" x2="50.7512" y2="159.7103">
		<stop  offset="0" style="stop-color:#C7986C"/>
		<stop  offset="0.0301" style="stop-color:#C7986C"/>
		<stop  offset="0.5126" style="stop-color:#BC8450"/>
		<stop  offset="1" style="stop-color:#9C6F42"/>
	</linearGradient>
	<path fill="url(#SVGID_11_)" d="M48.171,158.646c-2.005,0-3.664,1.633-3.665,3.646c0,2.023,1.66,3.625,3.665,3.629
		c2.006-0.004,3.666-1.605,3.666-3.629C51.836,160.279,50.177,158.646,48.171,158.646z M48.171,165.148
		c-1.569-0.002-2.834-1.303-2.836-2.865c0-1.568,1.248-2.861,2.836-2.863c1.589,0.002,2.837,1.295,2.837,2.863
		C51.005,163.846,49.74,165.146,48.171,165.148z"/>
	<linearGradient id="SVGID_12_" gradientUnits="userSpaceOnUse" x1="53.7422" y1="166.2812" x2="60.7577" y2="159.2658">
		<stop  offset="0" style="stop-color:#C7986C"/>
		<stop  offset="0.0301" style="stop-color:#C7986C"/>
		<stop  offset="0.5126" style="stop-color:#BC8450"/>
		<stop  offset="1" style="stop-color:#9C6F42"/>
	</linearGradient>
	<polygon fill="url(#SVGID_12_)" points="57.246,164.195 54.698,158.311 54.684,158.389 53.261,165.801 54.088,165.801 
		54.108,165.801 55.001,161.107 57.246,166.125 59.5,161.107 60.393,165.801 61.21,165.801 61.24,165.801 59.802,158.311 	"/>
	<linearGradient id="SVGID_13_" gradientUnits="userSpaceOnUse" x1="63.1997" y1="166.2832" x2="70.2152" y2="159.2677">
		<stop  offset="0" style="stop-color:#C7986C"/>
		<stop  offset="0.0301" style="stop-color:#C7986C"/>
		<stop  offset="0.5126" style="stop-color:#BC8450"/>
		<stop  offset="1" style="stop-color:#9C6F42"/>
	</linearGradient>
	<polygon fill="url(#SVGID_13_)" points="66.702,164.195 64.155,158.311 64.141,158.389 62.717,165.801 63.544,165.801 
		63.564,165.801 64.458,161.105 66.702,166.125 68.957,161.107 69.85,165.801 70.667,165.801 70.697,165.801 69.258,158.311 	"/>
	<linearGradient id="SVGID_14_" gradientUnits="userSpaceOnUse" x1="73.207" y1="164.8711" x2="78.3667" y2="159.7114">
		<stop  offset="0" style="stop-color:#C7986C"/>
		<stop  offset="0.0301" style="stop-color:#C7986C"/>
		<stop  offset="0.5126" style="stop-color:#BC8450"/>
		<stop  offset="1" style="stop-color:#9C6F42"/>
	</linearGradient>
	<path fill="url(#SVGID_14_)" d="M75.786,158.646c-2.005,0-3.664,1.633-3.665,3.646c0,2.023,1.66,3.625,3.665,3.629
		c2.006-0.004,3.666-1.605,3.666-3.629C79.451,160.279,77.792,158.646,75.786,158.646z M75.786,165.148
		c-1.569-0.002-2.834-1.303-2.836-2.865c0-1.568,1.248-2.861,2.836-2.863c1.589,0.002,2.837,1.295,2.837,2.863
		C78.62,163.846,77.355,165.146,75.786,165.148z"/>
	<linearGradient id="SVGID_15_" gradientUnits="userSpaceOnUse" x1="81.3223" y1="165.6152" x2="87.9762" y2="158.9612">
		<stop  offset="0" style="stop-color:#C7986C"/>
		<stop  offset="0.0301" style="stop-color:#C7986C"/>
		<stop  offset="0.5126" style="stop-color:#BC8450"/>
		<stop  offset="1" style="stop-color:#9C6F42"/>
	</linearGradient>
	<polygon fill="url(#SVGID_15_)" points="86.952,158.768 86.952,164.139 81.507,158.434 81.507,158.496 81.507,165.801 
		82.31,165.801 82.335,165.801 82.335,160.457 87.781,166.152 87.781,158.768 86.978,158.768 	"/>
	<linearGradient id="SVGID_16_" gradientUnits="userSpaceOnUse" x1="89.7227" y1="164.623" x2="94.3362" y2="160.0095">
		<stop  offset="0" style="stop-color:#C7986C"/>
		<stop  offset="0.0301" style="stop-color:#C7986C"/>
		<stop  offset="0.5126" style="stop-color:#BC8450"/>
		<stop  offset="1" style="stop-color:#9C6F42"/>
	</linearGradient>
	<path fill="url(#SVGID_16_)" d="M92.499,161.752l-0.463-0.203c-0.475-0.215-1.08-0.49-1.077-1.07
		c0.001-0.623,0.523-1.059,1.132-1.059c0.585,0,0.906,0.27,1.184,0.746l0.013,0.023l0.022-0.014l0.62-0.398l0.02-0.014l-0.011-0.02
		c-0.374-0.693-1.042-1.098-1.828-1.098c-1.049,0.002-1.979,0.705-1.98,1.803c0,1.016,0.719,1.441,1.534,1.811l0.427,0.186
		c0.65,0.299,1.272,0.57,1.271,1.367c-0.001,0.771-0.673,1.336-1.41,1.336c-0.736,0-1.273-0.572-1.374-1.275l-0.004-0.027
		l-0.787,0.221l-0.022,0.006l0.005,0.023c0.224,1.094,1.069,1.826,2.201,1.826c1.227-0.004,2.218-0.947,2.221-2.184
		C94.191,162.611,93.407,162.148,92.499,161.752z"/>
</g>
</svg>
